/* XPM */
static char *result[] = {
/* columns rows colors chars-per-pixel */
"85 82 15 1 ",
"  c #1E1208",
". c #2E1D0F",
"X c #3D2715",
"o c #122020",
"O c #1B392E",
"+ c #24523B",
"@ c #1A7A3E",
"# c #6C4C31",
"$ c #8A633A",
"% c #956D44",
"& c #14A02E",
"* c #59C135",
"= c #BF8F57",
"- c #9CDB43",
"; c None",
/* pixels */
";;;;;;;;;;;;;;;;;;;;;;;;;;;;;;;;;;;;;;;;;;;;;;;;;;;;;;;;;;;;;;;;;;;;;;;;;;;;;;;;;;;;;",
";;;;;;;;;;;;;;;;;;;;;;;;;;;;;;;;;;;;;;;;;;;;;;;oooooo;;;;;;;;;;;;;;;;;;;;;;;;;;;;;;;;",
";;;;;;;;;;;;;;;;;;;;;;;;;;;;;;;;;;;;;;;;;;;;;oo*****&oo;;;;;;;;;;;;;;;;;;;;;;;;;;;;;;",
";;;;;;;;;;;;;;;;;;;;;;;;oooooo;;;;;;;;;;;;;;o********&&o;;;;;;;;;;;;;;;;;;;;;;;;;;;;;",
";;;;;;;;;;;;;;;;;;;;;;oo&&&***oo;;;;;;;;;;;o&**----****&o;;;;;;;;;;;;;;;;;;;;;;;;;;;;",
";;;;;;;;;;;;;;;;;;;;;o&****----*oo;;;;;;;;o&**----******&o;;;;;;;;;;;;;;;;;;;;;;;;;;;",
";;;;;;;;;;;;;;;;;;;;o&******-----*o;;;;;;o&&*----------**&o;;;;;;;;;;;;;;;;;;;;;;;;;;",
";;;;;;;;;;;;;;;;;;;o&***----------*o;;;;;o&**----------**&o;;;;;;;;;;;;;;;;;;;;;;;;;;",
";;;;;;;;;;;;;;;;;;;o&**------------*o;;;o&&*----*-----**&&o;;;;;;;;;;;;;;;;;;;;;;;;;;",
";;;;;;;;;;;;;;;;;;o&****------**---*&o;;o&**--****---**&&@o;;;;;;;;;;;;;;;;;;;;;;;;;;",
";;;;;;;;;;;;;;;;;;o&****-----*****-*&o;;o&********-**&&&@+o;;;;;;;;;;;;;;;;;;;;;;;;;;",
";;;;;;;;;;;;;;;;;;o&&&****----******&&o;o&***&&***-*&&&@++o;;;oooo;;;;;;;;;;;;;;;;;;;",
";;;;;;;;;;;;;;;;;;o&@@&&****--*******&&o&&**&&&****&&&@++o;ooo*---ooo;;;;;;;;;;;;;;;;",
";;;;;;;;;;;;;;;;;;o@++@&&****-****&&*&&o&&*&&&&&**&&&@+++oo**------**oo;;;;;;;;;;;;;;",
";;;;;;;;;;;;;;;;;;;o++o@&&******&&&&&&&o&&&&&&&&*&&&@+++&***-****---***o;;;;;;;;;;;;;",
";;;;;;;;;;;;;;;;;;;o+++o@@&&***&&@@&&&&@&&&&&&@&&&&&@++&&******-------**o;;;;;;;;;;;;",
";;;;;;;;;;;;;;;;;;;o++++o@@&&**&&&@@&&&@&&&&&@@&&&&@++&&&**&**---------**o;;;;;;;;;;;",
";;;;;;;;;;;;;;;;;;;;o+++oo@@&&*&&&@@@&&@&&&&@+@&&&&@+&&&&&&&**-********-**o;;;;;;;;;;",
";;;;;;;;;;;;;;;;;;;;;o++o;o@@&&&&&&@@@&@&&&@+@@&&&@+&&&&&&&***************&o;;;;;;;;;",
";;;;;;;;;;;;;;;;;;;;;;oo;;;o@@&&&&&@@@@&@&@++@@&&&+&&&&&&&&****&&&&&&&****&o;;;;;;;;;",
";;;;;;;;;;;;;;;;;;;;;;;;;;;o+@@@&@@@+@@@@@@++@@&&+&&&&&@&&&*&&&&&&@@@@&&**&o;;;;;;;;;",
";;;;;;;;;;;;;;;;;;;oooooooooo++@@@@@@+@@@@+++@@@+@&&&@@&&&&&&&&@@@@ooo@@&**o;;;;;;;;;",
";;;;;;;;;;;;;;;;;oo*****&&&&@@@++@@@@@++@@++++@@+@@@++&&&&&&&@@@@oo+++oo@&&o;;;;;;;;;",
";;;;;;;;;;;;;;;oo****----*&&&&@@@@@@@@+++@+++++++++++@&&&&&@@@@oo;;o+++++@&o;;;;;;;;;",
";;;;;;;;;;;;;oo***-----***&&@++++++@@++O+++O+++++++++@&&&&@@@oo;;;;o++++++o;;;;;;;;;;",
";;;;;;;;;;;;o***---------**&&&@@@@O++++OO+OOO++O++O+@@@@@@@@o;;;;;;o+++++o;;;;;;;;;;;",
";;;;;;;;;;;o****---------***&&&@@@@O++OOOOOOOOOOOOO+@&&&&@@o;;;;;;;;ooooo;;;;;;;;;;;;",
";;;;;;;;;;o&***---*----**&&&&&&&@@@+ooOOOOOOOOOOOooo@&&&&&&&oo;;;;;;;;;;;;;;;;;;;;;;;",
";;;;;;;;;o&****-***---***&&&&&&@@@+@@&ooOOOOOOOOo@&&&&&******&oo;;;;;;;;;;;;;;;;;;;;;",
";;;;;;;;;o&*&&&********&&&&@@@@@@o@***&&ooOOOOOOo&&&&&&&********oooo;;;;;;;;;;;;;;;;;",
";;;;;;;;o&&&&&*****&&&&&&@@@@+++o@******&&oOooOo@&&&****&***---*****oo;;;;;;;;;;;;;;;",
";;;;;;;;o&&&&&****&&&&&@@@@oooooo****--***&o&&o&&@&&&*******-------**&o;;;;;;;;;;;;;;",
";;;;;;;;o&&&&**&&&&&&&@@ooo;;;;o****---***&@**&*&*@&&&&**-----------**&o;;;;;;;;;;;;;",
";;;;;;;;o&&&&*&&&&&&@@oo;;;;;;o****------**@*******@@&&&**-----**----**&o;;;;;;;;;;;;",
";;;;;;;;o&&&&&&&&&&@@o;;;;;;;o*****------**@*-**-***@@&&&&**----***--**&&o;;;;;;;;;;;",
";;;;;;;;o&&&&&&&&&@@o+o;;;;;o*****------***@*--*--***@@&&&&&&*--********&&o;;;;;;;;;;",
";;;;;;;;o&&&&&&&&@@o++o;;;;o*****-------**&@*------**o@@@&&&&&*****&&***&&o;;;;;;;;;;",
";;;;;;;;o&&&&&&&&@++++o;;;o*****---**--***@@**------**o@@@&&&&&&****&&&**&&o;;;;;;;;;",
";;;;;;;;;o&&&&&&@++++o;;;o*****--****-****@@**------**&oo@@&&&&&&&*&&&&&&&@o;;;;;;;;;",
";;;;;;;;;;o&&&&@++++o;;;o****************@o@**---**--**o;o+@&&&&&&&&&&&&&&@o;;;;;;;;;",
";;;;;;;;;;;o&&&@+++o;;;o***&&***********&@o@&*----*--**o;;o+@&*&&&&&&&&&&&@@o;;;;;;;;",
";;;;;;;;;;;;ooooooo;;;o***&&&***&&*****&@oo@&**---***-**o;;o+@@*&&&&&&&&&&@@o;;;;;;;;",
";;;;;;;;;;;;;;;;;;;;;o***&&&**&&&*****&@o#o@&****-***-**&o;;o++@*&&&&&&&@@@@o;;;;;;;;",
";;;;;;;;;;;;;;;;;;;;o***&&&&&&&&&****&&@o#o@&&**********&o;;;o++@&@@@@@@@@@@o;;;;;;;;",
";;;;;;;;;;;;;;;;;;;o***&&&&&&&@&**&*&&@o##o@&&***********&o;;;o++@&@@@@@@@@@o;;;;;;;;",
";;;;;;;;;;;;;;;;;;;o*&&&&&&&@@@&&&&&&@oX##o@&&***********&o;;;;o++&@@@@@@@@o;;;;;;;;;",
";;;;;;;;;;;;;;;;;;o*&&&&&&&@@@@&&&&&@oX###o@&&&**********&@o;;;;o++&@@@@@@o;;;;;;;;;;",
";;;;;;;;;;;;;;;;;;o*&&&&&@@@@@@&&&&@o.XX## o&&&**********&&o;;;;;oo@@@@@@o;;;;;;;;;;;",
";;;;;;;;;;;;;;;;;o&&&&&&&@@@@@@@@@+o=.XXXX o@&&&*****&**&&&o;;;;;;;oo@@@o;;;;;;;;;;;;",
";;;;;;;;;;;;;;;;;o&&&&&@@@@@@@@@@+o$==..XX ;o@&&&****&&&&&&&o;;;;;;;;ooo;;;;;;;;;;;;;",
";;;;;;;;;;;;;;;;;o&&&@@@@@@@@@@@+o $%==$.. ;o@&&&&&**&&&&&&@o;;;;;;;;;;;;;;;;;;;;;;;;",
";;;;;;;;;;;;;;;;;o@@@@@@+@@@@@++o; $%%===== o@@&&&&&&&&&&&&@o;;;;;;;;;;;;;;;;;;;;;;;;",
";;;;;;;;;;;;;;;;;o@@@@@++@@@@++o;; $$%%%=== o@@&&&&&&&&&&&&@o;;;;;;;;;;;;;;;;;;;;;;;;",
";;;;;;;;;;;;;;;;;;o@@@+++@@+++o;;; #$$%%%%= ;o@@@&&&&&&&&&@@o;;;;;;;;;;;;;;;;;;;;;;;;",
";;;;;;;;;;;;;;;;;;;ooo++++++oo;;;; X#$$$%%% ;o@@@&&&&&&&&&@@o;;;;;;;;;;;;;;;;;;;;;;;;",
";;;;;;;;;;;;;;;;;;;;;;o+++oo;;;;;; X##$$$$% ;;o@@@&&&&&&&&@@o;;;;;;;;;;;;;;;;;;;;;;;;",
";;;;;;;;;;;;;;;;;;;;;;;ooo;;;;;;; =X###$$$$ ;;o@@@@&&&@&@@@o;;;;;;;;;;;;;;;;;;;;;;;;;",
";;;;;;;;;;;;;;;;;;;;;;;;;;;;;;;;; ==X####$$$ ;;o@@@@@@@@@@@o;;;;;;;;;;;;;;;;;;;;;;;;;",
";;;;;;;;;;;;;;;;;;;;;;;;;;;;;;;;; %==XX##### ;;o@@@@@@@@@@@o;;;;;;;;;;;;;;;;;;;;;;;;;",
";;;;;;;;;;;;;;;;;;;;;;;;;;;;;;;;; $%===X#### ;;;o@@@@@@@@@o;;;;;;;;;;;;;;;;;;;;;;;;;;",
";;;;;;;;;;;;;;;;;;;;;;;;;;;;;;;;; #$%===XXX# ;;;;o@@@@@@@@o;;;;;;;;;;;;;;;;;;;;;;;;;;",
";;;;;;;;;;;;;;;;;;;;;;;;;;;;;;;;; #$$%%====X ;;;;;oo@@@@@o;;;;;;;;;;;;;;;;;;;;;;;;;;;",
";;;;;;;;;;;;;;;;;;;;;;;;;;;;;;;;; X$$$%%%%=== ;;;;;;ooooo;;;;;;;;;;;;;;;;;;;;;;;;;;;;",
";;;;;;;;;;;;;;;;;;;;;;;;;;;;;;;;; X#$$$$$$%%% ;;;;;;;;;;;;;;;;;;;;;;;;;;;;;;;;;;;;;;;",
";;;;;;;;;;;;;;;;;;;;;;;;;;;;;;;;;; X##$$$$$$$ ;;;;;;;;;;;;;;;;;;;;;;;;;;;;;;;;;;;;;;;",
";;;;;;;;;;;;;;;;;;;;;;;;;;;;;;;;;; X#####$$$$$ ;;;;;;;;;;;;;;;;;;;;;;;;;;;;;;;;;;;;;;",
";;;;;;;;;;;;;;;;;;;;;;;;;;;;;;;;;; =X########$ ;;;;;;;;;;;;;;;;;;;;;;;;;;;;;;;;;;;;;;",
";;;;;;;;;;;;;;;;;;;;;;;;;;;;;;;;;; ==XXX####### ;;;;;;;;;;;;;;;;;;;;;;;;;;;;;;;;;;;;;",
";;;;;;;;;;;;;;;;;;;;;;;;;;;;;;;;;; %====XXXX### ;;;;;;;;;;;;;;;;;;;;;;;;;;;;;;;;;;;;;",
";;;;;;;;;;;;;;;;;;;;;;;;;;;;;;;;;; %========XXX ;;;;;;;;;;;;;;;;;;;;;;;;;;;;;;;;;;;;;",
";;;;;;;;;;;;;;;;;;;;;;;;;;;;;;;;;; %%%========== ;;;;;;;;;;;;;;;;;;;;;;;;;;;;;;;;;;;;",
";;;;;;;;;;;;;;;;;;;;;;;;;;;;;;;;;; %%%%%%%%%===== ;;;;;;;;;;;;;;;;;;;;;;;;;;;;;;;;;;;",
";;;;;;;;;;;;;;;;;;;;;;;;;;;;;;;;;; X$$$%%%%%%%%%% ;;;;;;;;;;;;;;;;;;;;;;;;;;;;;;;;;;;",
";;;;;;;;;;;;;;;;;;;;;;;;;;;;;;;;;; X#$$$$%%%%%%%%% ;;;;;;;;;;;;;;;;;;;;;;;;;;;;;;;;;;",
";;;;;;;;;;;;;;;;;;;;;;;;;;;;;;;;;; X#$$$$$$$%%%%%$ ;;;;;;;;;;;;;;;;;;;;;;;;;;;;;;;;;;",
";;;;;;;;;;;;;;;;;;;;;;;;;;;;;;;;;;;X####$$$$$$$$$$$;;;;;;;;;;;;;;;;;;;;;;;;;;;;;;;;;;",
";;;;;;;;;;;;;;;;;;;;;;;;;;;;;;;;;;;;X####$$$$$$$$$;;;;;;;;;;;;;;;;;;;;;;;;;;;;;;;;;;;",
";;;;;;;;;;;;;;;;;;;;;;;;;;;;;;;;;;;;;X#####$$####;;;;;;;;;;;;;;;;;;;;;;;;;;;;;;;;;;;;",
";;;;;;;;;;;;;;;;;;;;;;;;;;;;;;;;;;;;;;;########;;;;;;;;;;;;;;;;;;;;;;;;;;;;;;;;;;;;;;",
";;;;;;;;;;;;;;;;;;;;;;;;;;;;;;;;;;;;;;;;;;;;;;;;;;;;;;;;;;;;;;;;;;;;;;;;;;;;;;;;;;;;;",
";;;;;;;;;;;;;;;;;;;;;;;;;;;;;;;;;;;;;;;;;;;;;;;;;;;;;;;;;;;;;;;;;;;;;;;;;;;;;;;;;;;;;",
";;;;;;;;;;;;;;;;;;;;;;;;;;;;;;;;;;;;;;;;;;;;;;;;;;;;;;;;;;;;;;;;;;;;;;;;;;;;;;;;;;;;;"
};
