/* XPM */
static char *result[] = {
/* columns rows colors chars-per-pixel */
"32 32 6 1 ",
"  c #1B392E",
". c #24523B",
"X c #39973A",
"o c #63C446",
"O c #B9E754",
"+ c None",
/* pixels */
"++++++++++++++++++++++++++++++++",
"++++++++++++++++++++++++++++++++",
"++++++++++++++++++++++++++++++++",
"++++++++++++++++++++++++++++++++",
"++++++++++++++++++++++++++++++++",
"++++++++++++++++++++++++++++++++",
"++++++++++++++++++++++++++++++++",
"++++++++++++++++++++++++++++++++",
"++++++++++++++++++++++++++++++++",
"++++++++++   ++  ++   ++++++++++",
"+++++++++ oOO  OO  OOo +++++++++",
"+++++++++ oooXXOOXXooo +++++++++",
"++++++++++ oooXooXooo ++++++++++",
"+++++++++++ XoXooXoX +++++++++++",
"+++++++++  OOX.XX.XoO  +++++++++",
"++++++++ OOooo .. oooOO ++++++++",
"++++++++ OoXXXo  oXXXoO ++++++++",
"++++++++ oXXXoXooXoXXXo ++++++++",
"+++++++++   OOXOOXOO   +++++++++",
"++++++++++ ooOXOOXOoo ++++++++++",
"+++++++++ oooXXooXXooo +++++++++",
"+++++++++ ooX XooX Xoo +++++++++",
"+++++++++ oX  XooX  Xo +++++++++",
"++++++++++  ++ XX ++  ++++++++++",
"+++++++++++++++  +++++++++++++++",
"++++++++++++++++++++++++++++++++",
"++++++++++++++++++++++++++++++++",
"++++++++++++++++++++++++++++++++",
"++++++++++++++++++++++++++++++++",
"++++++++++++++++++++++++++++++++",
"++++++++++++++++++++++++++++++++",
"++++++++++++++++++++++++++++++++"
};
