/* XPM */
static char *result[] = {
/* columns rows colors chars-per-pixel */
"32 32 4 1 ",
"  c #1B392E",
". c #39973A",
"X c #63C446",
"o c None",
/* pixels */
"oooooooooooooooooooooooooooooooo",
"oooooooooooooooooooooooooooooooo",
"oooooooooooooooooooooooooooooooo",
"oooooooooooooooooooooo  o  ooooo",
"ooooooooooooooooooooo XX XX oooo",
"oooo  o  oooooooooooo .XXX. oooo",
"ooo XX XX ooooooooooo  XX.. oooo",
"ooo .XXX. oooooooooo .XXX XX ooo",
"ooo ..XX  oooooooooo .XXXXX. ooo",
"oo XX XXX. ooooooooo  .XX.. oooo",
"oo .XXXXX. oooooooo XX XX XX ooo",
"ooo ..XX.  oooooooo .XXXXXX. ooo",
"oo XX XX XX ooooooo  .XXX..  ooo",
"oo .XXXXXX. oooooo .X .XX  XX oo",
"ooo .XXXX. ooooooo .XXXXXXXX. oo",
"oooo .Xo. ooooooooo ...oX... ooo",
"oooooooooooooooooooooooooooooooo",
"oooooooooooooooooooooooooooooooo",
"oooooooooooooooooooooooooooooooo",
"oooooooooooooooooooooooooooooooo",
"oooooo  oooooooooooooooooooooooo",
"ooooo XX ooooooooooooooooooooooo",
"ooo  .X.  oooooooooo  ooo  ooooo",
"oo XX X X. oooooooo XX o X. oooo",
"oo .XXXXX. oooooooo .XX XX. oooo",
"ooo ..XX.  ooooooooo ..XX.  oooo",
"oo XX XX XX ooooooo XX XX XX ooo",
"oo .XXXXXX. ooooooo .XXXXXX. ooo",
"ooo .XXXX. ooooooooo .XXXX. oooo",
"oooo .Xo. ooooooooooo .Xo. ooooo",
"oooooooooooooooooooooooooooooooo",
"oooooooooooooooooooooooooooooooo"
};
