/* XPM */
static char *result[] = {
/* columns rows colors chars-per-pixel */
"32 32 43 1 ",
"  c black",
". c #000100",
"X c #040804",
"o c #040905",
"O c #050A04",
"+ c #060B04",
"@ c #060C05",
"# c #060D05",
"$ c #070D05",
"% c #387B41",
"& c #3A8043",
"* c #3E8948",
"= c #418D48",
"- c #418E48",
"; c #428F48",
": c #429048",
"> c #429049",
", c #59B446",
"< c #5AB546",
"1 c #5AB646",
"2 c #5BB646",
"3 c #5BB747",
"4 c #5DBB48",
"5 c #5DBC49",
"6 c #5EBC49",
"7 c #5FC049",
"8 c #61C34B",
"9 c #61C34C",
"0 c #61C44D",
"q c #62C44C",
"w c #62C54D",
"e c #62C64C",
"r c #62C74C",
"t c #63C74D",
"y c #69C954",
"u c #6AC955",
"i c #6CCA57",
"p c #6DCB58",
"a c #72CC5E",
"s c #EEF9EC",
"d c #EFF9ED",
"f c #EFFAED",
"g c None",
/* pixels */
"gggggggggggggggggggggggggggggggg",
"gggggggggggggggggggggggggggggggg",
"gggggggggggggggggggggggggggggggg",
"gggggggggggggggggggggggggggggggg",
"gggggggggggggggggggggggggggggggg",
"gggggggggggggggggggggggggggggggg",
"gggggggggggggggggggggggggggggggg",
"gggggggggggggggggggggggggggggggg",
"gggggggggggggggggggggggggggggggg",
"gggggggggggggggggggggggggggggggg",
"gggggggggggggggggggggggggggggggg",
"gggggggggggggggggggggggggggggggg",
"gggggggggggggggggggggggggggggggg",
"gggggggggggggggggggggggggggggggg",
"gggggggggggggggggggggggggggggggg",
"gggggggggggggggggggggggggggggggg",
"gggggggggggggggggggggggggggggggg",
"gggggggggggggggggggggggggggggggg",
"gggggggggggggggggggggggggggggggg",
"gggggggggggggggggggggggggggggggg",
"gggggggggggggggg      gggggggggg",
"ggggggggggggggg  <666O ggggggggg",
"ggggggggggggggg <efut5+ gggggggg",
"gggggggggggg    7dattt5@gggggggg",
"ggggggggg   .,44eittttt#gggggggg",
"gggggggg  244ttrdyttttt#gggggggg",
"gggggggg 3tttttsatttttt# ggggggg",
"gggggggg 9tttttpttttttt4@ggggggg",
"ggggggg  8tttttttttt:==0$ gggggg",
"ggggggg 1ttttt>=w>--***=&Xgggggg",
"gggggg  qt;-w>**-********ogggggg",
"gggggg %--**-************ogggggg"
};
