/* XPM */
static char *result[] = {
/* columns rows colors chars-per-pixel */
"32 32 36 1 ",
"  c black",
". c #010100",
"X c #040903",
"o c #040804",
"O c #040905",
"+ c #050A04",
"@ c #050B04",
"# c #397E42",
"$ c #3A8043",
"% c #3E8948",
"& c #408D48",
"* c #418D48",
"= c #418F48",
"- c #428F48",
"; c #428F49",
": c #5AB646",
"> c #5BB747",
", c #5DBB48",
"< c #5EBC49",
"1 c #5EBD49",
"2 c #5EBE49",
"3 c #5FBF49",
"4 c #5FBE4A",
"5 c #61C24B",
"6 c #62C54D",
"7 c #62C64C",
"8 c #62C74C",
"9 c #63C74D",
"0 c #68C953",
"q c #69C954",
"w c #6BCA56",
"e c #6DCA58",
"r c #71CC5D",
"t c #EFF9ED",
"y c #F1FAEF",
"u c None",
/* pixels */
"uuuuuuuuuuuuuuuuuuuuuuuuuuuuuuuu",
"uuuuuuuuuuuuuuuuuuuuuuuuuuuuuuuu",
"uuuuuuuuuuuuuuuuuuuuuuuuuuuuuuuu",
"uuuuuuuuuuuuuuuuuuuuuuuuuuuuuuuu",
"uuuuuuuuuuuuuuuuuuuuuuuuuuuuuuuu",
"uuuuuuuuuuuuuuuuuuuuuuuuuuuuuuuu",
"uuuuuuuuuuuuuuuuuuuuuuuuuuuuuuuu",
"uuuuuuuuuuuuuuuuuuuuuuuuuuuuuuuu",
"uuuuuuuuuuuuuuuuuuuuuuuuuuuuuuuu",
"uuuuuuuuuuuuuuuuuuuuuuuuuuuuuuuu",
"uuuuuuuuuuuuuuuuuuuuuuuuuuuuuuuu",
"uuuuuuuuuuuuuuuuuuuuuuuuuuuuuuuu",
"uuuuuuuuuuuuuuuuuuuuuuuuuuuuuuuu",
"uuuuuuuuuuuuuuuuuuuuuuuuuuuuuuuu",
"uuuuuuuuuuuuuuuuuuuuuuuuuuuuuuuu",
"uuuuuuuuuuuuuuuuuuuuuuuuuuuuuuuu",
"uuuuuuuuuuuuuuuuuuuuuuuuuuuuuuuu",
"uuuuuuuuuuuuuuuuuuuuuuuuuuuuuuuu",
"uuuuuuuuuuuuuuuuuuuuuuuuuuuuuuuu",
"uuuuuuuuuuuuuuuuuuuuuuuuuuuuuuuu",
"uuuuuuuuuuuuuuu      uuuuuuuuuuu",
"uuuuuuuuuuuuuu  >222+ uuuuuuuuuu",
"uuuuuuuuuuuuuu :7yq94X uuuuuuuuu",
"uuuuuuuuuuu    3yr9991+uuuuuuuuu",
"uuuuuuuu    ><<9w99999+uuuuuuuuu",
"uuuuuuu  >,,999t099999+uuuuuuuuu",
"uuuuuuu.>99998yr999999+ uuuuuuuu",
"uuuuuuu.599999e9999999,+uuuuuuuu",
"uuuuuuu.59999999999;&&6@  uuuuuu",
"uuuuuuu.599999=&6-&%%%&$$ouuuuuu",
"uuuuuu .59;*6;%%*%%%%%%%%Ouuuuuu",
"uuuuuu #**%%*%%%%%%%%%%%%Ouuuuuu"
};
