/* XPM */
static char * coll_xpm[] = {
"32 32 7 1",
" 	c #E1C190",
".	c #1E1406",
"+	c #E4D2AA",
"@	c #CA9759",
"#	c #6B452A",
"$	c #8F6E48",
"%	c #462E1A",
"     ......................     ",
"  ++.@@@@@@@@@@@@@@@@@@@@@@.    ",
"++++.@@@@@@@@@@@@@@@@@@@@@@.    ",
"+++++.####################.    +",
"++++.@@@@@@@@@@@@@@@@@@@@@@.  ++",
"+++ .@@@@@@@@@@@@@@@@@@@@@@. +++",
"+    .####################.  +++",
"    .@@@@@@@@@@@@@@@@@@@@@@.++++",
"    .@@@@@@@@@@@@@@@@@@@@@@.+++ ",
"     .####################.+++  ",
"    .@@@@@@@@@@@@@@@@@@@@@@.+   ",
"    .                      .    ",
"    .$$$$$$$$$$$$$$$$$$$$$$. +  ",
"    .$$$$$$$$$$$$$$$$$$$$$$.    ",
"  +++.%%%%%%%%%%%%%%%%%%%%. +   ",
" ++++.$$%%%%%%%%%%%####%$$.     ",
"+++++.$$%##%##%##%@$$$$%$$.     ",
"+++++.$$%##%##%##@$$$$%%$$.    +",
"++++ .$$%##%##%#@$$$$%#%$$.   ++",
"+++  .$$%##%##%@$$$$%##%$$.  +++",
"++   .$$%##%##@$$$$%%##%$$. ++++",
"+    .$$%##%#@$$$$%#%##%$$. ++++",
"+    .$$%##%@$$$$%##%##%$$. ++++",
"+    .$$%##@$$$$%%##%##%$$. ++++",
"     .$$%#@$$$$%#%##%##%$$. ++++",
"     .$$%@$$$$%##%##%##%$$.+++++",
"     .$$%$$$$%%##%##%##%$$.++++ ",
"     .$$%$$$%#%##%##%##%$$.++++ ",
"     .@@@@@@@@@@@@@@@@@@@@.++++ ",
"    .$$$$$$$$$$$$$$$$$$$$$$.++  ",
"    .$$$$$$$$$$$$$$$$$$$$$$.+   ",
"     ......................+    "};
