/* XPM */
static char * enemie_leftt_xpm[] = {
"32 32 24 1",
" 	c #E1C190",
".	c #E4D2AA",
"+	c #000000",
"@	c #5B3C2C",
"#	c #512D23",
"$	c #5E724A",
"%	c #677755",
"&	c #70805F",
"*	c #BEC49F",
"=	c #8DAB5F",
"-	c #3C312C",
";	c #453A35",
">	c #A2A97F",
",	c #7A2D18",
"'	c #778667",
")	c #342A25",
"!	c #6A7A5A",
"~	c #2D2420",
"{	c #645C3F",
"]	c #60583C",
"^	c #5A5237",
"/	c #70694F",
"(	c #4A413C",
"_	c #695D58",
"     .....         ........     ",
"  .......  ..    .........      ",
"........   ..  ..........       ",
".......       ........         .",
".....   .    ........         ..",
"...         .......          ...",
".          ......            ...",
"          ..+++++  .. .     ....",
"         ..+@##@@+ ..       ... ",
"         .+@@##@$$+        ...  ",
"        .+@$@#@$$$$+      ...   ",
"       ..+$$@@%$$$$+    ....    ",
"      ...+$%@&&%%$$+  .....  .  ",
"    .....+%&@&&&&%$+ .....      ",
"  .......+++&@+++&$+....    .   ",
" ....... +*=&@=*&&+...          ",
".......  +%&&@&&&&++.           ",
"......   +%&&&@@&$-;+          .",
"....     +$>&>&>@-;;+         ..",
"...       +$>,>,--;;+        ...",
"..     .  +;$,,---;;+       ....",
".         +#-----&;;+..     ....",
".    ..  +;'+)))!;;+ ..     ....",
".    ..  +;;++))!;;+        ....",
"         +;;++~~~;;+        ....",
"         +;;+{]]{;;]+      .....",
"         +''+{]^]'']+      .... ",
"         .+++{]^///+      ..... ",
"         ..+{{]++^^!+    ...... ",
"        ...+(,+, ++'+   ......  ",
"        ..+__(+    +   ......   ",
"       ...+++++   +++.......    "};
