/* XPM */
static char * enemie_upp_xpm[] = {
"32 32 19 1",
" 	c #E1C190",
".	c #E4D2AA",
"+	c #000000",
"@	c #5B3C2C",
"#	c #512D23",
"$	c #5E724A",
"%	c #677755",
"&	c #70805F",
"*	c #778667",
"=	c #342A25",
"-	c #2D2420",
";	c #3C312C",
">	c #453A35",
",	c #645C3F",
"'	c #667556",
")	c #5A5237",
"!	c #695D58",
"~	c #6A7A5A",
"{	c #7A2D18",
"     .....         ........     ",
"  .......  ..    .........      ",
"........   ..  ..........       ",
".......       ........         .",
".....   .    ........         ..",
"...         .......          ...",
".          ......            ...",
"          ...+++++ .. .     ....",
"         ...+@####+..       ... ",
"         ..+$$@#@$$+       ...  ",
"        ..+$$$@@$$$$+     ...   ",
"       ...+$$$@%%$$$+   ....    ",
"      ....+$$%@&&%$$+ .....  .  ",
"    ......+$%&@&&&%$+.....      ",
"  ....... +%&@***&&%+...    .   ",
" .......  +%@&***&&%+.          ",
".......   +%@&===&&%+           ",
"......    +=========+          .",
"....      +=========+         ..",
"...       +=========+        ...",
"..     .  +-=======-+       ....",
".         +--=====--+..     ....",
".    ..  .+--;;;&;--+..     ....",
".    ..   +--;;&;;--+       ....",
"          +-->***>--+       ....",
"          +-,,,,,,,-+      .....",
"         .+',,,),,,'+      .... ",
"         ..+,))+)),+      ..... ",
"         ..+,,+ +!!+     ...... ",
"        ...+~~+{+!!+    ......  ",
"        ...+**+  ++    ......   ",
"       ....++++ ++++ .......    "};
