/* XPM */
static char * bateau_xpm[] = {
"32 32 180 2",
"  	c #E1C190",
". 	c #E4D2AA",
"+ 	c #62433B",
"@ 	c #774944",
"# 	c #30201E",
"$ 	c #27181A",
"% 	c #3E2A25",
"& 	c #BB7A72",
"* 	c #D3A26E",
"= 	c #56393C",
"- 	c #563738",
"; 	c #C9918D",
"> 	c #C98D8E",
", 	c #E6AB76",
"' 	c #4D3938",
") 	c #21170F",
"! 	c #836152",
"~ 	c #B9828D",
"{ 	c #CE8F93",
"] 	c #8D6455",
"^ 	c #9F644C",
"/ 	c #996452",
"( 	c #432533",
"_ 	c #976854",
": 	c #5F4633",
"< 	c #95754E",
"[ 	c #C48D80",
"} 	c #4D2C24",
"| 	c #49251B",
"1 	c #462A34",
"2 	c #412D25",
"3 	c #260B1F",
"4 	c #B37D8A",
"5 	c #493528",
"6 	c #B4865C",
"7 	c #AF8065",
"8 	c #5B3C45",
"9 	c #321C27",
"0 	c #4A293E",
"a 	c #532C34",
"b 	c #593125",
"c 	c #231823",
"d 	c #83524C",
"e 	c #545663",
"f 	c #A6714E",
"g 	c #A37076",
"h 	c #552E24",
"i 	c #3E2833",
"j 	c #553027",
"k 	c #B37E85",
"l 	c #4C4A68",
"m 	c #9C794F",
"n 	c #7F5146",
"o 	c #563535",
"p 	c #4F3840",
"q 	c #5B352B",
"r 	c #5E4544",
"s 	c #2B0D23",
"t 	c #43242C",
"u 	c #2B242E",
"v 	c #AA7659",
"w 	c #775A4B",
"x 	c #684547",
"y 	c #6B4B52",
"z 	c #794B4B",
"A 	c #724B4A",
"B 	c #2A0B26",
"C 	c #7F5263",
"D 	c #966667",
"E 	c #1C0B14",
"F 	c #A76C4F",
"G 	c #482839",
"H 	c #7D514F",
"I 	c #895548",
"J 	c #643B43",
"K 	c #44243A",
"L 	c #311329",
"M 	c #23061C",
"N 	c #664435",
"O 	c #764A57",
"P 	c #9A7685",
"Q 	c #AE7456",
"R 	c #392326",
"S 	c #7D4B44",
"T 	c #663639",
"U 	c #472428",
"V 	c #79483A",
"W 	c #4A332A",
"X 	c #8B606F",
"Y 	c #A06D70",
"Z 	c #270C23",
"` 	c #D0D1CB",
" .	c #B67757",
"..	c #7E583A",
"+.	c #3B1C31",
"@.	c #8C594E",
"#.	c #965F50",
"$.	c #DDA68A",
"%.	c #24242A",
"&.	c #7C2A24",
"*.	c #831E19",
"=.	c #78757C",
"-.	c #CB9475",
";.	c #B97D64",
">.	c #987951",
",.	c #B6C4D6",
"'.	c #2C2A36",
").	c #170718",
"!.	c #9F5F48",
"~.	c #861915",
"{.	c #8D2525",
"].	c #28081F",
"^.	c #75343E",
"/.	c #2E1126",
"(.	c #1E021E",
"_.	c #724D52",
":.	c #AA754F",
"<.	c #5C3C3B",
"[.	c #C2846B",
"}.	c #2D2E3C",
"|.	c #E9ECEC",
"1.	c #6B7076",
"2.	c #6E473C",
"3.	c #E6D3DA",
"4.	c #DBE1DF",
"5.	c #392325",
"6.	c #D8A273",
"7.	c #8C5645",
"8.	c #AAB0BF",
"9.	c #ABADBD",
"0.	c #464950",
"a.	c #AC8690",
"b.	c #D9CFC2",
"c.	c #554E60",
"d.	c #5A3D48",
"e.	c #C28A73",
"f.	c #785258",
"g.	c #CA946E",
"h.	c #3C2D42",
"i.	c #BEC2CE",
"j.	c #827788",
"k.	c #63616C",
"l.	c #C1835F",
"m.	c #9B989F",
"n.	c #603D4C",
"o.	c #5C0B0B",
"p.	c #5C3633",
"q.	c #421C2A",
"r.	c #D69A6E",
"s.	c #C8CED6",
"t.	c #56525B",
"u.	c #AA6D51",
"v.	c #813D34",
"w.	c #66625C",
"x.	c #2E3338",
"y.	c #865962",
"z.	c #A4664D",
"A.	c #623728",
"B.	c #7A5749",
"C.	c #443532",
"D.	c #121214",
"E.	c #BA8B65",
"F.	c #191719",
"G.	c #9293A1",
"H.	c #DF9F6E",
"I.	c #AA8359",
"J.	c #0C0C0E",
"K.	c #A0665B",
"L.	c #2E3348",
"M.	c #805555",
"N.	c #EDB37A",
"O.	c #8C7C76",
"P.	c #AAB1C0",
"Q.	c #5B5A6C",
"R.	c #30181F",
"S.	c #575270",
"T.	c #B0AFB4",
"U.	c #716468",
"V.	c #341D31",
"W.	c #0E0F10",
"          . . . . .                   . . . . . . . .           ",
"    . . . . . . .     . .         . . . . . . . . .             ",
". . . . . . . .       . .     . . . . . . . . . .               ",
". . . . . . .               . . . . . . . .                   . ",
". . . . .       .         . . . . . . . .     + @           . . ",
". . .                   . . . . . . . # $ # % & *         . . . ",
".                     . . . . . . = - ; ; > @ , '         . . . ",
"                    . . . . . ) ! ~ { ] ^ / ( ' _ :     . . . . ",
"                  . . . . . % < [ @ } | 1 1 2 3 ~ 4 )   . . .   ",
"                  . . . . 5 6 7 8 - 9 ( 0 a b c d 4 ) . . .     ",
"                . . . . e f g 8 8 h i ( j 8 8 9 ( k ) . .       ",
"              . . . . l m n o 8 8 8 p q 8 r h s t k ) .         ",
"            . . . . u v w j b o x y z A 8 = p B C D E     .     ",
"        . . . . . . F w G b 8 @ H I J K L c B M ; N             ",
"    . . . . . . . O P O Q R = S T U V I W t L X Y Z     .       ",
"  . . . . . . . ' D ` d Q  ...+.i @.#.#./ H B $.: %.            ",
". . . . . . . 5 &.*.=.T L -.;.>.V 0 @./ / q Q @.u ,.'.          ",
". . . . . . ).!.~.{.].^./.(._.& 6 :.+ T <.] [.}.|.1.%.        . ",
". . . .     2./ 3.A s 4.M 5.U +.H 6.v D 7.7 3 8.9.0.        . . ",
". . .       I a.b.c.s ~./.= d.r R /.e.f.g.h.i.j.k.        . . . ",
". .       }.l.2.m.n.X o.' H z y 8 p.q.r.G Z s.t.        . . . . ",
".         ^ w ^ u.v.w.h.b A f.f.A R , 2 L . u           . . . . ",
".       x.F x y.Q  .z.q.} h A.B.% ;.C.c   . .           . . . . ",
".     D.t., 7.(.K H r.Q n 5 9 2.E.T L                   . . . . ",
"      F.G.x.H.< U /./.e.>.#.I.~ Z /.                    . . . . ",
"        J.D.E K.E.Q a t B.v _ h.k.L.                  . . . . . ",
"              L ( M.N.$.: h.O.P.Q.                    . . . .   ",
"                B F.Z R.1 S.T.U.                    . . . . .   ",
"                  E L V.|.=.l W..                 . . . . . .   ",
"                . . . F.x.%.                    . . . . . .     ",
"                . . .                         . . . . . .       ",
"              . . . .                     . . . . . . .         "};
