/* XPM */
static char *result[] = {
/* columns rows colors chars-per-pixel */
"32 32 7 1 ",
"  c #63C446",
". c #B39265",
"X c #D8B174",
"o c #9CDB43",
"O c #C0F675",
"+ c #E1C190",
"@ c #E4D2AA",
/* pixels */
"++++++++@@@++++++++++++@@@@@@+++",
"+++++++@@@@++++XX++++@@@@@@@++++",
"+++++@@@@X++++X.XX+@@@X@@@@+++++",
"++@@@@@XX.XXXX. ..XXXX.XX@++++++",
"@@@@@@X.  ..  O o   ..  .X++++++",
"@@@@@XX.   o ooOooo o   .XX++++@",
"@@@@X.. oooooooooooooooo ..X++@@",
"@@@X.  oooooooooooooooooo  oX@@@",
"@++X oOooooooooooooooooooOo X@@@",
"++X. OooooooooooooooooooooO .X@@",
"+X . OooooooooooooooooooooO . X+",
"X..  ooooooooooooooooooooooo .X+",
"Xo oooooooooooooooooooooooooo  X",
"X. oooooooooooooooooooooooooo .X",
"XX. oooooooooooooooooooooooo .X+",
"X. oooooooooooooooooooooooooo .X",
"XO oooooooooooooooooooooooooo .X",
"XO ooooooooooooooooooooooooooo X",
"X. oooooooooooooooooooooooooo .X",
"@X. oooooooooooooooooooooooo  XO",
"X. oooooooooooooooooooooooooo .X",
"@X oooooooooooooooooooooooooo oX",
"@X.  oooooooooooooooooooooo  .XX",
"@X . OooooooooooooooooooooO . X@",
"@+X. OooooooooooooooooooooO .X@@",
"@++X o@ooooooooooooooooooOo X@@@",
"++++X@ oooooooooooooooooo  .X@@@",
"+++++.. oooooooooooooooo ..X@@@@",
"+++++XX.   o ooOooo o   .XX@@@@+",
"++++++X.  ..  O o   ..  .X@@@@@+",
"+++++++XX.XXXX. ..XXXXXXX@@@@@@+",
"++++++++@X@+++X.XX++++++@@@@@@++"
};
