/* XPM */
static char *result[] = {
/* columns rows colors chars-per-pixel */
"32 32 8 1 ",
"  c #C5A16C",
". c #D8B174",
"X c #22BBD2",
"o c #20D6C7",
"O c #63E9D1",
"+ c #E1C190",
"@ c #E4D2AA",
"# c #A6FCDB",
/* pixels */
"................................",
"................................",
"................................",
"................................",
".....................  . .......",
"..  ...  . .... . ...  .........",
"..  ...  ......@@   ............",
".........  @@@@++@@  ...........",
".. ...... @++++oo++@ .  ........",
"......  .@+OOO##Ooo+@ . ........",
".....   @+oooXXXO###+  .........",
".....   +oooooooooooX+ .........",
".....  +ooooooooooooo+@  .......",
"..... @+oooooooooooooo+@ .......",
"....  +oooooooooooooooo+ .......",
"....  +oooooooooooooo##+  ......",
"....  +ooooooooooooO#XX+  ......",
"....  +OooooooooooOooo+   ......",
"....  +#OOooooooOOoooo+  ..  ...",
"..... +XXXO###OOooooooo+ .. ....",
".....  +ooXX#OXooooooo+   ......",
".....  +oooooOOooooooo+. .......",
".....   +oooooOooooo++   .......",
"..... .  +ooooo#Oo++    ........",
"....... . +oooo+++     .........",
".. ...     ++++     ............",
".........        . .............",
"..  ...  . .......... ..........",
"..  .... .......................",
"................................",
"................................",
"................................"
};
