/* XPM */
static char * perso_upp_xpm[] = {
"32 32 18 1",
" 	c #E1C190",
".	c #E4D2AA",
"+	c #0C0A07",
"@	c #4C342F",
"#	c #634A45",
"$	c #553D39",
"%	c #3A2B28",
"&	c #6E7D61",
"*	c #4C403D",
"=	c #8F9D84",
"-	c #5F7050",
";	c #E4B5A5",
">	c #D2A394",
",	c #425059",
"'	c #57636B",
")	c #6E6554",
"!	c #362623",
"~	c #554C3C",
"     .....         ........     ",
"  .......  ..    .........      ",
"........   ..  ..........       ",
".......       ........         .",
".....   .    ........         ..",
"...         .+..++.          ...",
".          .+@++@@+++        ...",
"          .+@#@@##@@@+.     ....",
"         .+#########+       ... ",
"         +@#######@@#+     ...  ",
"        +@@######@###+    ...   ",
"       ..+###########@+ ....    ",
"      ...+$##@#@####@+.....  .  ",
"    ....+$$###@#####$+....      ",
"  .......+$$########$$+.    .   ",
" ....... +$$$######$$+          ",
".......   +$$####$$$+           ",
"......     +$$$$$$$+.          .",
"....      +%&%&&&%&%+         ..",
"...       +%%&&&&&%%+        ...",
"..     . +%%%&&&&&%%%+      ....",
".        +*&%&===&%&*+.     ....",
".    .. +**+&&---&&+**+     ....",
".    .. +;>+%&===&%+>;+     ....",
"         +++,,,,,,,+++      ....",
"          .+,''''',+       .....",
"         ..+,''''',+       .... ",
"         ..+,',+,',+      ..... ",
"         ..+,,+ +,,+     ...... ",
"        ...+))+ +!!+    ......  ",
"        ... ++  +~~+   ......   ",
"       .... ++   ++  .......    "};
