/* XPM */
static char * tree_xpm[] = {
"32 32 382 2",
"  	c #E1C190",
". 	c #E4D2AA",
"+ 	c #397D29",
"@ 	c #137127",
"# 	c #338C2B",
"$ 	c #3D852A",
"% 	c #3F9E2E",
"& 	c #76C83A",
"* 	c #7ACC3B",
"= 	c #4CB432",
"- 	c #2F8C2B",
"; 	c #3EA32F",
"> 	c #69C638",
", 	c #80CE3C",
"' 	c #9CDB43",
") 	c #80C13B",
"! 	c #48862C",
"~ 	c #22872A",
"{ 	c #76CA3A",
"] 	c #92D640",
"^ 	c #88D23E",
"/ 	c #6BC538",
"( 	c #1F7528",
"_ 	c #278029",
": 	c #57BF35",
"< 	c #92D641",
"[ 	c #91D640",
"} 	c #8ED540",
"| 	c #7FCC3C",
"1 	c #136826",
"2 	c #41B031",
"3 	c #93D741",
"4 	c #75CA3A",
"5 	c #90D540",
"6 	c #8DD43F",
"7 	c #49B433",
"8 	c #166E2D",
"9 	c #1F7F2B",
"0 	c #41AC34",
"a 	c #67C337",
"b 	c #8BD33F",
"c 	c #81CF3D",
"d 	c #59C135",
"e 	c #63C437",
"f 	c #27962D",
"g 	c #136225",
"h 	c #4BB733",
"i 	c #41B132",
"j 	c #52BC34",
"k 	c #6CC638",
"l 	c #2EA830",
"m 	c #1C8138",
"n 	c #1B3F2E",
"o 	c #5C9630",
"p 	c #638D30",
"q 	c #1A4F31",
"r 	c #1F5B38",
"s 	c #2A9D32",
"t 	c #54BD34",
"u 	c #6AC638",
"v 	c #24A230",
"w 	c #2CA72F",
"x 	c #14832B",
"y 	c #2BA72F",
"z 	c #14A02E",
"A 	c #39AC31",
"B 	c #30A930",
"C 	c #1B8238",
"D 	c #226539",
"E 	c #40912D",
"F 	c #72C739",
"G 	c #83D03D",
"H 	c #97D842",
"I 	c #6EC038",
"J 	c #40862B",
"K 	c #23503A",
"L 	c #1A5031",
"M 	c #1B8D37",
"N 	c #4AB733",
"O 	c #149F2F",
"P 	c #19853A",
"Q 	c #159B31",
"R 	c #179335",
"S 	c #1A8738",
"T 	c #169832",
"U 	c #1F7239",
"V 	c #169B2F",
"W 	c #43B232",
"X 	c #4FBA33",
"Y 	c #8AD33F",
"Z 	c #86D13E",
"` 	c #7BCC3B",
" .	c #45962D",
"..	c #1A3A2D",
"+.	c #16522E",
"@.	c #188D37",
"#.	c #159C30",
"$.	c #178D38",
"%.	c #1A7D3C",
"&.	c #188C38",
"*.	c #1A8737",
"=.	c #1F693D",
"-.	c #1B8835",
";.	c #169C2F",
">.	c #149E2F",
",.	c #1CA22E",
"'.	c #49B633",
").	c #3FAE33",
"!.	c #3FAB34",
"~.	c #4FB934",
"{.	c #4DB933",
"].	c #124A23",
"^.	c #3B822A",
"/.	c #2B862A",
"(.	c #147529",
"_.	c #1D6A3B",
":.	c #1E703C",
"<.	c #1A7A3E",
"[.	c #1D6F3D",
"}.	c #1D723D",
"|.	c #20643C",
"1.	c #21613C",
"2.	c #1D763B",
"3.	c #19843A",
"4.	c #1C7E37",
"5.	c #159932",
"6.	c #16A02E",
"7.	c #1E9D31",
"8.	c #188939",
"9.	c #176B34",
"0.	c #1D4F34",
"a.	c #176530",
"b.	c #39A834",
"c.	c #1C4F23",
"d.	c #3E882B",
"e.	c #63B334",
"f.	c #99DA42",
"g.	c #7CCD3C",
"h.	c #29A530",
"i.	c #1B8337",
"j.	c #1E6E3D",
"k.	c #1D6B3C",
"l.	c #20663C",
"m.	c #214B37",
"n.	c #215338",
"o.	c #234F39",
"p.	c #1F6B3D",
"q.	c #179136",
"r.	c #186D39",
"s.	c #154E2D",
"t.	c #1D4131",
"u.	c #24523B",
"v.	c #1E6136",
"w.	c #3B942D",
"x.	c #60C336",
"y.	c #96D842",
"z.	c #9BDB43",
"A.	c #71C639",
"B.	c #3CAE31",
"C.	c #19843B",
"D.	c #1D653A",
"E.	c #1C4130",
"F.	c #1B392E",
"G.	c #1B3A2F",
"H.	c #1C3B2F",
"I.	c #19392B",
"J.	c #188635",
"K.	c #179D30",
"L.	c #1A9036",
"M.	c #175D26",
"N.	c #173128",
"O.	c #136325",
"P.	c #39AD31",
"Q.	c #4BB533",
"R.	c #5FC336",
"S.	c #65C137",
"T.	c #5DBD36",
"U.	c #2FA631",
"V.	c #178F36",
"W.	c #1B6B3A",
"X.	c #3E9738",
"Y.	c #46AB34",
"Z.	c #287E2B",
"`.	c #19482B",
" +	c #19342B",
".+	c #183F2C",
"++	c #31A930",
"@+	c #58C035",
"#+	c #68C438",
"$+	c #5BA632",
"%+	c #3F8A2B",
"&+	c #137A28",
"*+	c #18A02F",
"=+	c #169432",
"-+	c #176A36",
";+	c #15522E",
">+	c #142B24",
",+	c #3A802A",
"'+	c #5CC236",
")+	c #68C538",
"!+	c #379B32",
"~+	c #3EA730",
"{+	c #2F9E2F",
"]+	c #329E36",
"^+	c #31A831",
"/+	c #94D741",
"(+	c #98D942",
"_+	c #6BC338",
":+	c #277E29",
"<+	c #26A52F",
"[+	c #178537",
"}+	c #18492E",
"|+	c #44952D",
"1+	c #4BAE38",
"2+	c #73C83A",
"3+	c #78CB3B",
"4+	c #67C338",
"5+	c #33953A",
"6+	c #209E31",
"7+	c #50B434",
"8+	c #7BC83B",
"9+	c #6CC738",
"0+	c #80CF3D",
"a+	c #4BB833",
"b+	c #137B28",
"c+	c #137728",
"d+	c #188D36",
"e+	c #205738",
"f+	c #1C3E2F",
"g+	c #418F2C",
"h+	c #79CC3B",
"i+	c #71C939",
"j+	c #379C39",
"k+	c #72C83A",
"l+	c #97D942",
"m+	c #58AF32",
"n+	c #187038",
"o+	c #169334",
"p+	c #55BE34",
"q+	c #269A2E",
"r+	c #138A2A",
"s+	c #21623B",
"t+	c #204935",
"u+	c #43942D",
"v+	c #54BE34",
"w+	c #217237",
"x+	c #5BBC36",
"y+	c #7DCD3C",
"z+	c #3A882B",
"A+	c #195231",
"B+	c #188F35",
"C+	c #2DA830",
"D+	c #21A32F",
"E+	c #169733",
"F+	c #15512E",
"G+	c #4EB933",
"H+	c #1DA22E",
"I+	c #44B332",
"J+	c #34AB30",
"K+	c #56BF34",
"L+	c #50BB34",
"M+	c #217A33",
"N+	c #34512F",
"O+	c #3CAE32",
"P+	c #74CA3A",
"Q+	c #77CB3B",
"R+	c #4EB232",
"S+	c #1B4D32",
"T+	c #31843A",
"U+	c #219F31",
"V+	c #18873A",
"W+	c #175E32",
"X+	c #44B232",
"Y+	c #188A39",
"Z+	c #3AAD31",
"`+	c #1E9032",
" @	c #4E472A",
".@	c #425531",
"+@	c #24A32F",
"@@	c #57C035",
"#@	c #217B28",
"$@	c #1C8037",
"%@	c #16542F",
"&@	c #31942C",
"*@	c #159A32",
"=@	c #19823B",
"-@	c #178932",
";@	c #4F4B2B",
">@	c #593D26",
",@	c #3C3E25",
"'@	c #159A30",
")@	c #56BF35",
"!@	c #1F9A31",
"~@	c #1B3C2E",
"{@	c #187636",
"]@	c #175E33",
"^@	c #179036",
"/@	c #1A7C3D",
"(@	c #1A793E",
"_@	c #1C6C3B",
":@	c #5F4B2E",
"<@	c #A97E4D",
"[@	c #634628",
"}@	c #3F2B18",
"|@	c #166731",
"1@	c #1AA12F",
"2@	c #46B432",
"3@	c #1EA22E",
"4@	c #149F2E",
"5@	c #15632C",
"6@	c #143C27",
"7@	c #19723B",
"8@	c #1C743D",
"9@	c #20653C",
"0@	c #1C743E",
"a@	c #205C39",
"b@	c #65472A",
"c@	c #956C42",
"d@	c #AB7F4E",
"e@	c #9C7446",
"f@	c #16562F",
"g@	c #178F37",
"h@	c #165830",
"i@	c #1A3B2D",
"j@	c #224E39",
"k@	c #1D4231",
"l@	c #442F1A",
"m@	c #795635",
"n@	c #8D653D",
"o@	c #7C5936",
"p@	c #19733B",
"q@	c #159E2F",
"r@	c #178C37",
"s@	c #165630",
"t@	c #9E7547",
"u@	c #725232",
"v@	c #725132",
"w@	c #7A5734",
"x@	c #176234",
"y@	c #1A7E3D",
"z@	c #1A773D",
"A@	c #7B5835",
"B@	c #B28551",
"C@	c #8C663E",
"D@	c #715132",
"E@	c #28190D",
"F@	c #186A37",
"G@	c #1A783D",
"H@	c #165A31",
"I@	c #614428",
"J@	c #8C653C",
"K@	c #986F43",
"L@	c #A27749",
"M@	c #7D5C37",
"N@	c #154D2C",
"O@	c #583E24",
"P@	c #6C4C30",
"Q@	c #845E38",
"R@	c #775532",
"S@	c #86623B",
"T@	c #A27949",
"U@	c #7C5A37",
"V@	c #5D4128",
"W@	c #48311E",
"X@	c #745433",
"Y@	c #A87D4D",
"Z@	c #B48652",
"`@	c #A37949",
" #	c #9A7245",
".#	c #382514",
"+#	c #856039",
"@#	c #8F683F",
"##	c #946C43",
"$#	c #986F45",
"%#	c #5F4428",
"&#	c #6D4D30",
"*#	c #8A633A",
"=#	c #8D663D",
"-#	c #815C36",
";#	c #6C4C31",
">#	c #725133",
",#	c #765334",
"          . . . . .                   . . . . . . . .           ",
"    . . . . . . .     . .         + . . . . . . . .             ",
". . . . . . . @ # $   . .     % & * = - . . . . .               ",
". . . . . . ; > , ' ) !     ~ { ' ] ^ / ( .                   . ",
". . . . . _ : < ' [ } | 1 . 2 3 4 5 6 7 8                   . . ",
". . .     9 0 a b c d e f g h i j k l m n   o p           . . . ",
".         q r s t u h v w x y z A B C D E F G H I J       . . . ",
"            K L M N O P Q R z S T Q U V W X Y Z Z `  .  . . . . ",
"            ..  +.@.#.$.%.&.*.=.T -.;.>.,.t '.).!.~.{.].. . .   ",
"          ^. ./.(._.:.<.[.}.|.1.2.3.4.5.6.7.8.9.0.a.b.c.. .     ",
"      d.e.Z f.g.h.i.j.k.l.m.n.o.K K p.T q.r.s.  t.u.v.. .       ",
"    w.x.y.[ z.A.B.O C.D.E.F.G.H.H.I.J.K.L.M.    . N.. .         ",
"  O.P.Q.R.S.T.U.V.C W.X.Y.Z.`. +.+Q ++W @+#+$+%+. . .     .     ",
"  &+z '.i *+=+-+;+>+,+'+5 )+!+~+{+]+^+X ` /+(+(+_+:+            ",
"  &+z <+z [+}+. . |+d Z ' [ 1+2+3+4+5+6+7+8+5 9+0+a+b+  .       ",
"  c+z z d+e+f+. g+d h+b 5 i+j+k+' l+m+n+o+z W p+++N q+          ",
". . r+#.s+t+. u+X v+> d x.~.w+x+' G y+z+A+B+C+D+z z E+F+        ",
". . . . . . g+G+H+I+J+K+L+M+N+O+P+Q+3+R+. S+T+U+5.5.V+W+      . ",
". . . .   + X+,.>.Y+l Z+`+ @.@+@d d d @@#@  E.$@<.<.<.%@    . . ",
". . .     &@z *@=@<.E+-@;@>@,@'@N d t )@!@    ~@{@<.]@    . . . ",
". .       >.^@/@<.(@_@:@<@[@}@|@1@2@i 3@4@5@      6@    . . . . ",
".         7@8@9@0@a@  b@c@d@e@f@g@z z z 5.h@.           . . . . ",
".         . i@j@k@.   l@m@n@o@. p@E+z q@r@s@.           . . . . ",
".         . .         t@u@v@w@  x@/@C.y@z@              . . . . ",
"                    . A@B@C@D@E@  F@G@<.H@              . . . . ",
"                    . I@J@K@L@M@      N@              . . . . . ",
"                  . . O@P@m@Q@R@                      . . . .   ",
"                  . . S@T@U@V@P@W@                  . . . . .   ",
"                  . . X@Y@Z@Z@`@ #                . . . . . .   ",
"                . . . .#+#@###$#$#%#            . . . . . .     ",
"                . . .   &#A@*#=#=#-#          . . . . . .       ",
"              . . . .     ;#>#,#;#        . . . . . . .         "};
