/* XPM */
static char * walle_xpm[] = {
"32 32 679 2",
"  	c #D8B174",
". 	c #CEB06F",
"+ 	c #8BAC4C",
"@ 	c #AEB25B",
"# 	c #D3AF71",
"$ 	c #A0B156",
"% 	c #8DC346",
"& 	c #A1A858",
"* 	c #DBB67E",
"= 	c #D5B173",
"- 	c #A1A058",
"; 	c #BDAB65",
"> 	c #D5B072",
", 	c #CCAF6E",
"' 	c #9CB652",
") 	c #95AE51",
"! 	c #CCAD6E",
"~ 	c #DEBC87",
"{ 	c #E1C190",
"] 	c #889F4E",
"^ 	c #83CD3D",
"/ 	c #7CCC3C",
"( 	c #799845",
"_ 	c #5EBC36",
": 	c #71C439",
"< 	c #528B3B",
"[ 	c #B9AC62",
"} 	c #CEAF6F",
"| 	c #88A54D",
"1 	c #84CF3D",
"2 	c #8AD03E",
"3 	c #89A34A",
"4 	c #8EAD4E",
"5 	c #7AC83B",
"6 	c #8D9750",
"7 	c #CEAD6E",
"8 	c #AA9260",
"9 	c #5C8C3F",
"0 	c #39A634",
"a 	c #1B9134",
"b 	c #1E9534",
"c 	c #209433",
"d 	c #329C31",
"e 	c #72C73A",
"f 	c #6ABB38",
"g 	c #B2A661",
"h 	c #728348",
"i 	c #54AC36",
"j 	c #5DBE36",
"k 	c #32A131",
"l 	c #2A9B2F",
"m 	c #3BAB32",
"n 	c #2E9235",
"o 	c #679C3F",
"p 	c #82C13E",
"q 	c #98B350",
"r 	c #CFAF6F",
"s 	c #C0AA67",
"t 	c #8CB448",
"u 	c #57A136",
"v 	c #1C773B",
"w 	c #1E6A3B",
"x 	c #215F3A",
"y 	c #1E7139",
"z 	c #189732",
"A 	c #618943",
"B 	c #41693A",
"C 	c #979656",
"D 	c #397D29",
"E 	c #9D9158",
"F 	c #6F8145",
"G 	c #239236",
"H 	c #19853A",
"I 	c #1B8338",
"J 	c #1A8637",
"K 	c #189033",
"L 	c #35AA31",
"M 	c #55B037",
"N 	c #54AA36",
"O 	c #6D9540",
"P 	c #E4D2AA",
"Q 	c #C1A468",
"R 	c #4DAF33",
"S 	c #72C43A",
"T 	c #44A134",
"U 	c #288335",
"V 	c #137127",
"W 	c #338C2B",
"X 	c #3D852A",
"Y 	c #4AAF34",
"Z 	c #93B14C",
"` 	c #AB9F5D",
" .	c #3F9E2E",
"..	c #76C83A",
"+.	c #7ACC3B",
"@.	c #4CB432",
"#.	c #2F8C2B",
"$.	c #1B8039",
"%.	c #1D633A",
"&.	c #1F4F36",
"*.	c #205336",
"=.	c #1B7E36",
"-.	c #188B33",
";.	c #9F935A",
">.	c #696945",
",.	c #AC9C60",
"'.	c #B09F60",
").	c #1FA12F",
"!.	c #1D7D33",
"~.	c #A59A5B",
"{.	c #3EA32F",
"].	c #69C638",
"^.	c #80CE3C",
"/.	c #9CDB43",
"(.	c #80C13B",
"_.	c #48862C",
":.	c #57B735",
"<.	c #B7A764",
"[.	c #22872A",
"}.	c #76CA3A",
"|.	c #92D640",
"1.	c #88D23E",
"2.	c #6BC538",
"3.	c #1F7528",
"4.	c #5AAC37",
"5.	c #37832F",
"6.	c #267B2F",
"7.	c #34A532",
"8.	c #67BF38",
"9.	c #88BA43",
"0.	c #A8A75B",
"a.	c #A7A35D",
"b.	c #9C9458",
"c.	c #278029",
"d.	c #57BF35",
"e.	c #92D641",
"f.	c #91D640",
"g.	c #8ED540",
"h.	c #7FCC3C",
"i.	c #136826",
"j.	c #718649",
"k.	c #41B031",
"l.	c #93D741",
"m.	c #75CA3A",
"n.	c #90D540",
"o.	c #8DD43F",
"p.	c #49B433",
"q.	c #166E2D",
"r.	c #66BB3A",
"s.	c #52A837",
"t.	c #4BAA35",
"u.	c #6DC438",
"v.	c #58B935",
"w.	c #A7A25C",
"x.	c #83A04D",
"y.	c #1F7F2B",
"z.	c #41AC34",
"A.	c #67C337",
"B.	c #8BD33F",
"C.	c #81CF3D",
"D.	c #59C135",
"E.	c #63C437",
"F.	c #27962D",
"G.	c #136225",
"H.	c #4BB733",
"I.	c #41B132",
"J.	c #52BC34",
"K.	c #6CC638",
"L.	c #2EA830",
"M.	c #1C8138",
"N.	c #1B3F2E",
"O.	c #55BC35",
"P.	c #5C9630",
"Q.	c #638D30",
"R.	c #6EC038",
"S.	c #748848",
"T.	c #2A9833",
"U.	c #169C30",
"V.	c #3D7C39",
"W.	c #E0C79A",
"X.	c #A4955E",
"Y.	c #1A4F31",
"Z.	c #1F5B38",
"`.	c #2A9D32",
" +	c #54BD34",
".+	c #6AC638",
"++	c #24A230",
"@+	c #2CA72F",
"#+	c #14832B",
"$+	c #2BA72F",
"%+	c #14A02E",
"&+	c #39AC31",
"*+	c #30A930",
"=+	c #1B8238",
"-+	c #226539",
";+	c #40912D",
">+	c #72C739",
",+	c #83D03D",
"'+	c #97D842",
")+	c #40862B",
"!+	c #918654",
"~+	c #3A7A3F",
"{+	c #8A8753",
"]+	c #CDAC71",
"^+	c #A7A463",
"/+	c #23503A",
"(+	c #1A5031",
"_+	c #1B8D37",
":+	c #4AB733",
"<+	c #149F2F",
"[+	c #159B31",
"}+	c #179335",
"|+	c #1A8738",
"1+	c #169832",
"2+	c #1F7239",
"3+	c #169B2F",
"4+	c #43B232",
"5+	c #4FBA33",
"6+	c #8AD33F",
"7+	c #86D13E",
"8+	c #7BCC3B",
"9+	c #45962D",
"0+	c #C6A36B",
"a+	c #C8A86C",
"b+	c #7BB847",
"c+	c #1A3A2D",
"d+	c #9CAA56",
"e+	c #16522E",
"f+	c #188D37",
"g+	c #159C30",
"h+	c #178D38",
"i+	c #1A7D3C",
"j+	c #188C38",
"k+	c #1A8737",
"l+	c #1F693D",
"m+	c #1B8835",
"n+	c #169C2F",
"o+	c #149E2F",
"p+	c #1CA22E",
"q+	c #49B633",
"r+	c #3FAE33",
"s+	c #3FAB34",
"t+	c #4FB934",
"u+	c #4DB933",
"v+	c #124A23",
"w+	c #B9A966",
"x+	c #3B822A",
"y+	c #2B862A",
"z+	c #147529",
"A+	c #1D6A3B",
"B+	c #1E703C",
"C+	c #1A7A3E",
"D+	c #1D6F3D",
"E+	c #1D723D",
"F+	c #20643C",
"G+	c #21613C",
"H+	c #1D763B",
"I+	c #19843A",
"J+	c #1C7E37",
"K+	c #159932",
"L+	c #16A02E",
"M+	c #1E9D31",
"N+	c #188939",
"O+	c #176B34",
"P+	c #1D4F34",
"Q+	c #176530",
"R+	c #39A834",
"S+	c #1C4F23",
"T+	c #3E882B",
"U+	c #63B334",
"V+	c #99DA42",
"W+	c #7CCD3C",
"X+	c #29A530",
"Y+	c #1B8337",
"Z+	c #1E6E3D",
"`+	c #1D6B3C",
" @	c #20663C",
".@	c #214B37",
"+@	c #215338",
"@@	c #234F39",
"#@	c #1F6B3D",
"$@	c #179136",
"%@	c #186D39",
"&@	c #154E2D",
"*@	c #76AA47",
"=@	c #1D4131",
"-@	c #24523B",
";@	c #1E6136",
">@	c #3B942D",
",@	c #60C336",
"'@	c #96D842",
")@	c #9BDB43",
"!@	c #71C639",
"~@	c #3CAE31",
"{@	c #19843B",
"]@	c #1D653A",
"^@	c #1C4130",
"/@	c #1B392E",
"(@	c #1B3A2F",
"_@	c #1C3B2F",
":@	c #19392B",
"<@	c #188635",
"[@	c #179D30",
"}@	c #1A9036",
"|@	c #175D26",
"1@	c #6E9D3F",
"2@	c #569B3F",
"3@	c #479A3E",
"4@	c #173128",
"5@	c #D3B072",
"6@	c #39AD31",
"7@	c #4BB533",
"8@	c #5FC336",
"9@	c #65C137",
"0@	c #5DBD36",
"a@	c #2FA631",
"b@	c #178F36",
"c@	c #1B6B3A",
"d@	c #3E9738",
"e@	c #46AB34",
"f@	c #287E2B",
"g@	c #19482B",
"h@	c #19342B",
"i@	c #183F2C",
"j@	c #31A930",
"k@	c #58C035",
"l@	c #68C438",
"m@	c #5BA632",
"n@	c #3F8A2B",
"o@	c #D3B271",
"p@	c #D9B377",
"q@	c #D9B276",
"r@	c #18A02F",
"s@	c #169432",
"t@	c #176A36",
"u@	c #15522E",
"v@	c #142B24",
"w@	c #3A802A",
"x@	c #5CC236",
"y@	c #68C538",
"z@	c #379B32",
"A@	c #3EA730",
"B@	c #2F9E2F",
"C@	c #329E36",
"D@	c #31A831",
"E@	c #94D741",
"F@	c #98D942",
"G@	c #6BC338",
"H@	c #277E29",
"I@	c #26A52F",
"J@	c #178537",
"K@	c #18492E",
"L@	c #5E9F3D",
"M@	c #3EA235",
"N@	c #44952D",
"O@	c #4BAE38",
"P@	c #73C83A",
"Q@	c #78CB3B",
"R@	c #67C338",
"S@	c #33953A",
"T@	c #209E31",
"U@	c #50B434",
"V@	c #7BC83B",
"W@	c #6CC738",
"X@	c #80CF3D",
"Y@	c #4BB833",
"Z@	c #137B28",
"`@	c #188D36",
" #	c #205738",
".#	c #1C3E2F",
"+#	c #909653",
"@#	c #418F2C",
"##	c #79CC3B",
"$#	c #71C939",
"%#	c #379C39",
"&#	c #72C83A",
"*#	c #97D942",
"=#	c #58AF32",
"-#	c #187038",
";#	c #169334",
">#	c #55BE34",
",#	c #269A2E",
"'#	c #6A9B33",
")#	c #CDB26E",
"!#	c #138A2A",
"~#	c #21623B",
"{#	c #204935",
"]#	c #648C46",
"^#	c #43942D",
"/#	c #54BE34",
"(#	c #217237",
"_#	c #5BBC36",
":#	c #7DCD3C",
"<#	c #3A882B",
"[#	c #195231",
"}#	c #188F35",
"|#	c #2DA830",
"1#	c #21A32F",
"2#	c #169733",
"3#	c #15512E",
"4#	c #78C53A",
"5#	c #8BA94B",
"6#	c #9B9B55",
"7#	c #9DAB59",
"8#	c #6DB143",
"9#	c #6AA140",
"0#	c #4EB933",
"a#	c #1DA22E",
"b#	c #44B332",
"c#	c #34AB30",
"d#	c #56BF34",
"e#	c #50BB34",
"f#	c #217A33",
"g#	c #34512F",
"h#	c #3CAE32",
"i#	c #74CA3A",
"j#	c #77CB3B",
"k#	c #4EB232",
"l#	c #1B4D32",
"m#	c #31843A",
"n#	c #219F31",
"o#	c #18873A",
"p#	c #175E32",
"q#	c #48B035",
"r#	c #4FB833",
"s#	c #3D562D",
"t#	c #6BBF37",
"u#	c #C6AB6B",
"v#	c #C8B16C",
"w#	c #44B232",
"x#	c #188A39",
"y#	c #3AAD31",
"z#	c #1E9032",
"A#	c #4E472A",
"B#	c #425531",
"C#	c #24A32F",
"D#	c #57C035",
"E#	c #217B28",
"F#	c #215D3B",
"G#	c #1C8037",
"H#	c #16542F",
"I#	c #1D4F33",
"J#	c #2A8234",
"K#	c #877D4B",
"L#	c #379532",
"M#	c #DAB47A",
"N#	c #31942C",
"O#	c #159A32",
"P#	c #19823B",
"Q#	c #178932",
"R#	c #4F4B2B",
"S#	c #593D26",
"T#	c #3C3E25",
"U#	c #159A30",
"V#	c #56BF35",
"W#	c #1F9A31",
"X#	c #1D4132",
"Y#	c #1E4132",
"Z#	c #1B3C2E",
"`#	c #187636",
" $	c #175E33",
".$	c #D3AD71",
"+$	c #AE9260",
"@$	c #978456",
"#$	c #31583B",
"$$	c #179036",
"%$	c #1A7C3D",
"&$	c #1A793E",
"*$	c #1C6C3B",
"=$	c #5F4B2E",
"-$	c #A97E4D",
";$	c #634628",
">$	c #3F2B18",
",$	c #166731",
"'$	c #1AA12F",
")$	c #46B432",
"!$	c #1EA22E",
"~$	c #149F2E",
"{$	c #15632C",
"]$	c #1E562C",
"^$	c #209E32",
"/$	c #3DAF31",
"($	c #143C27",
"_$	c #6DBE38",
":$	c #599F31",
"<$	c #CCB26D",
"[$	c #D2AE71",
"}$	c #B39462",
"|$	c #19723B",
"1$	c #1C743D",
"2$	c #20653C",
"3$	c #1C743E",
"4$	c #205C39",
"5$	c #D1AF71",
"6$	c #65472A",
"7$	c #956C42",
"8$	c #AB7F4E",
"9$	c #9C7446",
"0$	c #16562F",
"a$	c #178F37",
"b$	c #165830",
"c$	c #60B936",
"d$	c #50B037",
"e$	c #37A634",
"f$	c #65BF37",
"g$	c #8CD23F",
"h$	c #6FC339",
"i$	c #7C9B48",
"j$	c #7A8E47",
"k$	c #BCAB65",
"l$	c #1A3B2D",
"m$	c #224E39",
"n$	c #1D4231",
"o$	c #1C743C",
"p$	c #D1AD71",
"q$	c #442F1A",
"r$	c #795635",
"s$	c #8D653D",
"t$	c #7C5936",
"u$	c #1C4030",
"v$	c #19733B",
"w$	c #159E2F",
"x$	c #178C37",
"y$	c #165630",
"z$	c #8DD23F",
"A$	c #3D9036",
"B$	c #1B9434",
"C$	c #34A930",
"D$	c #53BC34",
"E$	c #3BAD31",
"F$	c #38A630",
"G$	c #D7B174",
"H$	c #42AE31",
"I$	c #A6A15B",
"J$	c #67BB38",
"K$	c #83CE3D",
"L$	c #5BB737",
"M$	c #1D8B36",
"N$	c #2C7B37",
"O$	c #D1AC71",
"P$	c #9E7547",
"Q$	c #725232",
"R$	c #725132",
"S$	c #7A5734",
"T$	c #B2A461",
"U$	c #176234",
"V$	c #1A7E3D",
"W$	c #1A773D",
"X$	c #3B8B34",
"Y$	c #7ECE3C",
"Z$	c #60B134",
"`$	c #898051",
" %	c #238934",
".%	c #24A031",
"+%	c #165730",
"@%	c #1FA030",
"#%	c #669240",
"$%	c #2C9732",
"%%	c #858C4F",
"&%	c #4C8434",
"*%	c #78C53B",
"=%	c #D2B271",
"-%	c #7B5835",
";%	c #B28551",
">%	c #8C663E",
",%	c #715132",
"'%	c #28190D",
")%	c #27A52F",
"!%	c #186A37",
"~%	c #1A783D",
"{%	c #165A31",
"]%	c #397A30",
"^%	c #57BD35",
"/%	c #61C336",
"(%	c #5BC035",
"_%	c #738C43",
":%	c #9C8A59",
"<%	c #1E7F35",
"[%	c #197F3C",
"}%	c #178D37",
"|%	c #8D9A50",
"1%	c #189431",
"2%	c #5B6E42",
"3%	c #96A153",
"4%	c #62BE37",
"5%	c #7BCD3B",
"6%	c #D2B171",
"7%	c #614428",
"8%	c #8C653C",
"9%	c #986F43",
"0%	c #A27749",
"a%	c #7D5C37",
"b%	c #1C8F34",
"c%	c #154D2C",
"d%	c #5B4027",
"e%	c #326628",
"f%	c #3DAD32",
"g%	c #209C31",
"h%	c #CEAB6F",
"i%	c #88774F",
"j%	c #5A8044",
"k%	c #4E7240",
"l%	c #19753C",
"m%	c #D5B073",
"n%	c #CFAE70",
"o%	c #989E54",
"p%	c #3DA831",
"q%	c #37A833",
"r%	c #47B233",
"s%	c #583E24",
"t%	c #6C4C30",
"u%	c #845E38",
"v%	c #775532",
"w%	c #1D6D3C",
"x%	c #A1905B",
"y%	c #88643D",
"z%	c #926C41",
"A%	c #685D35",
"B%	c #188C33",
"C%	c #23A42F",
"D%	c #8D8551",
"E%	c #D0AB70",
"F%	c #C6A46B",
"G%	c #917D51",
"H%	c #639D40",
"I%	c #198C38",
"J%	c #1A813B",
"K%	c #5D7636",
"L%	c #D2AC70",
"M%	c #86623B",
"N%	c #A27949",
"O%	c #7C5A37",
"P%	c #5D4128",
"Q%	c #48311E",
"R%	c #BC9D67",
"S%	c #CAA56C",
"T%	c #66482C",
"U%	c #A48153",
"V%	c #71854D",
"W%	c #169932",
"X%	c #159F2F",
"Y%	c #8D8252",
"Z%	c #8C8C55",
"`%	c #1E6039",
" &	c #A89560",
".&	c #83633D",
"+&	c #D4AD71",
"@&	c #745433",
"#&	c #A87D4D",
"$&	c #B48652",
"%&	c #A37949",
"&&	c #9A7245",
"*&	c #CCAA75",
"=&	c #B49666",
"-&	c #795B39",
";&	c #694F33",
">&	c #8F6F46",
",&	c #968956",
"'&	c #19773B",
")&	c #196E39",
"!&	c #D3AE75",
"~&	c #B79A6A",
"{&	c #C0A270",
"]&	c #826541",
"^&	c #D2AC71",
"/&	c #382514",
"(&	c #856039",
"_&	c #8F683F",
":&	c #946C43",
"<&	c #986F45",
"[&	c #5F4428",
"}&	c #98BF4F",
"|&	c #67A340",
"1&	c #569B3D",
"2&	c #8C673E",
"3&	c #C6A169",
"4&	c #C2A56A",
"5&	c #858250",
"6&	c #C0A269",
"    . + @ # $ % &         *     = - ; > , ' ) !         ~ { { { ",
"    ] ^ / ( _ : < [ }     *     | 1 2 3 4 1 5 6 7       ~ { { { ",
"    8 9 0 a b c d e f g   *     h i j k l m n o p q r   ~ { { { ",
"  s t u v w x y z A B C   *   D E F G H I J K L M N O   ~ { { P ",
"Q R S T U V W X Y Z `      ...+.@.#.$.%.&.*.=.-.;.>.,.  ~ { P P ",
"'.).!.~.{.].^./.(._.:.<.[.}./.|.1.2.3.4.5.6.7.8.9.0.    ~ P P P ",
"  a.b.c.d.e./.f.g.h.i.j.k.l.m.n.o.p.q.o.r.h.s.t.u.v.w.  ~ P P P ",
"    x.y.z.A.B.C.D.E.F.G.H.I.J.K.L.M.N.O.P.Q.R.S.T.U.V.  W.P P P ",
"    X.Y.Z.`. +.+H.++@+#+$+%+&+*+=+-+;+>+,+'+R.)+!+~+{+  W.P P { ",
"    ]+^+/+(+_+:+<+H [+}+%+|+1+[+2+3+4+5+6+7+7+8+9+0+    W.P { { ",
"    a+b+c+d+e+f+g+h+i+j+k+l+1+m+n+o+p+ +q+r+s+t+u+v+    W.{ { { ",
"    w+x+9+y+z+A+B+C+D+E+F+G+H+I+J+K+L+M+N+O+P+Q+R+S+    ~ { { { ",
"  T+U+7+V+W+X+Y+Z+`+ @.@+@@@/+/+#@1+$@%@&@*@=@-@;@      ~ P { { ",
">@,@'@f.)@!@~@<+{@]@^@/@(@_@_@:@<@[@}@|@1@2@3@4@5@      ~ { { { ",
"6@7@8@9@0@a@b@=+c@d@e@f@g@h@i@[+j@4+k@l@m@n@o@5@        p@q@q@{ ",
"%+q+I.r@s@t@u@v@w@x@n.y@z@A@B@C@D@5+8+E@F@F@G@H@                ",
"%+I@%+J@K@L@M@N@D.7+/.f.O@P@Q@R@S@T@U@V@n.W@X@Y@Z@              ",
"%+%+`@ #.#+#@#D.##B.n.$#%#&#/.*#=#-#;#%+4+>#j@:+,#'#)##         ",
"!#g+~#{#]#^#5+/#].D.,@t+(#_#/.,+:#<#[#}#|#1#%+%+2#3#4#5#      6#",
"  7#8#9#@#0#a#b#c#d#e#f#g#h#i#j#Q@k#j+l#m#n#K+K+o#p#q#r#s#    t#",
"  u#v#D w#p+o+x#L.y#z#A#B#C#D.D.D.D#E#F#^@G#C+C+C+H#I#J#K#    L#",
"P M#  N#%+O#P#C+2#Q#R#S#T#U#:+D. +V#W#X#Y#Z#`#C+ $.$+$@$      #$",
"P M#  o+$$%$C+&$*$=$-$;$>$,$'$)$I.!$~${$]$^$/$($_$:$<$[$      }$",
"P M#  |$1$2$3$4$5$6$7$8$9$0$a$%+%+%+K+b$c$d$e$f$g$7+h$i$      j$",
"{ M#  k$l$m$n$o$p$q$r$s$t$u$v$2#%+w$x$y$e.z$A$B$C$D$E$F$G$    H$",
"{ M#I$J$K$L$M$N$O$P$Q$R$S$T$U$%${@V$W$X$1 Y$Z$`$ %.%o+2#+%    @%",
"{ M##%&+$%%%&%*%=%-%;%>%,%'%)%!%~%C+{%]%^%/%(%_%:%<%P#[%+%    }%",
"{ M#|%1%2%3%4%5%6%7%8%9%0%a%a$%$b%c%d%e%f%>#e#g%h%i%j%k%G$    l%",
"{ M#m%n%o%p%q%r%p$s%t%r$u%v%E+w%x%y%z%A%B%*+C%g+D%  E%F%      G%",
"{ M#    H%I%J%K%L%M%N%O%P%t%Q%R%S%T%s$U%V%W%X%}%Y%              ",
"{ M#    Z%`% &.&+&@&#&$&$&%&&&*&=&-&;&>&,&'&V$)&                ",
"{ M#    !&~&{&]&^&/&(&_&:&<&<&[&}&|&1&2&3&4&5&6&                "};
