/* XPM */
static char * tree_moove_xpm[] = {
"32 32 558 2",
"  	c #E1C190",
". 	c #E4D2AA",
"+ 	c #D8CAA1",
"@ 	c #E2D0A9",
"# 	c #DDCFA5",
"$ 	c #D9CFA1",
"% 	c #A9B57B",
"& 	c #C7C693",
"* 	c #CEC79A",
"= 	c #E0D0A7",
"- 	c #D1B786",
"; 	c #C1B07C",
"> 	c #BAAE77",
", 	c #D1B986",
"' 	c #DEC08E",
") 	c #E0C190",
"! 	c #DFCFA7",
"~ 	c #B2BF84",
"{ 	c #A7C872",
"] 	c #81C04A",
"^ 	c #8DC15E",
"/ 	c #8FB666",
"( 	c #BABB8A",
"_ 	c #DCCDA4",
": 	c #D6BE89",
"< 	c #A8AE6C",
"[ 	c #83AF5C",
"} 	c #83B24A",
"| 	c #A8BD64",
"1 	c #B2B36E",
"2 	c #CBB782",
"3 	c #E1D0A8",
"4 	c #BABC8C",
"5 	c #7EB854",
"6 	c #84CC3E",
"7 	c #8CD33F",
"8 	c #82CE3C",
"9 	c #66BB36",
"0 	c #75A057",
"a 	c #C7B180",
"b 	c #D9BC8B",
"c 	c #B1B472",
"d 	c #80B84D",
"e 	c #79C43B",
"f 	c #89CE3E",
"g 	c #92CE46",
"h 	c #84BF44",
"i 	c #8FAD64",
"j 	c #C5BD93",
"k 	c #9DB675",
"l 	c #6FBF3C",
"m 	c #80CE3D",
"n 	c #86D03E",
"o 	c #83CE3D",
"p 	c #60B737",
"q 	c #48883A",
"r 	c #B6A476",
"s 	c #CAB780",
"t 	c #B9AE74",
"u 	c #D2BA85",
"v 	c #E0C18F",
"w 	c #E0C08F",
"x 	c #C5B27F",
"y 	c #80A654",
"z 	c #64BA38",
"A 	c #83CF3D",
"B 	c #8FD540",
"C 	c #84D03D",
"D 	c #74C83A",
"E 	c #5AAD38",
"F 	c #75965A",
"G 	c #71A555",
"H 	c #57B737",
"I 	c #5CBC36",
"J 	c #66C137",
"K 	c #5EB737",
"L 	c #3A9637",
"M 	c #3D7A39",
"N 	c #94A45E",
"O 	c #A0BE5F",
"P 	c #8DBA4B",
"Q 	c #A2BC5F",
"R 	c #ADB36D",
"S 	c #C9B680",
"T 	c #BFAE7C",
"U 	c #6A914B",
"V 	c #48A035",
"W 	c #66BC39",
"X 	c #77C93B",
"Y 	c #6EC639",
"Z 	c #57BB35",
"` 	c #3FAB32",
" .	c #309232",
"..	c #309531",
"+.	c #30A730",
"@.	c #33A731",
"#.	c #3EAD32",
"$.	c #329C34",
"%.	c #1E8037",
"&.	c #348C34",
"*.	c #65B03E",
"=.	c #7FC845",
"-.	c #87CE3E",
";.	c #86CB42",
">.	c #7FBD45",
",.	c #94B15B",
"'.	c #C2B47C",
").	c #E1CFA8",
"!.	c #CDB384",
"~.	c #918F62",
"{.	c #48793F",
"].	c #399135",
"^.	c #4FAE36",
"/.	c #51B734",
"(.	c #37A633",
"_.	c #249A34",
":.	c #1C9731",
"<.	c #1A9631",
"[.	c #1C9832",
"}.	c #1D9235",
"|.	c #1F9C32",
"1.	c #1C9134",
"2.	c #1B8B34",
"3.	c #2A9F30",
"4.	c #49B332",
"5.	c #63C236",
"6.	c #6CC239",
"7.	c #64BD38",
"8.	c #5EB937",
"9.	c #5FB13B",
"0.	c #809E54",
"a.	c #C1B490",
"b.	c #DFBF8F",
"c.	c #C1A87D",
"d.	c #817C5A",
"e.	c #7B8557",
"f.	c #549049",
"g.	c #309D34",
"h.	c #1F9A33",
"i.	c #198C37",
"j.	c #198938",
"k.	c #1B8338",
"l.	c #1C7C39",
"m.	c #189034",
"n.	c #198C35",
"o.	c #189332",
"p.	c #1B9F30",
"q.	c #30A830",
"r.	c #40AA34",
"s.	c #3B9B36",
"t.	c #378935",
"u.	c #368633",
"v.	c #399333",
"w.	c #63964D",
"x.	c #B4AB87",
"y.	c #DEBF8E",
"z.	c #BBAA78",
"A.	c #7C8854",
"B.	c #829564",
"C.	c #4D7E45",
"D.	c #1D7D37",
"E.	c #1B8239",
"F.	c #1A7E3C",
"G.	c #1C763C",
"H.	c #1D753B",
"I.	c #1F6A3B",
"J.	c #20673B",
"K.	c #1D7739",
"L.	c #1C7B39",
"M.	c #1A8536",
"N.	c #169932",
"O.	c #1B9533",
"P.	c #2D8538",
"Q.	c #6A844F",
"R.	c #949064",
"S.	c #305A38",
"T.	c #497345",
"U.	c #9AA276",
"V.	c #D8C8A1",
"W.	c #D3BB87",
"X.	c #BFB779",
"Y.	c #92B058",
"Z.	c #73B140",
"`.	c #6CAE42",
" +	c #3F9636",
".+	c #1E7F37",
"++	c #1D743C",
"@+	c #1D6F3C",
"#+	c #1F663B",
"$+	c #205838",
"%+	c #215438",
"&+	c #225138",
"*+	c #215338",
"=+	c #1F5A37",
"-+	c #1B7E38",
";+	c #159632",
">+	c #228936",
",+	c #657B4B",
"'+	c #BEA87B",
")+	c #D1C29D",
"!+	c #A89F7F",
"~+	c #8E8B6E",
"{+	c #D5C69F",
"]+	c #E0C090",
"^+	c #D1BB86",
"/+	c #9DAD63",
"(+	c #81B848",
"_+	c #88CA44",
":+	c #8FD23F",
"<+	c #7AC83B",
"[+	c #4BAF33",
"}+	c #239734",
"|+	c #1B803A",
"1+	c #1E6B3A",
"2+	c #205834",
"3+	c #1E4A31",
"4+	c #1C4231",
"5+	c #1C3D30",
"6+	c #1B422F",
"7+	c #1A6A2F",
"8+	c #249333",
"9+	c #31A432",
"0+	c #44A636",
"a+	c #6AA648",
"b+	c #9CB270",
"c+	c #ADB480",
"d+	c #D5C79F",
"e+	c #D1C29C",
"f+	c #DFC08F",
"g+	c #D6BB89",
"h+	c #A0AB67",
"i+	c #66B344",
"j+	c #74C63A",
"k+	c #82CE3D",
"l+	c #81CD3D",
"m+	c #66BE38",
"n+	c #3CA535",
"o+	c #1F9036",
"p+	c #1E7B39",
"q+	c #358939",
"r+	c #439934",
"s+	c #35832E",
"t+	c #23602D",
"u+	c #225A2D",
"v+	c #1E652D",
"w+	c #219531",
"x+	c #32A731",
"y+	c #4CB633",
"z+	c #6CC538",
"A+	c #82CB3E",
"B+	c #8BC844",
"C+	c #8EC74F",
"D+	c #91BD63",
"E+	c #9DA465",
"F+	c #B3B186",
"G+	c #5A9A47",
"H+	c #45AF32",
"I+	c #56BB35",
"J+	c #57BA35",
"K+	c #4FB035",
"L+	c #379834",
"M+	c #207B32",
"N+	c #19622E",
"O+	c #30762F",
"P+	c #53AC35",
"Q+	c #7CC83C",
"R+	c #6CC039",
"S+	c #46A133",
"T+	c #47A532",
"U+	c #48A632",
"V+	c #45AA35",
"W+	c #36A435",
"X+	c #44AF33",
"Y+	c #69C037",
"Z+	c #85CE3D",
"`+	c #7DCC3D",
" @	c #73C43C",
".@	c #5DAC3D",
"+@	c #93A161",
"@@	c #DBCCA3",
"#@	c #E2D1A9",
"$@	c #AFB184",
"%@	c #499541",
"&@	c #32A830",
"*@	c #3BAD31",
"=@	c #2CA132",
"-@	c #298A36",
";@	c #88935E",
">@	c #AFA173",
",@	c #7E9052",
"'@	c #56A736",
")@	c #73C63A",
"!@	c #91D640",
"~@	c #5DB539",
"{@	c #6AC139",
"]@	c #7DCC3C",
"^@	c #78C93C",
"/@	c #50A838",
"(@	c #2B9234",
"_@	c #3BA234",
":@	c #52B234",
"<@	c #60BD36",
"[@	c #5BBE35",
"}@	c #4CB533",
"|@	c #44AE34",
"1@	c #7BA653",
"2@	c #CAB682",
"3@	c #E3D1A9",
"4@	c #B4B487",
"5@	c #509645",
"6@	c #1D9F2E",
"7@	c #1D9F30",
"8@	c #1A8A34",
"9@	c #1A6232",
"0@	c #AC9A71",
"a@	c #B3AB73",
"b@	c #78AE4B",
"c@	c #69C138",
"d@	c #80CF3C",
"e@	c #8CD43F",
"f@	c #7BCC3B",
"g@	c #4EA939",
"h@	c #63BB39",
"i@	c #91D541",
"j@	c #93D741",
"k@	c #72C039",
"l@	c #408E33",
"m@	c #1C7932",
"n@	c #1B9132",
"o@	c #30A731",
"p@	c #31A930",
"q@	c #23A42F",
"r@	c #1EA02F",
"s@	c #2B8F36",
"t@	c #808959",
"u@	c #CFB485",
"v@	c #C1BC91",
"w@	c #759F5C",
"x@	c #299A33",
"y@	c #189233",
"z@	c #1D7137",
"A@	c #777755",
"B@	c #A39D6A",
"C@	c #7CAA4F",
"D@	c #62C237",
"E@	c #66C537",
"F@	c #65C437",
"G@	c #58BB35",
"H@	c #388D35",
"I@	c #4AA535",
"J@	c #85D13E",
"K@	c #60AE3A",
"L@	c #929A60",
"M@	c #6C8250",
"N@	c #298835",
"O@	c #249A33",
"P@	c #189B31",
"Q@	c #169534",
"R@	c #178437",
"S@	c #728353",
"T@	c #CAB182",
"U@	c #C4C193",
"V@	c #93A662",
"W@	c #8C9D60",
"X@	c #9A9468",
"Y@	c #AAA06F",
"Z@	c #86A856",
"`@	c #4BAB36",
" #	c #40B031",
".#	c #44B232",
"+#	c #4CB833",
"@#	c #51BB34",
"##	c #3E9B33",
"$#	c #336530",
"%#	c #368F31",
"&#	c #5DBD36",
"*#	c #6DC839",
"=#	c #6CC738",
"-#	c #61BE39",
";#	c #8CAA5B",
">#	c #A79B6E",
",#	c #7D8258",
"'#	c #237936",
")#	c #1A823A",
"!#	c #197E3D",
"~#	c #2B773E",
"{#	c #80865A",
"]#	c #CBB183",
"^#	c #D5BA88",
"/#	c #9AA863",
"(#	c #4FA638",
"_#	c #2DA62F",
":#	c #229C33",
"<#	c #289E34",
"[#	c #36A931",
"}#	c #35A132",
"|#	c #41752E",
"1#	c #484D2D",
"2#	c #32812F",
"3#	c #42B132",
"4#	c #57C035",
"5#	c #55BE34",
"6#	c #4CA738",
"7#	c #ADAB71",
"8#	c #C9AE82",
"9#	c #8C875F",
"0#	c #457341",
"a#	c #407A42",
"b#	c #718354",
"c#	c #C2AC7E",
"d#	c #C0B17B",
"e#	c #6CA252",
"f#	c #29A02F",
"g#	c #1A9833",
"h#	c #178839",
"i#	c #1A8A39",
"j#	c #219134",
"k#	c #457A32",
"l#	c #5E552E",
"m#	c #523D26",
"n#	c #326A2A",
"o#	c #2D9E31",
"p#	c #48B633",
"q#	c #4EB934",
"r#	c #45B332",
"s#	c #35A532",
"t#	c #729851",
"u#	c #BBA779",
"v#	c #D7B98A",
"w#	c #C8AF81",
"x#	c #AA996F",
"y#	c #B6A176",
"z#	c #C5B77F",
"A#	c #6EA14F",
"B#	c #199334",
"C#	c #18863A",
"D#	c #1A7B3D",
"E#	c #337B42",
"F#	c #537341",
"G#	c #79673D",
"H#	c #8F6A40",
"I#	c #725230",
"J#	c #555430",
"K#	c #287D34",
"L#	c #28A232",
"M#	c #34AA30",
"N#	c #26A52F",
"O#	c #149C2F",
"P#	c #328739",
"Q#	c #A0956A",
"R#	c #DCBD8D",
"S#	c #DDBE8E",
"T#	c #CEC69B",
"U#	c #7B9959",
"V#	c #1F7B3B",
"W#	c #1D703C",
"X#	c #2B6F3E",
"Y#	c #83895E",
"Z#	c #B1A683",
"`#	c #836849",
" $	c #936B42",
".$	c #9D7346",
"+$	c #90744B",
"@$	c #798756",
"#$	c #168C36",
"$$	c #139C30",
"%$	c #139E2F",
"&$	c #159732",
"*$	c #458745",
"=$	c #A3956C",
"-$	c #DBCCA4",
";$	c #B1A375",
">$	c #717A54",
",$	c #516746",
"'$	c #797B57",
")$	c #C8BC97",
"!$	c #CEBD98",
"~$	c #81694C",
"{$	c #7D5A37",
"]$	c #855F3A",
"^$	c #9D7C57",
"/$	c #C1AB7D",
"($	c #3D7A40",
"_$	c #188C37",
":$	c #178F37",
"<$	c #24883B",
"[$	c #758D57",
"}$	c #C5AA7F",
"|$	c #C0A77D",
"1$	c #CEBF9A",
"2$	c #D9C69E",
"3$	c #9E7B52",
"4$	c #87623D",
"5$	c #896A47",
"6$	c #AF976E",
"7$	c #949265",
"8$	c #4D7F48",
"9$	c #488247",
"0$	c #3A7942",
"a$	c #919063",
"b$	c #DBC8A1",
"c$	c #987851",
"d$	c #9D7447",
"e$	c #8F6940",
"f$	c #815D39",
"g$	c #7C6243",
"h$	c #D6B989",
"i$	c #ADA273",
"j$	c #A8A171",
"k$	c #7D8458",
"l$	c #C6AE80",
"m$	c #DABB8B",
"n$	c #8E714F",
"o$	c #85603B",
"p$	c #8D663E",
"q$	c #926940",
"r$	c #896843",
"s$	c #D4B586",
"t$	c #C6AC7F",
"u$	c #DDBD8D",
"v$	c #957854",
"w$	c #815F3B",
"x$	c #805C38",
"y$	c #7D5936",
"z$	c #7C5A38",
"A$	c #AB8F68",
"B$	c #DCBC8C",
"C$	c #DFBF8E",
"D$	c #A4855D",
"E$	c #9A7447",
"F$	c #966F44",
"G$	c #8D673F",
"H$	c #8A653E",
"I$	c #82603B",
"J$	c #CBAC7F",
"K$	c #A28660",
"L$	c #926D45",
"M$	c #9F7547",
"N$	c #A3794A",
"O$	c #9E7547",
"P$	c #997145",
"Q$	c #A4855E",
"R$	c #D4B587",
"S$	c #BA9F75",
"T$	c #927451",
"U$	c #87633E",
"V$	c #8B653D",
"W$	c #8F683F",
"X$	c #8B6A45",
"Y$	c #CDAE80",
"Z$	c #DDBE8D",
"`$	c #C5A67B",
" %	c #997B57",
".%	c #886744",
"+%	c #8E6C47",
"@%	c #8F6E49",
"#%	c #B5956C",
"$%	c #D9BA8A",
"          . . . . .                   . . . . . . . .           ",
"    . . . . . . .     . .         + @ . . . . . . .             ",
". . . . . . . .       . .     # $ % & * = . . . .               ",
". . . . . . . - ; > , ' )   ! ~ { ] ^ / ( _                   . ",
". . . . .   : < [ } | 1 2 3 4 5 6 7 8 9 0 a                 . . ",
". . .     b c d e f g h i j k l m n o p q r s t u v w     . . . ",
".         x y z A B C D E F G H I J K L M N O P Q R S w   . . . ",
"          T U V W X Y Z `  ...+.@.#.$.%.&.*.=.-.;.>.,.'.).. . . ",
"          !.~.{.].^./.(._.:.<.[.}.|.1.2.3.4.5.6.7.8.9.0.a.. .   ",
"          b.c.d.e.f.g.h.i.j.i.k.l.m.n.o.p.q.r.s.t.u.v.w.x..     ",
"          y.z.A.B.C.D.E.F.G.H.I.J.K.L.M.N.O.P.Q.R.S.T.U.V.      ",
"      w W.X.Y.Z.`. +.+++@+#+$+%+&+*+=+-+;+>+,+'+)+!+~+{+]+      ",
"    ) ^+/+(+_+:+<+[+}+|+1+2+3+4+5+6+7+8+9+0+a+b+c+d+e+f+  .     ",
"    g+h+i+j+k+l+m+n+o+p+q+r+s+t+u+v+w+x+y+z+A+B+C+D+E+g+)       ",
"  y.F+G+H+I+J+K+L+M+N+O+P+Q+R+S+T+U+V+W+X+Y+Z+7 `+ @.@+@@@      ",
"  #@$@%@&@*@=@-@;@>@,@'@)@!@7 ~@{@]@^@/@(@_@:@<@[@}@|@1@2@b.    ",
". 3@4@5@6@7@8@9@0@a@b@c@d@e@f@g@h@i@j@k@l@m@n@o@p@q@r@s@t@u@    ",
". . v@w@x@y@z@A@B@C@H D@E@F@G@H@I@o J@f@K@L@M@N@O@P@Q@R@S@T@  . ",
". . 3@U@V@W@X@Y@Z@`@ #.#+#@###$#%#&#*#=#-#;#>#,#'#)#!#~#{#]#. . ",
". . .       ^#/#(#_#:#<#[#}#|#1#2#3#4#4#5#6#7#8#9#0#a#b#c#. . . ",
". .         d#e#f#g#h#i#j#k#l#m#n#o#p#q#r#s#t#u#v#w#x#y#3@. . . ",
".           z#A#B#C#D#E#F#G#H#I#J#K#L#M#N#O#P#Q#  ]+R#S#. . . . ",
".         . T#U#V#W#X#Y#Z#`# $.$+$@$#$$$%$&$*$=$        . . . . ",
".         . -$;$>$,$'$)$!$~${$]$^$/$($_$:$<$[$u@        . . . . ",
"              R#}$|$1$3 2$3$4${$5$6$7$8$9$0$a$w         . . . . ",
"                    . . b$c$d$e$f$g$h$i$j$k$l$w       . . . . . ",
"                  . . . m$n$o$p$q$r$s$  S#t$w         . . . .   ",
"                  . . . u$v$w$x$y$z$A$B$            . . . . .   ",
"                  . . . C$D$E$F$G$H$I$J$b.        . . . . . .   ",
"                . . .   ]+K$L$M$N$O$P$Q$R$      . . . . . .     ",
"                . . .     S$T$U$V$W$W$X$Y$    . . . . . .       ",
"              . . . .     Z$`$ %.%+%@%#%$%. . . . . . .         "};
