/* XPM */
static char *result[] = {
/* columns rows colors chars-per-pixel */
"32 32 8 1 ",
"  c #D8B174",
". c #22BBD2",
"X c #20D6C7",
"o c #63E9D1",
"O c #E1C190",
"+ c #E4D2AA",
"@ c #A6FCDB",
"# c white",
/* pixels */
"XXXXXXXXXXXXo@@oo@@#OOO++++++OOO",
"XXXXXXXXXXXX@XX.@@  O+++++++OOOO",
"XXXXXXXXXXXoXXXX@#O++++++++OOOOO",
"XXXXXXXXXXoXXXX@@ ++++++++OOOOOO",
"@oo@@@ooooXXXXX@@ +++++++OOOOOOO",
"XX.....ooXXXXXX@@ ++++OOOOOOOOO+",
"XXXXXXX.ooXXXXXX@# ++OOOOOOOOO++",
"XXXXXXXX..oXXXXX@@ OOOOOOOOOO+++",
"XXXXXXXXX@#ooo@@@ OOOOOOOOOOO+++",
"XXXXXXXXX@XXX..@@ O++O+OOOOO++++",
"XXXXXXXo@XXXXXX@@ O++OOOOOOO+++O",
"XXXXXooXXXXXXXXX@# OOOOOOOO+++OO",
"oo@@@XXXXXXXXXXX@# OOOOOOO+++OOO",
"...oo@XXXXXXXXXX@@ OOOOO++++OOOO",
"XXX...@XXXXXXXX@@ OOOO+++++OO+OO",
"XXXXXXoXXXXXXXX@@ OOO+++++OOOOOO",
"XXXXXXXoXXXXXXX@@ OO++++OOOO+OOO",
"XXXXXX@@ooXXXXXX@# +++OOOOOOOOOO",
"XXXXooX...o@@@oo@@ ++OOOOOOOOOOO",
"Xo@oXXXXXX..@o.@@ +++OOOOOOOOOO+",
"oXXXXXXXXXXXXoo@@ ++OOOOOOOOOO++",
"XXXXXXXXXXXXXXo@@ +OOOOOOOOOO+++",
"XXXXXXXXXXXXXXX@@ OOOOOOOOOO++++",
"XXXXXXXXXXXXXXXo@# OO++OOOOO++++",
"XXXXXXXXXXXXXo@@@@ OO++OOOOO++++",
"XXXXXXXXXXXXooXX@@ OOOOOOOOO++++",
"XXXXXXXXXX@@XXX@@ OOOOOOOOOO++++",
"oooo#@@@o@@XXXX@@ OOOOOOOOO+++++",
"XXX......@ooXXX@@ OOOOOOOOO++++O",
"XXXXXXXXX.ooXXX@@ OOOOOOOO+++++O",
"XXXXXXXXXXXo@XXX@# OOOOOO++++++O",
"XXXXXXXXXXXXo@XX@@ OOOOO++++++OO"
};
