/* XPM */
static char *result[] = {
/* columns rows colors chars-per-pixel */
"32 32 9 1 ",
"  c #D8B174",
". c #22BBD2",
"X c #20D6C7",
"o c #63E9D1",
"O c #E1C190",
"+ c #E4D2AA",
"@ c #A6FCDB",
"# c #D5F2ED",
"$ c white",
/* pixels */
"OOOOOOO++++OO @@..X...o@@XXXXXXX",
"OOOOO+++++OOO $@XXXXXX...@oXXXXX",
"OO+++++++OO++O$@XXXXXXXXXXX@oXXX",
"++++++++OOO++O @@XXXXXXXXXXX$$oo",
"+++++++OOOOOOO @@XXXXXXXXXX@o.XX",
"+++++OOO+OOOO+ @@XXXXXXXXXoo.XXX",
"+++OOOOOOOOO+ $@XXXXXXXXXXoXXXXX",
"+OOOOOOOOOO++ $@oXXXXXXXXooXXXXX",
"OOOOOOOOOO+++ @@o@@@oo$@@XXXXXXX",
"OOOOOOOOO+++++ @@XXX....o#XXXXXX",
"OOOOOOOOO+++++ @@XXXXXXX.o@XXXXX",
"OOOOOOOO+++++O @@XXXXXXXXXoooo@@",
"OOOOOOO+++++O $@XXXXXXXX@@oXXX..",
"OOOOOO+++++OO @@XXXXX@@ooXXXXXXX",
"OOOO++++++OOO @@XXXo@..XXXXXXXXX",
"OO+++++++OOOO+ @@XoXXXXXXXXXXXXX",
"O+++++++OOOOOO @@oXXXXXXXXXXXXXX",
"+++++++OOOOOOO @@XXXXXXXXXXXXXXX",
"++++++OOOOOOO $@XXXXXXXXXXXXXXXX",
"++++OOOOOOOOO $@XXXXXXXXXXXXX@@o",
"+++OOOOOOOOOO @@XXXXXXXXXXXo@..X",
"++OOOOO+OOOOO @@oXXXXXXXoo@XXXXX",
"+OOOOOOOOOOOO+ @@@o@@oo$$@.XXXXX",
"+OOOO++OO+OO++ @@..XX...o@oXXXXX",
"+OOOO++OOOO+++ @@XXXXXXX...ooXXX",
"OOOOOOOOOO+++O$@XXXXXXXXXXX.o@oX",
"OOOOOOOOOO+++O@@XXXXXXXXXXXXXX@@",
"OOOOOOOOO+++OO @@XXXXXXXXXXXX@@.",
"OOOOOOOOO+++OO @@XXXXXXXXXXX@o.X",
"OOOOOOOOO+++OO @@XXXXXXXXXXooXXX",
"OOOOOOOO+++OO $@XXXXXXXXXXooXXXX",
"OOOOOOOO+++OO $@ooo@@ooo@@XXXXXX"
};
