/* XPM */
static char * wall_xpm[] = {
"32 32 447 2",
"  	c #D8B174",
". 	c #397D29",
"+ 	c #137127",
"@ 	c #338C2B",
"# 	c #3D852A",
"$ 	c #3F9E2E",
"% 	c #76C83A",
"& 	c #7ACC3B",
"* 	c #4CB432",
"= 	c #2F8C2B",
"- 	c #3EA32F",
"; 	c #69C638",
"> 	c #80CE3C",
", 	c #9CDB43",
"' 	c #80C13B",
") 	c #48862C",
"! 	c #22872A",
"~ 	c #76CA3A",
"{ 	c #92D640",
"] 	c #88D23E",
"^ 	c #6BC538",
"/ 	c #1F7528",
"( 	c #278029",
"_ 	c #57BF35",
": 	c #92D641",
"< 	c #91D640",
"[ 	c #8ED540",
"} 	c #7FCC3C",
"| 	c #136826",
"1 	c #41B031",
"2 	c #93D741",
"3 	c #75CA3A",
"4 	c #90D540",
"5 	c #8DD43F",
"6 	c #49B433",
"7 	c #166E2D",
"8 	c #1F7F2B",
"9 	c #41AC34",
"0 	c #67C337",
"a 	c #8BD33F",
"b 	c #81CF3D",
"c 	c #59C135",
"d 	c #63C437",
"e 	c #27962D",
"f 	c #136225",
"g 	c #4BB733",
"h 	c #41B132",
"i 	c #52BC34",
"j 	c #6CC638",
"k 	c #2EA830",
"l 	c #1C8138",
"m 	c #1B3F2E",
"n 	c #5C9630",
"o 	c #638D30",
"p 	c #1A4F31",
"q 	c #1F5B38",
"r 	c #2A9D32",
"s 	c #54BD34",
"t 	c #6AC638",
"u 	c #24A230",
"v 	c #2CA72F",
"w 	c #14832B",
"x 	c #2BA72F",
"y 	c #14A02E",
"z 	c #39AC31",
"A 	c #30A930",
"B 	c #1B8238",
"C 	c #226539",
"D 	c #40912D",
"E 	c #72C739",
"F 	c #83D03D",
"G 	c #97D842",
"H 	c #6EC038",
"I 	c #40862B",
"J 	c #23503A",
"K 	c #1A5031",
"L 	c #1B8D37",
"M 	c #4AB733",
"N 	c #149F2F",
"O 	c #19853A",
"P 	c #159B31",
"Q 	c #179335",
"R 	c #1A8738",
"S 	c #169832",
"T 	c #1F7239",
"U 	c #169B2F",
"V 	c #43B232",
"W 	c #4FBA33",
"X 	c #8AD33F",
"Y 	c #86D13E",
"Z 	c #7BCC3B",
"` 	c #45962D",
" .	c #1A3A2D",
"..	c #16522E",
"+.	c #188D37",
"@.	c #159C30",
"#.	c #178D38",
"$.	c #1A7D3C",
"%.	c #188C38",
"&.	c #1A8737",
"*.	c #1F693D",
"=.	c #1B8835",
"-.	c #169C2F",
";.	c #149E2F",
">.	c #1CA22E",
",.	c #49B633",
"'.	c #3FAE33",
").	c #3FAB34",
"!.	c #4FB934",
"~.	c #4DB933",
"{.	c #124A23",
"].	c #3B822A",
"^.	c #2B862A",
"/.	c #147529",
"(.	c #1D6A3B",
"_.	c #1E703C",
":.	c #1A7A3E",
"<.	c #1D6F3D",
"[.	c #1D723D",
"}.	c #20643C",
"|.	c #21613C",
"1.	c #1D763B",
"2.	c #19843A",
"3.	c #1C7E37",
"4.	c #159932",
"5.	c #16A02E",
"6.	c #1E9D31",
"7.	c #188939",
"8.	c #176B34",
"9.	c #1D4F34",
"0.	c #176530",
"a.	c #39A834",
"b.	c #1C4F23",
"c.	c #3E882B",
"d.	c #63B334",
"e.	c #99DA42",
"f.	c #7CCD3C",
"g.	c #29A530",
"h.	c #1B8337",
"i.	c #1E6E3D",
"j.	c #1D6B3C",
"k.	c #20663C",
"l.	c #214B37",
"m.	c #215338",
"n.	c #234F39",
"o.	c #1F6B3D",
"p.	c #179136",
"q.	c #186D39",
"r.	c #154E2D",
"s.	c #1D4131",
"t.	c #24523B",
"u.	c #1E6136",
"v.	c #3B942D",
"w.	c #60C336",
"x.	c #96D842",
"y.	c #9BDB43",
"z.	c #71C639",
"A.	c #3CAE31",
"B.	c #19843B",
"C.	c #1D653A",
"D.	c #1C4130",
"E.	c #1B392E",
"F.	c #1B3A2F",
"G.	c #1C3B2F",
"H.	c #19392B",
"I.	c #188635",
"J.	c #179D30",
"K.	c #1A9036",
"L.	c #175D26",
"M.	c #173128",
"N.	c #136325",
"O.	c #39AD31",
"P.	c #4BB533",
"Q.	c #5FC336",
"R.	c #65C137",
"S.	c #5DBD36",
"T.	c #2FA631",
"U.	c #178F36",
"V.	c #1B6B3A",
"W.	c #3E9738",
"X.	c #46AB34",
"Y.	c #287E2B",
"Z.	c #19482B",
"`.	c #19342B",
" +	c #183F2C",
".+	c #31A930",
"++	c #58C035",
"@+	c #68C438",
"#+	c #5BA632",
"$+	c #3F8A2B",
"%+	c #137A28",
"&+	c #18A02F",
"*+	c #169432",
"=+	c #176A36",
"-+	c #15522E",
";+	c #142B24",
">+	c #3A802A",
",+	c #5CC236",
"'+	c #68C538",
")+	c #379B32",
"!+	c #3EA730",
"~+	c #2F9E2F",
"{+	c #329E36",
"]+	c #31A831",
"^+	c #94D741",
"/+	c #98D942",
"(+	c #6BC338",
"_+	c #277E29",
":+	c #26A52F",
"<+	c #178537",
"[+	c #18492E",
"}+	c #44952D",
"|+	c #4BAE38",
"1+	c #73C83A",
"2+	c #78CB3B",
"3+	c #67C338",
"4+	c #33953A",
"5+	c #209E31",
"6+	c #50B434",
"7+	c #7BC83B",
"8+	c #6CC738",
"9+	c #80CF3D",
"0+	c #4BB833",
"a+	c #137B28",
"b+	c #137728",
"c+	c #188D36",
"d+	c #205738",
"e+	c #1C3E2F",
"f+	c #418F2C",
"g+	c #79CC3B",
"h+	c #71C939",
"i+	c #379C39",
"j+	c #72C83A",
"k+	c #97D942",
"l+	c #58AF32",
"m+	c #187038",
"n+	c #169334",
"o+	c #55BE34",
"p+	c #269A2E",
"q+	c #138A2A",
"r+	c #21623B",
"s+	c #204935",
"t+	c #43942D",
"u+	c #54BE34",
"v+	c #217237",
"w+	c #5BBC36",
"x+	c #7DCD3C",
"y+	c #3A882B",
"z+	c #195231",
"A+	c #188F35",
"B+	c #2DA830",
"C+	c #21A32F",
"D+	c #169733",
"E+	c #15512E",
"F+	c #4EB933",
"G+	c #1DA22E",
"H+	c #44B332",
"I+	c #34AB30",
"J+	c #56BF34",
"K+	c #50BB34",
"L+	c #217A33",
"M+	c #34512F",
"N+	c #3CAE32",
"O+	c #74CA3A",
"P+	c #77CB3B",
"Q+	c #4EB232",
"R+	c #1B4D32",
"S+	c #31843A",
"T+	c #219F31",
"U+	c #18873A",
"V+	c #175E32",
"W+	c #44B232",
"X+	c #188A39",
"Y+	c #3AAD31",
"Z+	c #1E9032",
"`+	c #4E472A",
" @	c #425531",
".@	c #24A32F",
"+@	c #57C035",
"@@	c #217B28",
"#@	c #1C8037",
"$@	c #16542F",
"%@	c #31942C",
"&@	c #159A32",
"*@	c #19823B",
"=@	c #178932",
"-@	c #4F4B2B",
";@	c #593D26",
">@	c #3C3E25",
",@	c #159A30",
"'@	c #56BF35",
")@	c #1F9A31",
"!@	c #1B3C2E",
"~@	c #187636",
"{@	c #175E33",
"]@	c #179036",
"^@	c #1A7C3D",
"/@	c #1A793E",
"(@	c #1C6C3B",
"_@	c #5F4B2E",
":@	c #A97E4D",
"<@	c #634628",
"[@	c #3F2B18",
"}@	c #166731",
"|@	c #1AA12F",
"1@	c #46B432",
"2@	c #1EA22E",
"3@	c #149F2E",
"4@	c #15632C",
"5@	c #143C27",
"6@	c #19723B",
"7@	c #1C743D",
"8@	c #20653C",
"9@	c #1C743E",
"0@	c #205C39",
"a@	c #65472A",
"b@	c #956C42",
"c@	c #AB7F4E",
"d@	c #9C7446",
"e@	c #16562F",
"f@	c #178F37",
"g@	c #165830",
"h@	c #1A3B2D",
"i@	c #224E39",
"j@	c #1D4231",
"k@	c #442F1A",
"l@	c #795635",
"m@	c #8D653D",
"n@	c #7C5936",
"o@	c #19733B",
"p@	c #159E2F",
"q@	c #178C37",
"r@	c #165630",
"s@	c #9E7547",
"t@	c #725232",
"u@	c #725132",
"v@	c #7A5734",
"w@	c #176234",
"x@	c #1A7E3D",
"y@	c #1A773D",
"z@	c #C4AA7F",
"A@	c #344335",
"B@	c #B09A73",
"C@	c #6F6E59",
"D@	c #7B5835",
"E@	c #2B3D30",
"F@	c #594D34",
"G@	c #715132",
"H@	c #28190D",
"I@	c #186A37",
"J@	c #1A783D",
"K@	c #165A31",
"L@	c #3A7736",
"M@	c #86D04B",
"N@	c #549D3D",
"O@	c #85B845",
"P@	c #ACDA50",
"Q@	c #328337",
"R@	c #53A73F",
"S@	c #A27749",
"T@	c #7D5C37",
"U@	c #154D2C",
"V@	c #4F9E3D",
"W@	c #5FC045",
"X@	c #4FAD40",
"Y@	c #5EBE44",
"Z@	c #51A73F",
"`@	c #614C32",
" #	c #2E3D2F",
".#	c #49442F",
"+#	c #494F3D",
"@#	c #575843",
"##	c #4C6935",
"$#	c #5AAF41",
"%#	c #ADD850",
"&#	c #1E4530",
"*#	c #225030",
"=#	c #56AC41",
"-#	c #7FCD4A",
";#	c #7DC047",
">#	c #2F7C36",
",#	c #B9E754",
"'#	c #8BD04B",
")#	c #75CA48",
"!#	c #85795A",
"~#	c #9E8B68",
"{#	c #A9DF51",
"]#	c #397936",
"^#	c #63C446",
"/#	c #48A53E",
"(#	c #81CE4A",
"_#	c #498238",
":#	c #478D3A",
"<#	c #5DBC44",
"[#	c #3C9A3B",
"}#	c #48A63E",
"|#	c #5ABA43",
"1#	c #728C4F",
"2#	c #3F8438",
"3#	c #225230",
"4#	c #98C94B",
"5#	c #3B8B3C",
"6#	c #4CAA3F",
"7#	c #6CB744",
"8#	c #1D3E2E",
"9#	c #90B647",
"0#	c #9FD34D",
"a#	c #275D3B",
"b#	c #2D703B",
"c#	c #60C045",
"d#	c #7C9A44",
"e#	c #8D7F5F",
"f#	c #283E31",
"g#	c #9CD94E",
"h#	c #51AF40",
"i#	c #4D9F3D",
"j#	c #204735",
"k#	c #20412F",
"l#	c #4DAA3F",
"m#	c #50A13E",
"n#	c #1F4433",
"o#	c #4FA33E",
"p#	c #7AC547",
"q#	c #9EC74B",
"r#	c #2A5831",
"s#	c #368337",
"t#	c #70AD42",
"u#	c #63B141",
"v#	c #8CD24C",
"w#	c #266032",
"x#	c #77BB45",
"y#	c #409B3B",
"z#	c #83CF4A",
"A#	c #57A93F",
"B#	c #73B443",
"C#	c #328437",
"D#	c #659D48",
"E#	c #367135",
"F#	c #71B243",
"G#	c #A8DE51",
"H#	c #44753A",
"I#	c #4E9C3D",
"J#	c #85CF4B",
"K#	c #499D3C",
"L#	c #72B343",
"M#	c #6DC747",
"N#	c #408238",
"                                    .                           ",
"                + @ #           $ % & * =                       ",
"              - ; > , ' )     ! ~ , { ] ^ /                     ",
"            ( _ : , < [ } |   1 2 3 4 5 6 7                     ",
"            8 9 0 a b c d e f g h i j k l m   n o               ",
"            p q r s t g u v w x y z A B C D E F G H I           ",
"              J K L M N O P Q y R S P T U V W X Y Y Z `         ",
"               .  ..+.@.#.$.%.&.*.S =.-.;.>.s ,.'.).!.~.{.      ",
"            ].` ^./.(._.:.<.[.}.|.1.2.3.4.5.6.7.8.9.0.a.b.      ",
"        c.d.Y e.f.g.h.i.j.k.l.m.n.J J o.S p.q.r.  s.t.u.        ",
"      v.w.x.< y.z.A.N B.C.D.E.F.G.G.H.I.J.K.L.      M.          ",
"    N.O.P.Q.R.S.T.U.B V.W.X.Y.Z.`. +P .+V ++@+#+$+              ",
"    %+y ,.h &+*+=+-+;+>+,+4 '+)+!+~+{+]+W Z ^+/+/+(+_+          ",
"    %+y :+y <+[+    }+c Y , < |+1+2+3+4+5+6+7+4 8+9+0+a+        ",
"    b+y y c+d+e+  f+c g+a 4 h+i+j+, k+l+m+n+y V o+.+M p+        ",
"      q+@.r+s+  t+W u+; c w.!.v+w+, F x+y+z+A+B+C+y y D+E+      ",
"              f+F+G+H+I+J+K+L+M+N+O+P+2+Q+  R+S+T+4.4.U+V+      ",
"            . W+>.;.X+k Y+Z+`+ @.@c c c +@@@  D.#@:.:.:.$@      ",
"            %@y &@*@:.D+=@-@;@>@,@M c s '@)@    !@~@:.{@        ",
"            ;.]@^@:./@(@_@:@<@[@}@|@1@h 2@3@4@      5@          ",
"            6@7@8@9@0@  a@b@c@d@e@f@y y y 4.g@                  ",
"              h@i@j@    k@l@m@n@  o@D+y p@q@r@                  ",
"                        s@t@u@v@  w@^@B.x@y@                    ",
"              z@A@z@B@C@D@E@F@G@H@  I@J@:.K@                    ",
"              L@M@N@O@P@Q@M@R@S@T@      U@                      ",
"                V@W@X@Y@W@Z@`@ #.#  +#  @#+#                    ",
"              ##$#%#&#%#*#%#=#-#;#>#,#>#'#)#!#                  ",
"            ~#{#]#^#/#(#/#^#_#:#<#[#^#}#|#1#                    ",
"              2#3#4#5#6#5#7#8#9#0#a#[#b#c#d#e#                  ",
"              f#g#h#i#j#i#h#g#k#l#m#n#o#l#p#q#                  ",
"              r#s#t#u#v#u#t#s#w#x#y#z#A#B#C#D#                  ",
"                E#^#F#G#F#^#H#I#J#K#,#L#M#N#                    "};
