/* XPM */
static char *result[] = {
/* columns rows colors chars-per-pixel */
"32 32 9 1 ",
"  c #D8B174",
". c #22BBD2",
"X c #20D6C7",
"o c #63E9D1",
"O c #E1C190",
"+ c #E4D2AA",
"@ c #A6FCDB",
"# c #D5F2ED",
"$ c white",
/* pixels */
"OOOOOOO++++  @@...X...o@@XXXXXXX",
"OOOOO+++++ $@@XXXXXXXX...@oXXXXX",
"OO+++++++O @@XXXXXXXXXXXXXX@oXXX",
"++++++++O @@@XXXXXXXXXXXXXXX$$oo",
"+++++++O $@@XXXXXXXXXXXXXXX@o.XX",
"+++++OOO @XXXXXXXXXXXXXXXXoo.XXX",
"+++OOO  @@oXXXXXXXXXXXXXXXoXXXXX",
"+OOOO $$@@$ooo@@oXXXXXXXXooXXXXX",
"OOOO @@XX@XXX...o@@@oo$@@XXXXXXX",
"OO  @@Xo@XXXXXXXXXXX....o#XXXXXX",
"O $$@ooXXXXXXXXXXXXXXXXX.o@XXXXX",
"O @@@XXXXXXXXXXXXXXXXXXXXXoooo@@",
" @@@o@XXXXXXXXXXXXXXXXXX@@oXXX..",
"@@X...@XXXXXXXXXXXXXX@@ooXXXXXXX",
"@XXXXXoXXXXXXXXXXXXo@..XXXXXXXXX",
"XXXXXXXoXXXXXXXXXXoXXXXXXXXXXXXX",
"XXXXXX@@ooXXXXXXooXXXXXXXXXXXXXX",
"XXXXooX...o@@@ooXXXXXXXXXXXXXXXX",
"Xo@oXXXXXX..@o.XXXXXXXXXXXXXXXXX",
"oXXXXXXXXXXXXooXXXXXXXXXXXXXX@@o",
"XXXXXXXXXXXXXXoXXXXXXXXXXXXo@..X",
"XXXXXXXXXXXXXXX@oXXXXXXXoo@XXXXX",
"XXXXXXXXXXXXXXXo@@o@@oo$$@.XXXXX",
"XXXXXXXXXXXXXo@@...XX...o@oXXXXX",
"XXXXXXXXXXXXooXXXXXXXXXX...ooXXX",
"XXXXXXXXXX@@XXXXXXXXXXXXXXX.o@oX",
"oooo$@@@o@@XXXXXXXXXXXXXXXXXXX@@",
"XXX......@ooXXXXXXXXXXXXXXXXX@@.",
"XXXXXXXXX.ooXXXXXXXXXXXXXXXX@o.X",
"XXXXXXXXXXXo@XXXXXXXXXXXXXXooXXX",
"XXXXXXXXXXXXo@XXXXXXXXXXXXooXXXX",
"XXXXXXXXXXXXo@@oooo@@ooo@@XXXXXX"
};
