/* XPM */
static char * wall_one_two_xpm[] = {
"32 32 44 1",
" 	c #E1C190",
".	c #E4D2AA",
"+	c #000000",
"@	c #050A04",
"#	c #5EBC49",
"$	c #5AB546",
"%	c #060B04",
"&	c #5DBC49",
"*	c #63C74D",
"=	c #6AC955",
"-	c #EFFAED",
";	c #62C64C",
">	c #060C05",
",	c #72CC5E",
"'	c #EFF9ED",
")	c #5FC049",
"!	c #060D05",
"~	c #6CCA57",
"{	c #5DBB48",
"]	c #59B446",
"^	c #000100",
"/	c #69C954",
"(	c #62C74C",
"_	c #5BB646",
":	c #EEF9EC",
"<	c #5BB747",
"[	c #6DCB58",
"}	c #61C34C",
"|	c #070D05",
"1	c #61C44D",
"2	c #418D48",
"3	c #429048",
"4	c #61C34B",
"5	c #040804",
"6	c #3A8043",
"7	c #3E8948",
"8	c #418E48",
"9	c #429049",
"0	c #62C54D",
"a	c #5AB646",
"b	c #040905",
"c	c #428F48",
"d	c #62C44C",
"e	c #387B41",
"     ........         .....     ",
"      .........    ..  .......  ",
"       ..........  ..   ........",
".         ........       .......",
"..         ........    .   .....",
"...          .......         ...",
"...            ......          .",
"....     . ..   ......          ",
" ...       ..    ......         ",
"  ...     ++++++  .....         ",
"   ...   +@###$++  .....        ",
"    ....+%&*=-;$+   .....       ",
"  .  ...>&***,')++++ .....      ",
"      ..!*****~;{{]^+++.....    ",
"   .    !*****/'(**{{_++......  ",
"       +!******,:*****<+....... ",
"       >{*******[*****}+ .......",
".     +|1223**********4++ ......",
"..    562777889029*****a+   ....",
"...   b77777777877908c*d++   ...",
"....  b77777777777787788e+    ..",
"....     ..    ....            .",
"....     ..     ....  .  ..    .",
"....              ...    ..    .",
"....               ...          ",
".....              ...          ",
" ....               ...         ",
" .....              ...         ",
" ......        .    ...         ",
"  ......             ...        ",
"   ......            ...        ",
"    .......          ....       "};
