/* XPM */
static char * wall_down_xpm[] = {
"32 32 9 1",
" 	c #E1C190",
".	c #E4D2AA",
"+	c #D8B174",
"@	c #A6FCDB",
"#	c #FFFFFF",
"$	c #20D6C7",
"%	c #63E9D1",
"&	c #22BBD2",
"*	c #D5F2ED",
"   ......            ...        ",
"  ......             ...        ",
" ......        .    ...         ",
" .....              ...         ",
" ....               ...         ",
".....              ...          ",
"....               ...          ",
"....              ...    ..    .",
"....     ..     ....  .  ..    .",
"....     ..    ....            .",
"....          ....      .     ..",
"...          ...             ...",
"..          ...             ....",
"++    +++  ..++   ++    +++...++",
"@#++++##@++++##+++#@++++##@+++#@",
"@@@@@@@@@@@@@@@@@@@@@@@@@@@@@@@@",
"$$@@@@$$$@@@@%$@@@$$@@@@%$$@@@$$",
"$$$$$$$$$&&@%$$$$$$$$$$$$%$$$$$$",
"$$$$$$$%%@@$$$$$$$$$$$$$$@&&&$$$",
"&&$$$%@@$$$$$$$$$$$$$$$$$$@%%&&&",
"@@%%%%$$$$$$$$$$$$$$$$$$$$$@@@%%",
"$$$$$@%&$$$$$$$$$$$$$$$$$%%$$$$$",
"$$$$$$*%&&&&$$$$$$$$$$$@%$$$$$$$",
"$$$$$$$@@#%%@@@%&&&$$$@$$$$$$$$$",
"$$$$$%%$$$$$$$$%@@%%%#@$$$$$$$$$",
"$$$$$%$$$$$$$$$$$$$$$%&&$$$$$$$$",
"$$$&%%$$$$$$$$$$$$$$$$%%&$$$$$$$",
"$$&%@$$$$$$$$$$$$$$$$$$%%&&&&&$$",
"%%##$$$$$$$$$$$$$$$$$$%%%%@@@%%@",
"$$$%@$$$$$$$$$$$$$$$$%$$$$$$$$$$",
"$$$$$%@&&&$$$$$$$$$$%$$$$$$$$$$$",
"$$$$$$$@@%&&&$&&&$$@$$$$$$$$$$$$"};
