/* XPM */
static char *result[] = {
/* columns rows colors chars-per-pixel */
"32 32 9 1 ",
"  c #D8B174",
". c #22BBD2",
"X c #20D6C7",
"o c #63E9D1",
"O c #E1C190",
"+ c #E4D2AA",
"@ c #A6FCDB",
"# c #D5F2ED",
"$ c white",
/* pixels */
"XXXXXXXXXXXX@XX...X...o@@XXXXXXX",
"XXXXXXXXXXXoXXXXXXXXXX...@oXXXXX",
"XXXXXXXXXXoXXXXXXXXXXXXXXXX@oXXX",
"@oo@@@ooooXXXXXXXXXXXXXXXXXX$$oo",
"XX.....ooXXXXXXXXXXXXXXXXXX@o.XX",
"XXXXXXX.ooXXXXXXXXXXXXXXXXoo.XXX",
"XXXXXXXX..oXXXXXXXXXXXXXXXoXXXXX",
"XXXXXXXXX@$ooo@@oXXXXXXXXooXXXXX",
"XXXXXXXXX@XXX...o@@@oo$@@XXXXXXX",
"XXXXXXXo@XXXXXXXXXXX....o#XXXXXX",
"XXXXXooXXXXXXXXXXXXXXXXX.o@XXXXX",
"oo@@@XXXXXXXXXXXXXXXXXXXXXoooo@@",
"...oo@XXXXXXXXXXXXXXXXXX@@oXXX..",
"XXX...@XXXXXXXXXXXXXX@@ooXXXXXXX",
"XXXXXXoXXXXXXXXXXXXo@..XXXXXXXXX",
"XXXXXXXoXXXXXXXXXXoXXXXXXXXXXXXX",
"XXXXXX@@ooXXXXXXooXXXXXXXXXXXXXX",
"XXXXooX...o@@@ooXXXXXXXXXXXXXXX@",
"Xo@oXXXXXX..@o.XXXXXXXXXXXXXX@@@",
"oXXXXXXXXXXXXooXXXXXXXXXXXXX@@@ ",
"XXXXXXXXXXXXXXoXXXXXXXXXXXXo@$ +",
"XXXXXXXXXXXXXXX@oXXXXXXXoo@@@$ +",
"XXXXXXXXXXXXXXXo@@o@@oo$$@@@@ ++",
"XXXXXXXXXXXXXo@@...XX...@@$  +++",
"XXXXXXXXXXXXooXXXXXXXXXX@@ O++++",
"XXXXXXXXXX@@XXXXXXXXXXX@@@ O++++",
"oooo$@@@o@@XXXXXXXXXXX@@@ O+++++",
"XXX......@ooXXXXXXXX@@@@ OO++++O",
"XXXXXXXXX.ooXXXXXXX@@@$$ O+++++O",
"XXXXXXXXXXXo@XXXXXX@@@  O++++++O",
"XXXXXXXXXXXXo@XXXX@@  OO++++++OO",
"XXXXXXXXXXXXo@@oo@@$OOO++++++OOO"
};
