/* XPM */
static char *result[] = {
/* columns rows colors chars-per-pixel */
"32 32 9 1 ",
"  c #D8B174",
". c #22BBD2",
"X c #20D6C7",
"o c #63E9D1",
"O c #E1C190",
"+ c #E4D2AA",
"@ c #A6FCDB",
"# c #D5F2ED",
"$ c white",
/* pixels */
"XXXXXXXXXXXX@XX...X...o@@XXXXXXX",
"XXXXXXXXXXXoXXXXXXXXXX...@oXXXXX",
"XXXXXXXXXXoXXXXXXXXXXXXXXXX@oXXX",
"@oo@@@ooooXXXXXXXXXXXXXXXXXX$$oo",
"XX.....ooXXXXXXXXXXXXXXXXXX@o.XX",
"XXXXXXX.ooXXXXXXXXXXXXXXXXoo.XXX",
"XXXXXXXX..oXXXXXXXXXXXXXXXoXXXXX",
"XXXXXXXXX@$ooo@@oXXXXXXXXooXXXXX",
"XXXXXXXXX@XXX...o@@@oo$@@XXXXXXX",
"XXXXXXXo@XXXXXXXXXXX....o#XXXXXX",
"XXXXXooXXXXXXXXXXXXXXXXX.o@XXXXX",
"oo@@@XXXXXXXXXXXXXXXXXXXXXoooo@@",
"...oo@XXXXXXXXXXXXXXXXXX@@oXXX..",
"XXX...@XXXXXXXXXXXXXX@@ooXXXXXXX",
"XXXXXXoXXXXXXXXXXXXo@..XXXXXXXXX",
"XX@@@XXo@@@@XX@@@Xo@@@@XXX@@@@XX",
"@@@@@@@@@@@@@@@@@@@@@@@@@@@@@@@@",
"@$   @$$    @$   $$    @$$    $@",
"  +++   OOOO  OOO  ++OO   OOOO  ",
"++++OOOOOOOOOOOOO+++OOOOOOOOOO++",
"+++OOOOOOOOOOOOO+++OOOOOOOOOO+++",
"++OOOOO+OOOOOO++++OOOOOOOOOO++++",
"+OOOOOOOOOOOO++++OOOO++OOOOO++++",
"+OOOO++OO+OO++++OOOOO++OOOOO++++",
"+OOOO++OOOO+++OOOOOOOOOOOOOO++++",
"OOOOOOOOOO+++OOOOOOOOOOOOOOO++++",
"OOOOOOOOOO+++OOOOOOOOOOOOOO+++++",
"OOOOOOOOO+++OOOOOOOOOOOOOOO++++O",
"OOOOOOOOO+++OOOOOOOOOOOOOO+++++O",
"OOOOOOOOO+++OOOO+OOOOOOOO++++++O",
"OOOOOOOO+++OOOOOOOOOOOOO++++++OO",
"OOOOOOOO+++OOOOOOOOOOOO++++++OOO"
};
