/* XPM */
static char * wall_1_xpm[] = {
"32 32 44 1",
" 	c #E1C190",
".	c #E4D2AA",
"+	c #000000",
"@	c #5AB546",
"#	c #5EBC49",
"$	c #050A04",
"%	c #62C64C",
"&	c #EFFAED",
"*	c #6AC955",
"=	c #63C74D",
"-	c #5DBC49",
";	c #060B04",
">	c #5FC049",
",	c #EFF9ED",
"'	c #72CC5E",
")	c #060C05",
"!	c #000100",
"~	c #59B446",
"{	c #5DBB48",
"]	c #6CCA57",
"^	c #060D05",
"/	c #5BB646",
"(	c #62C74C",
"_	c #69C954",
":	c #5BB747",
"<	c #EEF9EC",
"[	c #61C34C",
"}	c #6DCB58",
"|	c #61C34B",
"1	c #429048",
"2	c #418D48",
"3	c #61C44D",
"4	c #070D05",
"5	c #5AB646",
"6	c #429049",
"7	c #62C54D",
"8	c #418E48",
"9	c #3E8948",
"0	c #3A8043",
"a	c #040804",
"b	c #62C44C",
"c	c #428F48",
"d	c #040905",
"e	c #387B41",
"     .....         ........     ",
"  .......  ..    .........      ",
"........   ..  ..........       ",
".......       ........         .",
".....   .    ........         ..",
"...         .......          ...",
".          ......            ...",
"          ......   .. .     ....",
"         ......    ..       ... ",
"         .....  ++++++     ...  ",
"        .....  ++@###$+   ...   ",
"       .....   +@%&*=-;+....    ",
"      ..... ++++>,'===-)...  .  ",
"    .....+++!~{{%]=====^..      ",
"  ......++/{{==(,_=====^    .   ",
" .......+:=====<'======^+       ",
"....... +[=====}======={)       ",
"...... ++|==========12234+     .",
"....   +5=====62768899920a    ..",
"...   ++b=c87699899999999d   ...",
"..    +e88998999999999999d  ....",
".            ....    ..     ....",
".    ..  .  ....     ..     ....",
".    ..    ...              ....",
"          ...               ....",
"          ...              .....",
"         ...               .... ",
"         ...              ..... ",
"         ...    .        ...... ",
"        ...             ......  ",
"        ...            ......   ",
"       ....          .......    "};
