/* XPM */
static char *result[] = {
/* columns rows colors chars-per-pixel */
"32 32 9 1 ",
"  c #D8B174",
". c #22BBD2",
"X c #20D6C7",
"o c #63E9D1",
"O c #E1C190",
"+ c #E4D2AA",
"@ c #A6FCDB",
"# c #D5F2ED",
"$ c white",
/* pixels */
"XXXXXXXXXXXX@XX...X...o@@XXXXXXX",
"XXXXXXXXXXXoXXXXXXXXXX...@oXXXXX",
"XXXXXXXXXXoXXXXXXXXXXXXXXXX@oXXX",
"@oo@@@ooooXXXXXXXXXXXXXXXXXX$$oo",
"XX.....ooXXXXXXXXXXXXXXXXXX@o.XX",
"XXXXXXX.ooXXXXXXXXXXXXXXXXoo.XXX",
"XXXXXXXX..oXXXXXXXXXXXXXXXoXXXXX",
"XXXXXXXXX@$ooo@@oXXXXXXXXooXXXXX",
"XXXXXXXXX@XXX...o@@@oo$@@XXXXXXX",
"XXXXXXXo@XXXXXXXXXXX....o#XXXXXX",
"XXXXXooXXXXXXXXXXXXXXXXX.o@XXXXX",
"oo@@@XXXXXXXXXXXXXXXXXXXXXoooo@@",
"...oo@XXXXXXXXXXXXXXXXXX@@oXXX..",
"XXX...@XXXXXXXXXXXXXX@@ooXXXXXXX",
"XXXXXXoXXXXXXXXXXXXo@..XXXXXXXXX",
"XXXXXXXoXXXXXXXXXXoXXXXXXXXXXXXX",
"XXXXXX@@ooXXXXXXooXXXXXXXXXXXXXX",
"@XXXooX...o@@@ooXXXXXXXXXXXXXXXX",
"@@@oXXXXXX..@o.XXXXXXXXXXXXXXXXX",
"$$@@XXXXXXXXXooXXXXXXXXXXXXXX@@o",
"  @@@XXXXXXXXXoXXXXXXXXXXXXo@..X",
"++ @@XXXXXXXXXX@oXXXXXXXoo@XXXXX",
"+OO @@XXXXXXXXXo@@o@@oo$$@.XXXXX",
"+OO $@@@XXXXXo@@...XX...o@oXXXXX",
"+OOO  @@@XXXooXXXXXXXXXX...ooXXX",
"OOOOOO $@X@@XXXXXXXXXXXXXXX.o@oX",
"OOOOOOO @@@XXXXXXXXXXXXXXXXXXX@@",
"OOOOOOO @@@@XXXXXXXXXXXXXXXXX@@.",
"OOOOOOOO $$@@XXXXXXXXXXXXXXX@o.X",
"OOOOOOOOO  @@XXXXXXXXXXXXXXooXXX",
"OOOOOOOO+++ @@XXXXXXXXXXXXooXXXX",
"OOOOOOOO+++O @@oooo@@ooo@@XXXXXX"
};
