/* XPM */
static char * tree_moove2_xpm[] = {
"32 32 597 2",
"  	c #E1C190",
". 	c #E4D2AA",
"+ 	c #E2D1A9",
"@ 	c #DCBE8D",
"# 	c #DBBE8C",
"$ 	c #DDBF8E",
"% 	c #E0C190",
"& 	c #DFC08F",
"* 	c #DCC08D",
"= 	c #D1C99B",
"- 	c #C9C395",
"; 	c #D8CCA1",
"> 	c #DFCFA6",
", 	c #E3D2A9",
"' 	c #D3BB87",
") 	c #BFB27A",
"! 	c #B7BA87",
"~ 	c #C3C190",
"{ 	c #D5BC88",
"] 	c #DEC08E",
"^ 	c #E0C08F",
"/ 	c #D2CA9C",
"( 	c #BFC78B",
"_ 	c #AAC476",
": 	c #9EBE6E",
"< 	c #B1C181",
"[ 	c #C5C492",
"} 	c #DBCDA3",
"| 	c #E3D1A9",
"1 	c #D4BD88",
"2 	c #B4B673",
"3 	c #8EB158",
"4 	c #83B653",
"5 	c #9BC065",
"6 	c #AFB96A",
"7 	c #C1B67A",
"8 	c #DACCA2",
"9 	c #D3C89D",
"0 	c #A9BC7C",
"a 	c #8FC35B",
"b 	c #8CCC4B",
"c 	c #85CA47",
"d 	c #80C04F",
"e 	c #92B369",
"f 	c #C2BE91",
"g 	c #DFCEA7",
"h 	c #D8BC8A",
"i 	c #B5B374",
"j 	c #89B655",
"k 	c #7AC240",
"l 	c #84CC3D",
"m 	c #8ECF43",
"n 	c #8BC548",
"o 	c #90B660",
"p 	c #B9BA88",
"q 	c #B5BB88",
"r 	c #88BB5D",
"s 	c #7BC73E",
"t 	c #87D13E",
"u 	c #87D03E",
"v 	c #72C339",
"w 	c #60A43D",
"x 	c #A4A26B",
"y 	c #D3B887",
"z 	c #DDBF8D",
"A 	c #CCB583",
"B 	c #94AB70",
"C 	c #64AD3F",
"D 	c #74C53A",
"E 	c #88D13E",
"F 	c #85D03E",
"G 	c #79C93C",
"H 	c #67B53C",
"I 	c #7CA25B",
"J 	c #81A562",
"K 	c #6AB548",
"L 	c #66C038",
"M 	c #72C63A",
"N 	c #5FB338",
"O 	c #469038",
"P 	c #939961",
"Q 	c #BCB377",
"R 	c #B8B472",
"S 	c #C4B77B",
"T 	c #D7BE89",
"U 	c #CCB483",
"V 	c #8F9760",
"W 	c #54943E",
"X 	c #58AD37",
"Y 	c #6EC23A",
"Z 	c #6EC539",
"` 	c #5EBD36",
" .	c #48AF33",
"..	c #429A39",
"+.	c #44973B",
"@.	c #41A735",
"#.	c #42AE32",
"$.	c #4EB434",
"%.	c #4CAD35",
"&.	c #389537",
"*.	c #378437",
"=.	c #789E4E",
"-.	c #95BA58",
";.	c #91BF4F",
">.	c #9BBE58",
",.	c #AAB869",
"'.	c #C2B67B",
").	c #DCCEA4",
"!.	c #D7BA8A",
"~.	c #AE9E72",
"{.	c #6E8050",
"].	c #518C40",
"^.	c #50A63B",
"/.	c #50B336",
"(.	c #3EAA33",
"_.	c #2C9E34",
":.	c #209731",
"<.	c #1D9630",
"[.	c #219B31",
"}.	c #249A33",
"|.	c #2CA132",
"1.	c #289934",
"2.	c #1F8935",
"3.	c #2C9133",
"4.	c #56AC39",
"5.	c #74C23E",
"6.	c #81CB3E",
"7.	c #84C941",
"8.	c #81BF47",
"9.	c #93B459",
"0.	c #BFC08D",
"a.	c #DCCDA4",
"b.	c #DEBF8E",
"c.	c #C2AB7E",
"d.	c #8B865F",
"e.	c #7D8D63",
"f.	c #598E4B",
"g.	c #369937",
"h.	c #249934",
"i.	c #1C8F36",
"j.	c #1A8B37",
"k.	c #198E36",
"l.	c #1B8A36",
"m.	c #1C8637",
"n.	c #1A9334",
"o.	c #1A9034",
"p.	c #1A9033",
"q.	c #259D30",
"r.	c #3FAE31",
"s.	c #59BB35",
"t.	c #64BC38",
"u.	c #61B838",
"v.	c #5FB538",
"w.	c #65B143",
"x.	c #89AA65",
"y.	c #C0B88F",
"z.	c #E0CEA7",
"A.	c #D1BB85",
"B.	c #AFAC6F",
"C.	c #829D5E",
"D.	c #7A995C",
"E.	c #508545",
"F.	c #268038",
"G.	c #1C8239",
"H.	c #1A7F3B",
"I.	c #1B7A3B",
"J.	c #1C7A3A",
"K.	c #1E723A",
"L.	c #1E703A",
"M.	c #1B8037",
"N.	c #1A8437",
"O.	c #198D34",
"P.	c #1A9B31",
"Q.	c #29A231",
"R.	c #3AA135",
"S.	c #47993B",
"T.	c #4D8D3D",
"U.	c #3C8935",
"V.	c #439438",
"W.	c #6C9A53",
"X.	c #B2AD85",
"Y.	c #DCBD8D",
"Z.	c #E0C18F",
"`.	c #D6BD89",
" +	c #BBB577",
".+	c #A7B767",
"++	c #8EBA50",
"@+	c #7DBB42",
"#+	c #6DB23F",
"$+	c #439A37",
"%+	c #218337",
"&+	c #1D763B",
"*+	c #1D703C",
"=+	c #1F683B",
"-+	c #1F5F39",
";+	c #215B39",
">+	c #215A39",
",+	c #206339",
"'+	c #1E6D38",
")+	c #1A8237",
"!+	c #159533",
"~+	c #218F35",
"{+	c #488440",
"]+	c #808C59",
"^+	c #959164",
"/+	c #556F4B",
"(+	c #587C4C",
"_+	c #98A274",
":+	c #CCB383",
"<+	c #D5BC89",
"[+	c #B3B273",
"}+	c #85B152",
"|+	c #7DC042",
"1+	c #87CC41",
"2+	c #88CF3E",
"3+	c #72C33A",
"4+	c #47AB34",
"5+	c #249335",
"6+	c #1C7D3A",
"7+	c #206C39",
"8+	c #215C35",
"9+	c #1F4E33",
"0+	c #1E4733",
"a+	c #1E4433",
"b+	c #1D4C33",
"c+	c #1D6633",
"d+	c #229932",
"e+	c #399238",
"f+	c #738C50",
"g+	c #B6A876",
"h+	c #C6BB94",
"i+	c #A8A07F",
"j+	c #9A9676",
"k+	c #CBB283",
"l+	c #D9BC8B",
"m+	c #B4AB74",
"n+	c #77A44F",
"o+	c #5BB438",
"p+	c #6BC338",
"q+	c #75C73A",
"r+	c #71C33A",
"s+	c #59B237",
"t+	c #369C35",
"u+	c #1F8936",
"v+	c #257E38",
"w+	c #388B38",
"x+	c #3F8E33",
"y+	c #2F752F",
"z+	c #21582E",
"A+	c #1E512E",
"B+	c #1B602E",
"C+	c #208730",
"D+	c #2F9F32",
"E+	c #42AC33",
"F+	c #59B138",
"G+	c #78B14D",
"H+	c #9BB76C",
"I+	c #B0B980",
"J+	c #CBC297",
"K+	c #CAB182",
"L+	c #DDBE8E",
"M+	c #D3B988",
"N+	c #9AA065",
"O+	c #499C39",
"P+	c #40AE31",
"Q+	c #4BB433",
"R+	c #49AF34",
"S+	c #4BA33A",
"T+	c #559547",
"U+	c #4C7E3F",
"V+	c #347034",
"W+	c #3C8932",
"X+	c #5DB137",
"Y+	c #72BF3A",
"Z+	c #5CAE36",
"`+	c #3E9331",
" @	c #3C9030",
".@	c #389331",
"+@	c #34A133",
"@@	c #39A933",
"#@	c #53B834",
"$@	c #71C639",
"%@	c #85CC3F",
"&@	c #8BC946",
"*@	c #8FC555",
"=@	c #95B65C",
"-@	c #ADAB6F",
";@	c #DACCA3",
">@	c #D2B987",
",@	c #99A974",
"'@	c #3E9A3A",
")@	c #2BA530",
"!@	c #2DA331",
"~@	c #239132",
"{@	c #5C8A4F",
"]@	c #9C9968",
"^@	c #A19D69",
"/@	c #6F9949",
"(@	c #5EB037",
"_@	c #7BC93C",
":@	c #8CD33F",
"<@	c #7AC63C",
"[@	c #5AB337",
"}@	c #64BB37",
"|@	c #69BE38",
"1@	c #5BB538",
"2@	c #3FA436",
"3@	c #46AA34",
"4@	c #67BC37",
"5@	c #7ECA3C",
"6@	c #81CE3D",
"7@	c #77C83C",
"8@	c #6DBC3D",
"9@	c #76A94D",
"0@	c #B1AC73",
"a@	c #DBBE8D",
"b@	c #D6C9A0",
"c@	c #A0AD79",
"d@	c #4D9B44",
"e@	c #199B2F",
"f@	c #1A9133",
"g@	c #2A7738",
"h@	c #787E55",
"i@	c #ABA16F",
"j@	c #99AC62",
"k@	c #6EB442",
"l@	c #70C539",
"m@	c #83D03D",
"n@	c #88D23E",
"o@	c #71C23B",
"p@	c #59B239",
"q@	c #76C63C",
"r@	c #8BD33F",
"s@	c #7CC83D",
"t@	c #53A637",
"u@	c #319033",
"v@	c #3A9D33",
"w@	c #4FB034",
"x@	c #59BA35",
"y@	c #54B934",
"z@	c #48B233",
"A@	c #5AAB46",
"B@	c #9DAA67",
"C@	c #D3BA88",
"D@	c #E0C090",
"E@	c #E0CFA7",
"F@	c #C4C093",
"G@	c #8EAC6E",
"H@	c #649F54",
"I@	c #5E8F52",
"J@	c #758055",
"K@	c #939262",
"L@	c #8EA55C",
"M@	c #69AF44",
"N@	c #5ABB36",
"O@	c #64C337",
"P@	c #6AC638",
"Q@	c #68C337",
"R@	c #53AD36",
"S@	c #469E36",
"T@	c #6FBE3A",
"U@	c #85CF3D",
"V@	c #67B637",
"W@	c #55903D",
"X@	c #4E8641",
"Y@	c #359637",
"Z@	c #31A531",
"`@	c #2DA630",
" #	c #24A330",
".#	c #2A9B33",
"+#	c #67914C",
"@#	c #B1A274",
"##	c #DABC8C",
"$#	c #DECFA6",
"%#	c #CDC69A",
"&#	c #BEBE8F",
"*#	c #B6A877",
"=#	c #ACA271",
"-#	c #92A55E",
";#	c #64A843",
">#	c #41B032",
",#	c #4AB533",
"'#	c #52BB34",
")#	c #4DB034",
"!#	c #3C8A32",
"~#	c #368332",
"{#	c #59B036",
"]#	c #75C93A",
"^#	c #78CC3B",
"/#	c #6AC138",
"(#	c #7CAB4F",
"_#	c #8B945E",
":#	c #67874D",
"<#	c #348E38",
"[#	c #1F9833",
"}#	c #189733",
"|#	c #178E35",
"1#	c #518345",
"2#	c #A59B6E",
"3#	c #D7BC8A",
"4#	c #ACAD6E",
"5#	c #69A547",
"6#	c #36A431",
"7#	c #269E32",
"8#	c #269C34",
"9#	c #32A533",
"0#	c #3AA732",
"a#	c #3F9030",
"b#	c #43662E",
"c#	c #3A712F",
"d#	c #42A432",
"e#	c #5ABF35",
"f#	c #63C437",
"g#	c #5FC137",
"h#	c #6DB345",
"i#	c #99A464",
"j#	c #A0966A",
"k#	c #6D8350",
"l#	c #2D7F3A",
"m#	c #1E813C",
"n#	c #257C3D",
"o#	c #627F4E",
"p#	c #AE9F73",
"q#	c #DBCBA4",
"r#	c #CDB884",
"s#	c #8FA65E",
"t#	c #439D38",
"u#	c #198C38",
"v#	c #1E893A",
"w#	c #258F37",
"x#	c #3D8733",
"y#	c #546B30",
"z#	c #544B2A",
"A#	c #3E622A",
"B#	c #33962F",
"C#	c #47B433",
"D#	c #52BD34",
"E#	c #51BB34",
"F#	c #46AE34",
"G#	c #85A65A",
"H#	c #BBAB79",
"I#	c #AE9C72",
"J#	c #788356",
"K#	c #517C48",
"L#	c #62804F",
"M#	c #A29A6C",
"N#	c #D3C59E",
"O#	c #CFBA85",
"P#	c #8FA561",
"Q#	c #3E923E",
"R#	c #198639",
"S#	c #1A7C3C",
"T#	c #3A7D43",
"U#	c #547B45",
"V#	c #6C6E3D",
"W#	c #83683D",
"X#	c #745533",
"Y#	c #55562D",
"Z#	c #327E30",
"`#	c #32A332",
" $	c #41B132",
".$	c #3EAF31",
"+$	c #31A631",
"@$	c #569843",
"#$	c #A39F6B",
"$$	c #CFB385",
"%$	c #CDB284",
"&$	c #B2A074",
"*$	c #AE9D72",
"=$	c #D2C49D",
"-$	c #D6CAA0",
";$	c #9FA26B",
">$	c #568249",
",$	c #2E703E",
"'$	c #3B7142",
")$	c #7D875B",
"!$	c #A3956A",
"~$	c #8D7858",
"{$	c #8E6A42",
"]$	c #946C41",
"^$	c #856D47",
"/$	c #697E49",
"($	c #34923A",
"_$	c #25A131",
":$	c #21A32F",
"<$	c #179C30",
"[$	c #318B37",
"}$	c #8F9161",
"|$	c #D4B788",
"1$	c #DCCBA4",
"2$	c #E2D0A8",
"3$	c #C4AE80",
"4$	c #958E66",
"5$	c #777A57",
"6$	c #86835E",
"7$	c #BCA77B",
"8$	c #CAB995",
"9$	c #937C5E",
"0$	c #825F3D",
"a$	c #8B653E",
"b$	c #987851",
"c$	c #A7996B",
"d$	c #558848",
"e$	c #159134",
"f$	c #149833",
"g$	c #1B9335",
"h$	c #528A46",
"i$	c #A39A6C",
"j$	c #D8BB8B",
"k$	c #DEBE8E",
"l$	c #D1C19C",
"m$	c #C7AD81",
"n$	c #CCB184",
"o$	c #DDCCA5",
"p$	c #D6C39D",
"q$	c #A38763",
"r$	c #886440",
"s$	c #805C39",
"t$	c #90714D",
"u$	c #B19A70",
"v$	c #7F8B5A",
"w$	c #408542",
"x$	c #2E883F",
"y$	c #338541",
"z$	c #7B8E5A",
"A$	c #CAB283",
"B$	c #D7C49D",
"C$	c #9F7E57",
"D$	c #977046",
"E$	c #8B673F",
"F$	c #85633F",
"G$	c #947C58",
"H$	c #B7A477",
"I$	c #8B9362",
"J$	c #798E59",
"K$	c #61804E",
"L$	c #A29A6D",
"M$	c #DABD8C",
"N$	c #D3B486",
"O$	c #947652",
"P$	c #8A653F",
"Q$	c #8E673E",
"R$	c #8C653E",
"S$	c #91724E",
"T$	c #D1B485",
"U$	c #BEAC7C",
"V$	c #A4996D",
"W$	c #CDB384",
"X$	c #D3B485",
"Y$	c #957753",
"Z$	c #83613C",
"`$	c #835E39",
" %	c #845E3A",
".%	c #8C6D49",
"+%	c #C3A67A",
"@%	c #DFBF8E",
"#%	c #D3B788",
"$%	c #A08058",
"%%	c #956F45",
"&%	c #8F6940",
"*%	c #87623C",
"=%	c #87643F",
"-%	c #A48660",
";%	c #D6B788",
">%	c #D2B385",
",%	c #9E805A",
"'%	c #967046",
")%	c #9D7447",
"!%	c #9C7346",
"~%	c #956E43",
"{%	c #9A784F",
"]%	c #C3A478",
"^%	c #D5B688",
"/%	c #AC9069",
"(%	c #906F4A",
"_%	c #8F6A42",
":%	c #946D42",
"<%	c #956D42",
"[%	c #946F46",
"}%	c #AC8E65",
"|%	c #D7B889",
"1%	c #CFB083",
"2%	c #AD8F68",
"3%	c #8E6E4A",
"4%	c #8A6742",
"5%	c #8D6943",
"6%	c #95734D",
"7%	c #B6976D",
"8%	c #D9B98A",
"9%	c #B6986F",
"0%	c #AC8D66",
"a%	c #B89970",
"b%	c #D1B283",
"c%	c #D8B98A",
"d%	c #D5B687",
"e%	c #D5B587",
"f%	c #D8B889",
"          . . . . + @ # $ %       & * = - ; > . . . .           ",
"    . . . . . . , ' ) ! ~ { ] % ^ / ( _ : < [ } | .             ",
". . . . . . . | 1 2 3 4 5 6 7 8 9 0 a b c d e f g               ",
". . . . . . . h i j k l m n o p q r s t u v w x y # z %       . ",
". . . . .     A B C D E F G H I J K L M D N O P Q R S T ] % . . ",
". . .         U V W X Y Z `  ...+.@.#.$.%.&.*.=.-.;.>.,.'.).. . ",
".             !.~.{.].^./.(._.:.<.[.}.|.1.2.3.4.5.6.7.8.9.0.a.. ",
"              b.c.d.e.f.g.h.i.j.k.l.m.n.o.p.q.r.s.t.u.v.w.x.y.z.",
"          ^ # A.B.C.D.E.F.G.H.I.J.K.L.M.N.O.P.Q.R.S.T.U.V.W.X.Y.",
"        Z.`. +.+++@+#+$+%+&+*+=+-+;+>+,+'+)+!+~+{+]+^+/+(+_+:+& ",
"      ^ <+[+}+|+1+2+3+4+5+6+7+8+9+0+a+b+c+2.d+e+f+g+h+i+j+k+b.  ",
"      l+m+n+o+p+q+r+s+t+u+v+w+x+y+z+A+B+C+D+E+F+G+H+I+J+K+L+    ",
"      M+N+O+P+Q+R+S+T+U+V+W+X+Y+Z+`+ @.@+@@@#@$@%@&@*@=@-@;@%   ",
"      >@,@'@)@!@~@{@]@^@/@(@_@:@<@[@}@|@1@2@3@4@5@6@7@8@9@0@a@  ",
"    . b@c@d@e@f@g@h@i@j@k@l@m@n@o@p@q@r@s@t@u@v@w@x@y@z@A@B@C@D@",
"  . . E@F@G@H@I@J@K@L@M@N@O@P@Q@R@S@T@:@U@V@W@X@Y@Z@`@ #.#+#@###",
". . . . $#%#&#*#=#-#;#E+>#,#'#)#!#~#{#]#^#/#(#_#:#<#[#}#|#1#2#!.",
". . . . . .   3#4#5#6#7#8#9#0#a#b#c#d#e#f#g#h#i#j#k#l#m#n#o#p#q#",
". . . .       r#s#t#[#u#v#w#x#y#z#A#B#C#D#E#F#G#H#I#J#K#L#M#N#+ ",
". . .         O#P#Q#R#S#T#U#V#W#X#Y#Z#`# $.$+$@$#$$$%$&$*$=$+ . ",
". .           -$;$>$,$'$)$!$~${$]$^$/$($_$:$<$[$}$|$^ ##1$2$. . ",
".             @ 3$4$5$6$7$8$9$0$a$b$c$d$e$f$g$h$i$j$    . . . . ",
".         . .   k$l$m$n$o$p$q$r$s$t$u$v$w$x$y$z$A$&     . . . . ",
".         . .         | | B$C$D$E$F$G$H$I$J$K$L$M$      . . . . ",
"                    . . | N$O$P$Q$R$S$T$A$U$V$W$&       . . . . ",
"                    . . | X$Y$Z$`$ %.%+%@%k$#%^       . . . . . ",
"                  . . .   X$$%%%&%*%=%-%;%D@          . . . .   ",
"                  . . .   >%,%'%)%!%~%{%]%Y.        . . . . .   ",
"                  . . .   ^%/%(%_%:%<%[%}%|%      . . . . . .   ",
"                . . .     @%1%2%3%4%5%6%7%8%    . . . . . .     ",
"                . . .       @%1%9%0%0%a%b%@%  . . . . . .       ",
"              . . . .         k$c%d%e%f%@%. . . . . . .         "};
