/* XPM */
static char *result[] = {
/* columns rows colors chars-per-pixel */
"32 32 9 1 ",
"  c #D8B174",
". c #22BBD2",
"X c #20D6C7",
"o c #63E9D1",
"O c #E1C190",
"+ c #E4D2AA",
"@ c #A6FCDB",
"# c #D5F2ED",
"$ c white",
/* pixels */
"XXXXXXXXXXXX@XX..@@ O+++++++OOOO",
"XXXXXXXXXXXoXXXXXX@$ ++++++OOOOO",
"XXXXXXXXXXoXXXXXXX@@$ ++++OOOOOO",
"@oo@@@ooooXXXXXXXXX@@@ ++OOOOOOO",
"XX.....ooXXXXXXXXXXXX@@ OOOOOOO+",
"XXXXXXX.ooXXXXXXXXXXXX@@ OOOOO++",
"XXXXXXXX..oXXXXXXXXXXX@@ OOOO+++",
"XXXXXXXXX@$ooo@@oXXXXXX@$$ OO+++",
"XXXXXXXXX@XXX...o@@@oo$@@@ O++++",
"XXXXXXXo@XXXXXXXXXXX....o#@@ ++O",
"XXXXXooXXXXXXXXXXXXXXXXX.o@@$ OO",
"oo@@@XXXXXXXXXXXXXXXXXXXXXo@@$ O",
"...oo@XXXXXXXXXXXXXXXXXX@@oX@@@ ",
"XXX...@XXXXXXXXXXXXXX@@ooXXXXX@@",
"XXXXXXoXXXXXXXXXXXXo@..XXXXXXXX@",
"XXXXXXXoXXXXXXXXXXoXXXXXXXXXXXXX",
"XXXXXX@@ooXXXXXXooXXXXXXXXXXXXXX",
"XXXXooX...o@@@ooXXXXXXXXXXXXXXXX",
"Xo@oXXXXXX..@o.XXXXXXXXXXXXXXXXX",
"oXXXXXXXXXXXXooXXXXXXXXXXXXXX@@o",
"XXXXXXXXXXXXXXoXXXXXXXXXXXXo@..X",
"XXXXXXXXXXXXXXX@oXXXXXXXoo@XXXXX",
"XXXXXXXXXXXXXXXo@@o@@oo$$@.XXXXX",
"XXXXXXXXXXXXXo@@...XX...o@oXXXXX",
"XXXXXXXXXXXXooXXXXXXXXXX...ooXXX",
"XXXXXXXXXX@@XXXXXXXXXXXXXXX.o@oX",
"oooo$@@@o@@XXXXXXXXXXXXXXXXXXX@@",
"XXX......@ooXXXXXXXXXXXXXXXXX@@.",
"XXXXXXXXX.ooXXXXXXXXXXXXXXXX@o.X",
"XXXXXXXXXXXo@XXXXXXXXXXXXXXooXXX",
"XXXXXXXXXXXXo@XXXXXXXXXXXXooXXXX",
"XXXXXXXXXXXXo@@oooo@@ooo@@XXXXXX"
};
