/* XPM */
static char *result[] = {
/* columns rows colors chars-per-pixel */
"32 32 190 2 ",
"   c #0C0C0E",
".  c #0E0F10",
"X  c #1C0B14",
"o  c #1E021E",
"O  c #170718",
"+  c #121214",
"@  c #191719",
"#  c #21170F",
"$  c #23061C",
"%  c #260B1F",
"&  c #28081F",
"*  c #27181A",
"=  c #30181F",
"-  c #30201E",
";  c #270C23",
":  c #2B0D23",
">  c #2A0B26",
",  c #300F21",
"<  c #2E1126",
"1  c #231823",
"2  c #311329",
"3  c #321C27",
"4  c #271F31",
"5  c #3B1C31",
"6  c #341D31",
"7  c #24242A",
"8  c #2B242E",
"9  c #392325",
"0  c #3E2A25",
"q  c #392326",
"w  c #2D2E3C",
"e  c #2C2A36",
"r  c #3E2833",
"t  c #2E3338",
"y  c #5C0B0B",
"u  c #49251B",
"i  c #421C2A",
"p  c #412D25",
"a  c #4D2C24",
"s  c #43242C",
"d  c #472428",
"f  c #552E24",
"g  c #4A332A",
"h  c #493528",
"j  c #593125",
"k  c #5B352B",
"l  c #553027",
"z  c #432533",
"x  c #462A34",
"c  c #44243A",
"v  c #4A293E",
"b  c #482839",
"n  c #532C34",
"m  c #4D3938",
"M  c #443532",
"N  c #563535",
"B  c #5C3633",
"V  c #56393C",
"C  c #5C3C3B",
"Z  c #563738",
"A  c #7C2A24",
"S  c #623728",
"D  c #663639",
"F  c #75343E",
"G  c #5F4633",
"H  c #62433B",
"J  c #6E473C",
"K  c #664435",
"L  c #79483A",
"P  c #7E583A",
"I  c #3C2D42",
"U  c #2E3348",
"Y  c #4F3840",
"T  c #5B3C45",
"R  c #5A3D48",
"E  c #643B43",
"W  c #603D4C",
"Q  c #5E4544",
"!  c #464950",
"~  c #56525B",
"^  c #684547",
"/  c #774944",
"(  c #7D4B44",
")  c #724B4A",
"_  c #794B4B",
"`  c #7F5146",
"'  c #7D514F",
"]  c #775A4B",
"[  c #7A5749",
"{  c #6B4B52",
"}  c #724D52",
"|  c #764A57",
" . c #785258",
".. c #66625C",
"X. c #4C4A68",
"o. c #554E60",
"O. c #545663",
"+. c #5B5A6C",
"@. c #575270",
"#. c #7F5263",
"$. c #63616C",
"%. c #716468",
"&. c #6B7076",
"*. c #78757C",
"=. c #861915",
"-. c #831E19",
";. c #8D2525",
":. c #813D34",
">. c #814D45",
",. c #8C5645",
"<. c #83524C",
"1. c #8C594E",
"2. c #895548",
"3. c #945D47",
"4. c #955D4F",
"5. c #9F5F48",
"6. c #805555",
"7. c #965F50",
"8. c #80654E",
"9. c #9F644C",
"0. c #95754E",
"q. c #9C794F",
"w. c #8D6455",
"e. c #836152",
"r. c #996452",
"t. c #976854",
"y. c #987951",
"u. c #A4664D",
"i. c #A76C4F",
"p. c #A6714E",
"a. c #AA754F",
"s. c #AA6D51",
"d. c #A0665B",
"f. c #AE7456",
"g. c #AA7659",
"h. c #B67757",
"j. c #865962",
"k. c #8B606F",
"l. c #94636C",
"z. c #966667",
"x. c #8C7C76",
"c. c #AC7F64",
"v. c #B97D64",
"b. c #A06D70",
"n. c #A37076",
"m. c #BB7A72",
"M. c #C17E65",
"N. c #AA8359",
"B. c #A2805B",
"V. c #B4865C",
"C. c #AF8065",
"Z. c #BA8B65",
"A. c #C1835F",
"S. c #C2846B",
"D. c #CA946E",
"F. c #D69A6E",
"G. c #DF9F6E",
"H. c #C28A73",
"J. c #CB9475",
"K. c #D3A26E",
"L. c #D8A273",
"P. c #E6AB76",
"I. c #EDB37A",
"U. c #827788",
"Y. c #9A7685",
"T. c #B37E85",
"R. c #B37D8A",
"E. c #9B989F",
"W. c #B9828D",
"Q. c #AC8690",
"!. c #9293A1",
"~. c #ABADBD",
"^. c #B0AFB4",
"/. c #AAB0BF",
"(. c #C98D8E",
"). c #C48D80",
"_. c #C9918D",
"`. c #CE8F93",
"'. c #C69194",
"]. c #DDA68A",
"[. c #AAB1C0",
"{. c #BEC2CE",
"}. c #B6C4D6",
"|. c #D9CFC2",
" X c #D0D1CB",
".X c #C8CED6",
"XX c #E6D3DA",
"oX c #DBE1DF",
"OX c #E9ECEC",
"+X c None",
/* pixels */
"+X+X+X+X+X+X+X+X+X+X+X+X+X+X+X+X+X+X+X+X+X+X+X+X+X+X+X+X+X+X+X+X",
"+X+X+X+X+X+X+X+X+X+X+X+X+X+X+X+X+X+X+X+X+X+X+X+X+X+X+X+X+X+X+X+X",
"+X+X+X+X+X+X+X+X+X+X+X+X+X+X+X+X+X+X+X+X+X+X+X+X+X+X+X+X+X+X+X+X",
"+X+X+X+X+X+X+X+X+X+X+X+X+X+X+X+X+X+X+X+X+X+X+X+X+X+X+X+X+X+X+X+X",
"+X+X+X+X+X+X+X+X+X+X+X+X+X+X+X+X+X+X+X+X+X+X+XH / +X+X+X+X+X+X+X",
"+X+X+X+X+X+X+X+X+X+X+X+X+X+X+X+X+X+X+X- * - 0 m.K.+X+X+X+X+X+X+X",
"+X+X+X+X+X+X+X+X+X+X+X+X+X+X+X+X+XV Z _._.(./ P.m +X+X+X+X+X+X+X",
"+X+X+X+X+X+X+X+X+X+X+X+X+X+X+X# e.W.`.w.9.r.z m t.G +X+X+X+X+X+X",
"+X+X+X+X+X+X+X+X+X+X+X+X+X+X0 0.)./ a u x x p % W.R.# +X+X+X+X+X",
"+X+X+X+X+X+X+X+X+X+X+X+X+Xh V.C.T Z 3 z v n j 1 <.R.# +X+X+X+X+X",
"+X+X+X+X+X+X+X+X+X+X+X+XO.p.n.T T f r z l T T 3 z T.# +X+X+X+X+X",
"+X+X+X+X+X+X+X+X+X+X+XX.q.` N T T T Y k T Q f : s T.# +X+X+X+X+X",
"+X+X+X+X+X+X+X+X+X+X8 g.] l j N ^ { _ ) T V Y > #.z.X +X+X+X+X+X",
"+X+X+X+X+X+X+X+X+X+Xi.] b j T / ' 2.E c 2 1 > $ _.K +X+X+X+X+X+X",
"+X+X+X+X+X+X+X+X+X| Y.| f.q V ( D d L 2.g s 2 k.b.; +X+X+X+X+X+X",
"+X+X+X+X+X+X+X+Xm z. X<.f.h.P 5 r 1.7.7.r.' > ].G 7 +X+X+X+X+X+X",
"+X+X+X+X+X+X+Xh A -.*.D 2 J.v.y.L v 1.r.r.k f.1.8 }.e +X+X+X+X+X",
"+X+X+X+X+X+XO 5.=.;.& F < o } m.V.a.H D C w.S.w OX&.7 +X+X+X+X+X",
"+X+X+X+X+X+XJ r.XX) : oX$ 9 d 5 ' L.g.z.,.C.% /.~.! +X+X+X+X+X+X",
"+X+X+X+X+X+X2.Q.|.o.: =.< V R Q q < H. .D.I {.U.$.+X+X+X+X+X+X+X",
"+X+X+X+X+Xw A.J E.W k.y m ' _ { T B i F.b ; .X~ +X+X+X+X+X+X+X+X",
"+X+X+X+X+X9.] 9.s.:...I j )  . .) q P.p 2 +X8 +X+X+X+X+X+X+X+X+X",
"+X+X+X+Xt i.^ j.f.h.u.i a f S [ 0 v.M 1 +X+X+X+X+X+X+X+X+X+X+X+X",
"+X+X+X+ ~ P.,.o c ' F.f.` h 3 J Z.D 2 +X+X+X+X+X+X+X+X+X+X+X+X+X",
"+X+X+X@ !.t G.0.d < < H.y.7.N.W.; < +X+X+X+X+X+X+X+X+X+X+X+X+X+X",
"+X+X+X+X  + X d.Z.f.n s [ g.t.I $.U +X+X+X+X+X+X+X+X+X+X+X+X+X+X",
"+X+X+X+X+X+X+X2 z 6.I.].G I x.[.+.+X+X+X+X+X+X+X+X+X+X+X+X+X+X+X",
"+X+X+X+X+X+X+X+X> @ ; = x @.^.%.+X+X+X+X+X+X+X+X+X+X+X+X+X+X+X+X",
"+X+X+X+X+X+X+X+X+XX 2 6 OX*.X.. +X+X+X+X+X+X+X+X+X+X+X+X+X+X+X+X",
"+X+X+X+X+X+X+X+X+X+X+X@ t 7 +X+X+X+X+X+X+X+X+X+X+X+X+X+X+X+X+X+X",
"+X+X+X+X+X+X+X+X+X+X+X+X+X+X+X+X+X+X+X+X+X+X+X+X+X+X+X+X+X+X+X+X",
"+X+X+X+X+X+X+X+X+X+X+X+X+X+X+X+X+X+X+X+X+X+X+X+X+X+X+X+X+X+X+X+X"
};
