/* XPM */
static char *result[] = {
/* columns rows colors chars-per-pixel */
"32 32 7 1 ",
"  c #1E1406",
". c #462E1A",
"X c #6B452A",
"o c #8F6E48",
"O c #CA9759",
"+ c #E1C190",
"@ c None",
/* pixels */
"@@@@@                      @@@@@",
"@@@@ OOOOOOOOOOOOOOOOOOOOOO @@@@",
"@@@@ OOOOOOOOOOOOOOOOOOOOOO @@@@",
"@@@@@ XXXXXXXXXXXXXXXXXXXX @@@@@",
"@@@@ OOOOOOOOOOOOOOOOOOOOOO @@@@",
"@@@@ OOOOOOOOOOOOOOOOOOOOOO @@@@",
"@@@@@ XXXXXXXXXXXXXXXXXXXX @@@@@",
"@@@@ OOOOOOOOOOOOOOOOOOOOOO @@@@",
"@@@@ OOOOOOOOOOOOOOOOOOOOOO @@@@",
"@@@@@ XXXXXXXXXXXXXXXXXXXX @@@@@",
"@@@@ OOOOOOOOOOOOOOOOOOOOOO @@@@",
"@@@@ ++++++++++++++++++++++ @@@@",
"@@@@ oooooooooooooooooooooo @@@@",
"@@@@ oooooooooooooooooooooo @@@@",
"@@@@@ .................... @@@@@",
"@@@@@ oo...........XXXX.oo @@@@@",
"@@@@@ oo.XX.XX.XX.Ooooo.oo @@@@@",
"@@@@@ oo.XX.XX.XXOoooo..oo @@@@@",
"@@@@@ oo.XX.XX.XOoooo.X.oo @@@@@",
"@@@@@ oo.XX.XX.Ooooo.XX.oo @@@@@",
"@@@@@ oo.XX.XXOoooo..XX.oo @@@@@",
"@@@@@ oo.XX.XOoooo.X.XX.oo @@@@@",
"@@@@@ oo.XX.Ooooo.XX.XX.oo @@@@@",
"@@@@@ oo.XXOoooo..XX.XX.oo @@@@@",
"@@@@@ oo.XOoooo.X.XX.XX.oo @@@@@",
"@@@@@ oo.Ooooo.XX.XX.XX.oo @@@@@",
"@@@@@ oo.oooo..XX.XX.XX.oo @@@@@",
"@@@@@ oo.ooo.X.XX.XX.XX.oo @@@@@",
"@@@@@ OOOOOOOOOOOOOOOOOOOO @@@@@",
"@@@@ oooooooooooooooooooooo @@@@",
"@@@@ oooooooooooooooooooooo @@@@",
"@@@@@                      @@@@@"
};
