/* XPM */
static char *_21b70cf33564531c26885f8b65554806yfSxmgwtNZnAEgq[] = {
/* columns rows colors chars-per-pixel */
"32 28 18 1 ",
"  c None",
". c #0C0A07",
"X c #291A18",
"o c #362623",
"O c #3A2B28",
"+ c #4C342F",
"@ c #553D39",
"# c #4C403D",
"$ c #554C3C",
"% c #425059",
"& c #634A45",
"* c #57636B",
"= c #6E7D61",
"- c #B56A68",
"; c #C0AC98",
": c #D2A394",
"> c #E4B5A5",
", c #DBCBBC",
/* pixels */
"             . ..               ",
"           ..+.++..             ",
"          .@&&+&&@+..           ",
"           .&&&&&&&+@.          ",
"          .@&&&&&&&@@.          ",
"          .&++&&&&&&@.          ",
"         .+&:+&+&&&@++.         ",
"          .&::&:&&&&+.          ",
"          .:.:>.:&+&@@.         ",
"         .+:X>>X::-&@.          ",
"          .:>>>>::@@@.          ",
"           .:>>>:@@@.           ",
"            .:::.@@.            ",
"           .O;;;O=O.            ",
"           .O,,;##O=.           ",
"           .O,,,O#O=.           ",
"           .O;,,O#O=.           ",
"           .O,;,O#O=.           ",
"           .O%%%O>>=.           ",
"           .%%%%%%..            ",
"           .****%%.             ",
"           .**%**%.             ",
"           .*%.%*%.             ",
"           .%%.%*%.             ",
"           .$$.ooo.             ",
"            ...$$$.             ",
"            .. ...              ",
"                                "
};
