/* XPM */
static char *_8b02d1ed62e40a2807aeaee14c9225fKGR6hv9j5sB3ou6j[] = {
/* columns rows colors chars-per-pixel */
"32 28 3 1 ",
"  c None",
". c black",
"X c white",
/* pixels */
"                                ",
"                                ",
"                                ",
"                                ",
"                                ",
"                                ",
"            XX    XX            ",
"           X  X  X XX           ",
"           X  X  X  X           ",
"             XX     X           ",
"             X.....X            ",
"             .......            ",
"             .......            ",
"             .......            ",
"             ..X....X           ",
"         ... ....XX.            ",
"      . ...........             ",
"       ..  ........             ",
"              .....             ",
"             XX....X            ",
"             XX....X            ",
"              .. ..             ",
"              .   .             ",
"                                ",
"                                ",
"                                ",
"                                ",
"                                "
};
