/* XPM */
static char * wall_c_right_up_xpm[] = {
"32 32 18 1",
" 	c #94928B",
".	c #573521",
"+	c #868579",
"@	c #654935",
"#	c #908E85",
"$	c #8F8D84",
"%	c #56341F",
"&	c #747064",
"*	c #6C5847",
"=	c #746F64",
"-	c #746F63",
";	c #6D5A4B",
">	c #6B6256",
",	c #736E63",
"'	c #6F6050",
")	c #55321C",
"!	c #696A19",
"~	c #72751B",
"          .               .     ",
"++++++++++@#++++++++++++++@ ++++",
"++++++++++@$++++++++++++++@ ++++",
"++++++++++@$+++++++++++++%&* +++",
"++++++++++@$+++++++++++%%=-; +++",
"++++++++++%$++++++++++%>>>,,' ++",
"%%%%%%%).%%%%%%%%%%%%%%%%%%%%%%%",
"!!!!!!!!!!!!!!!!!!!!!!!!!%+++++ ",
"!!!!!!!!!!!!!!!!!!!!!!!!!%+++++ ",
"~~~~~~~~~~~~~~~~~~~~~~~!!%+++++ ",
"~~~~~~~~~~~~~~~~~~~~~~~!!%+++++ ",
"~~~~~~~~~~~~~~~~~~~~~~~!!%+++++ ",
"~~~~~~~~~~~~~~~~~~~~~~~!!%+++++ ",
"~~~~~~~~~~~~~~~~~~~~~~~!!%+++++ ",
"~~~~~~~~~~~~~~~~~~~~~~~!!)+++++ ",
"~~~~~~~~~~~~~~~~~~~~~~~!!.+++++ ",
"~~~~~~~~~~~~~~~~~~~~~~~!!%+++++ ",
"~~~~~~~~~~~~~~~~~~~~~~~!!%%@@@@.",
"~~~~~~~~~~~~~~~~~~~~~~~!!%$$$$# ",
"~~~~~~~~~~~~~~~~~~~~~~~!!%+++++ ",
"~~~~~~~~~~~~~~~~~~~~~~~!!%+++++ ",
"~~~~~~~~~~~~~~~~~~~~~~~!!%+++++ ",
"~~~~~~~~~~~~~~~~~~~~~~~!!%+++++ ",
"~~~~~~~~~~~~~~~~~~~~~~~!!%+++++ ",
"~~~~~~~~~~~~~~~~~~~~~~~!!%+++++ ",
"~~~~~~~~~~~~~~~~~~~~~~~!!%+++++ ",
"~~~~~~~~~~~~~~~~~~~~~~~!!%+++++ ",
"~~~~~~~~~~~~~~~~~~~~~~~!!%+++++ ",
"~~~~~~~~~~~~~~~~~~~~~~~!!%+++++ ",
"~~~~~~~~~~~~~~~~~~~~~~~!!%%++++ ",
"~~~~~~~~~~~~~~~~~~~~~~~!!%>%+++ ",
"~~~~~~~~~~~~~~~~~~~~~~~!!%>%+++ "};
