/* XPM */
static char * wall_down_xpm[] = {
"32 32 18 1",
" 	c #72751B",
".	c #696A19",
"+	c #56341F",
"@	c #573521",
"#	c #55321C",
"$	c #868579",
"%	c #94928B",
"&	c #6F6050",
"*	c #736E63",
"=	c #6B6256",
"-	c #8F8D84",
";	c #6D5A4B",
">	c #746F63",
",	c #746F64",
"'	c #654935",
")	c #6C5847",
"!	c #747064",
"~	c #908E85",
"                                ",
"                                ",
"                                ",
"                                ",
"                                ",
"                                ",
"                                ",
"                                ",
"                                ",
"                                ",
"                                ",
"                                ",
"                                ",
"                                ",
"                                ",
"                                ",
"                                ",
"                                ",
"                                ",
"                                ",
"                                ",
"                                ",
"                                ",
"................................",
"................................",
"+++++++++++++++++++++++@#+++++++",
"$$%&**===+$$$$$$$$$$-+$$$$$$$$$$",
"$$$%;>,++$$$$$$$$$$$-'$$$$$$$$$$",
"$$$%)!+$$$$$$$$$$$$$-'$$$$$$$$$$",
"$$$$%'$$$$$$$$$$$$$$-'$$$$$$$$$$",
"$$$$%'$$$$$$$$$$$$$$~'$$$$$$$$$$",
"%%%%%@%%%%%%%%%%%%%%%@%%%%%%%%%%"};
