/* XPM */
static char *_93bbfd5247943bebe2a3c7b8a9eb1092gXxd83qJX8HZwAt[] = {
/* columns rows colors chars-per-pixel */
"32 32 18 1 ",
"  c #55321C",
". c #56341F",
"X c #573521",
"o c #696A19",
"O c #72751B",
"+ c #654935",
"@ c #6C5847",
"# c #6D5A4B",
"$ c #6F6050",
"% c #6B6256",
"& c #736E63",
"* c #746F63",
"= c #746F64",
"- c #747064",
"; c #868579",
": c #8F8D84",
"> c #908E85",
", c #94928B",
/* pixels */
",;;;;;.ooOOOOOOOOOOOOOOOOOOOOOOO",
",;;;;;.ooOOOOOOOOOOOOOOOOOOOOOOO",
",;;;;,.ooOOOOOOOOOOOOOOOOOOOOOOO",
",;;,,$.ooOOOOOOOOOOOOOOOOOOOOOOO",
",,,@#&.ooOOOOOOOOOOOOOOOOOOOOOOO",
"X++-*&.ooOOOOOOOOOOOOOOOOOOOOOOO",
",;;.=%.ooOOOOOOOOOOOOOOOOOOOOOOO",
",;;;.%.ooOOOOOOOOOOOOOOOOOOOOOOO",
",;;;.%.ooOOOOOOOOOOOOOOOOOOOOOOO",
",;;;;..ooOOOOOOOOOOOOOOOOOOOOOOO",
",;;;;;.ooOOOOOOOOOOOOOOOOOOOOOOO",
",;;;;;.ooOOOOOOOOOOOOOOOOOOOOOOO",
",;;;;;.ooOOOOOOOOOOOOOOOOOOOOOOO",
",;;;;;.ooOOOOOOOOOOOOOOOOOOOOOOO",
",;;;;;.ooOOOOOOOOOOOOOOOOOOOOOOO",
",;;;;;.ooOOOOOOOOOOOOOOOOOOOOOOO",
",;;;;;.ooOOOOOOOOOOOOOOOOOOOOOOO",
",;;;;;.ooOOOOOOOOOOOOOOOOOOOOOOO",
",;;;;;.ooOOOOOOOOOOOOOOOOOOOOOOO",
",;;;;;.ooOOOOOOOOOOOOOOOOOOOOOOO",
",>::::.ooOOOOOOOOOOOOOOOOOOOOOOO",
"X++++..ooOOOOOOOOOOOOOOOOOOOOOOO",
",;;;;;.ooOOOOOOOOOOOOOOOOOOOOOOO",
",;;;;;XooOOOOOOOOOOOOOOOOOOOOOOO",
",;;;;; ooOOOOOOOOOOOOOOOOOOOOOOO",
",;;;;;.ooOOOOOOOOOOOOOOOOOOOOOOO",
",;;;;;.ooOOOOOOOOOOOOOOOOOOOOOOO",
",;;;;;.ooOOOOOOOOOOOOOOOOOOOOOOO",
",;;;;;.ooOOOOOOOOOOOOOOOOOOOOOOO",
",;;;;;.ooOOOOOOOOOOOOOOOOOOOOOOO",
",;;;;;.ooOOOOOOOOOOOOOOOOOOOOOOO",
",;;;;;.ooOOOOOOOOOOOOOOOOOOOOOOO"
};
