/* XPM */
static char *_a6fe220348a4b4a89095c963843f712UrmlokrHLudxRq0E[] = {
/* columns rows colors chars-per-pixel */
"64 64 69 1 ",
"  c #002733",
". c #022935",
"X c #052E39",
"o c #082F3B",
"O c #07303C",
"+ c #09333E",
"@ c #0C3541",
"# c #0E3944",
"$ c #113B46",
"% c #133E49",
"& c #16424C",
"* c #18444E",
"= c #1A4650",
"- c #1E4C56",
"; c #1F4E58",
": c #204D56",
"> c #214F59",
", c #25545E",
"< c #265760",
"1 c #2A5B64",
"2 c #33666E",
"3 c #346770",
"4 c #386C74",
"5 c #396D75",
"6 c #3B6F78",
"7 c #3B7077",
"8 c #3B7078",
"9 c #3C727A",
"0 c #437A81",
"q c #447B82",
"w c #447C83",
"e c #467C84",
"r c #488086",
"t c #4B838B",
"y c #4B848B",
"u c #4C848B",
"i c #4E878E",
"p c #4F898F",
"a c #4F8990",
"s c #508990",
"d c #5F9CA2",
"f c #609EA3",
"g c #619EA3",
"h c #6BADB1",
"j c #6DADB1",
"k c #73B5B9",
"l c #75B7BB",
"z c #77BBBD",
"x c #78BBBF",
"c c #78BCBF",
"v c #7ABDC1",
"b c #7FC5C7",
"n c #80C4C7",
"m c #81C6C9",
"M c #84CACD",
"N c #8BD4D6",
"B c #8CD4D6",
"V c #8CD4D7",
"C c #91DADD",
"Z c #93DCDE",
"A c #93DDDE",
"S c #A2EFEF",
"D c #A2EFF0",
"F c #A3F1F1",
"G c #A5F2F3",
"H c #A8F7F7",
"J c #A8F7F8",
"K c #A8F8F8",
"L c #AFFFFF",
/* pixels */
"oOO+@#$$%*5L3&$%%%%$$%$%%$$%$$%%%%$%$%$$$$$%%%%$$$&3L3*%$$#@+OOO",
"OO#*,23339fKp33333332333332332333333333323332233235iGf93332,*@OO",
"O@-qZKLLLLLLLLLLLLLLLLLLLLLLLLLLLLLLLLLLLLLLLLLLLLLLLLLLLLLN0-@O",
"O*0Jx0559tCbe55535553535555355555555353355535555355eMVt955qlH0&+",
"@,Vl1=&&-8Fr:&%%%%%%%%%%%%%%%%%%%%%%%%%%%%%%%%%%%%%:qK0-&*=1vZ,@",
"#2Lw=$#%<xM,#@+@++@@@@+@+@@+@++@++@@+@+++@+@@++++@@%<Zv<%#$*0J2$",
"$2L5&#$-tH0&@OOOOOOOOO+O++OOOOOOOOOOOOOOOOOO++OOOO@@=eDy-$#&5L3$",
"$3L5&%-eDh>#+OOOOOOOOOOOOOOOOOOOOOOOOOOOOOOOOOOOOOO+#,jDe-%&5L3$",
"$3L8-<yDk,$@OOOoOOooOoOoOoooOooOooOOoOOOoooOOOoOOOOO@%,lDt<-7L3$",
"*9LtqvDj,%@OOoooooooooooooooooooooooooooooooooooooOOO+%,jJz5uL9=",
"3fLVKZe,%+OOooooXoXXooooooooXXXooooooXXooo.XoooooooOOO@%,0MFCLf5",
"LGLMq1*#OOOooo....................................oooOO@#&<rnLKL",
"2iLe-$@+OOooo......................................oooOO@@#:eLa3",
"&5L5&@OOOooX....... .... .......... ...............XooOOO+@&5L5*",
"$2L5%@OOOoo....        .  .      .     .   .     ....ooOO+@%5L3$",
"$3L5%+OOooo....                                  ...XooOOO+%5L3%",
"$3L5&+OOooo...                                     .XooOOO+%5L3$",
"$3L5%+OOooo....                                   ...ooOOO+%5L3%",
"$3L5&@OOooo...                                    ...ooOOO+%5L3%",
"$3L5%+OOooo...                                   ....ooOOO+%5L3$",
"$2L3%+OOooo..                                     ...ooOOO+%5L3$",
"$3L5%+OOooX...                                   ....ooOOO@%5L2$",
"$3L3%+OOOoo...                                    ...ooOO@@%5L3$",
"$3L5%+OOooX..                                    ....ooOO@@%5L3$",
"$3L3%+OOooo...                                   ....oooOO+%5L3%",
"$3L5%+OOooo...                                   ....ooOO++%5L3$",
"$2L3%+OOoo...                                    ....oooO@@&3L3$",
"$3L3%++Oooo...                                    ...ooOO@@%5L3$",
"$3L3%++Oooo...                                   ....XoOOO+%5L3%",
"$3L5&++Oooo...                                   .....oOOO+%5L3$",
"#2L3%++Oooo...                                    ...oooOOO%5L3%",
"$3L3%+OOooo...                                    ...XoOOO+%5L3$",
"$3L3%OOOooo...                                   ....ooOOO+%5L3%",
"$3L5&+OOooo...                                   ....ooOOO+%5L2%",
"$3L3%@OOoooX..                                   ....ooOO++%5L3%",
"$3L5&+OOooo...                                    ...ooOOO+%3L2$",
"$2L5%+OOooo...                                   ....ooOO+@&5L3$",
"$3L5%+OOooo....                                  ....XXoOO@%5L3%",
"$3L3%+OOooo....                                   ...XoOOO+%5L3%",
"$3L3%+OOooo...                                   ....XoOOO+%5L2%",
"$3L3&+OOooo...                                   ...XooOOO+%5L3$",
"$3L5%@+Oooo...                                    ...ooOOO+%5L2%",
"$3L5%+OOooo...                                   ....XoOOO+%5L3%",
"$3L5&+OOooX...                                    ...ooOOO+%5L3%",
"$3L5%+OOooo...                                    ..XooOOO+&5L3$",
"$2L5%OOOooo...                                    ...ooOOO@%5L3%",
"$2L5%+OOooo...                                    ...oooO+@%5L2$",
"$3L5%+OOooo...                                   ...XooOO@@%5L3%",
"$3L5%+OOooo...                                   ....oooOO+%5L3%",
"$3L5%@OOOoo..... .... . ..  . .. . .         .. .....ooOOO+%5L3%",
"*5L5%@OOOoooX.......................................oooOO+@%5L5&",
"3sLe-#@OOOooo.....................................XoooOO@@$-eLa2",
"LKLmr,*#OOOooo.X....X..........X......X.X....XXX.XoooOO+#*1wMLGL",
"5dLCDMe,$OOOoooooXXooooooXXXooooXXXXoooooXooooooooooOO@$,eZKVLf5",
"*9Lt5zHj,#+OOooooooooooooooooooooooooooooooooooooooOOO$,jDc0yL9*",
"%3L5-<tSl,#+OOOOoooOooooooooooOoooooooooooOooOoooOOOO#,lDu<-8L3%",
"$2L5&%-eDj>#+OOOOOOOOOOOOOOOOOOOOOOOOOOOOOOOOOOOOOO+#;jSe-%&5L3$",
"$2L5&#$;yDe=@OOOOOOOOOOOOO++OOOOOOOOOOOO+O+@OOOOOOO@*qJt-$#&5L2$",
"#2K0*##%<vZ<#@+++O+++++++@@++++++++++O+O+@@@+O++++@$,Mz,%##=eL2#",
"@,Zv1=&&-qK0-%%%%%%%%%%%%%%%%%%%%%%%%%%%%%&%%%%%%%%:rF5-&&*1lN,@",
"+&0Jlw558yVMe55355333355553333355535335335353353555emCt6550vH0&O",
"O#-0VLLLLLLLLLLLLLLLLLLLLLLLLLLLLLLLLLLLLLLLLLLLLLLLLLLLLLJZ0-@O",
"OO@&,22339fGi52223233332233232333233223222223332235aKd93332,*#OO",
"oOO+@#$$$=5L2&$#$$#$$$#$$$$$$#$$$$###$$#$#$$##$$$$&3L5*%$$#@OOOo"
};
