/* XPM */
static char *d188c5c758544127b011eaab9d7420bbsIKiMNyhzCuQXhsP[] = {
/* columns rows colors chars-per-pixel */
"64 64 65 1 ",
"  c #0A3117",
". c #0D341A",
"X c #10371D",
"o c #11391E",
"O c #133D21",
"+ c #174124",
"@ c #194327",
"# c #1C4629",
"$ c #1F492D",
"% c #214C2F",
"& c #224E31",
"* c #265335",
"= c #285537",
"- c #295739",
"; c #2E5C3D",
": c #305E3F",
"> c #315F40",
", c #346343",
"< c #3D6E4D",
"1 c #3F704E",
"2 c #3F7150",
"3 c #40714F",
"4 c #417351",
"5 c #467856",
"6 c #4B7F5B",
"7 c #4C805B",
"8 c #4C805C",
"9 c #4F845F",
"0 c #4F8360",
"q c #4F8460",
"w c #518661",
"e c #538964",
"r c #548965",
"t c #568D67",
"y c #578D68",
"u c #588E6A",
"i c #589069",
"p c #67A179",
"a c #69A27A",
"s c #6AA27C",
"d c #75B087",
"f c #76B188",
"g c #7CB98E",
"h c #7EBB90",
"j c #7FBC91",
"k c #81BF93",
"l c #81BF94",
"z c #82C095",
"x c #87C79B",
"c c #88C79B",
"v c #8AC99D",
"b c #8CCCA0",
"n c #94D6A7",
"m c #95D6A8",
"M c #9BDEAF",
"N c #9CDEAF",
"B c #9CDFB0",
"V c #AAEFBE",
"C c #AAF0BF",
"Z c #ACF3C1",
"A c #ADF3C2",
"S c #B0F7C5",
"D c #B0F8C5",
"F c #B3FAC7",
"G c #B7FFCC",
/* pixels */
"ooOO+@@@#%4G<%#####@@#@##@##@@####@#@##@#@@####@@@%<G3&#@@@+OOoo",
"OO+%;<<<15aDu4<<<<<<<<<<<<<<<<<<<<<<<<1<<<<<<<<<<<4tAs5<<<<;%+OO",
"OO*8MDGGGGGGGGGGGGGGGGGGGGGGGGGGGGGGGGGGGGGGGGGGGGGGGGGGGGGm6*OO",
"O%8Dk7445eMx8444444434444444444444443444444444444449bmr5448hS8%O",
"+;mh,&$$*5Cw=$##################$#################$-8D8*%%&,zM;+",
"@<G8&@@#:kb;@OOOOOOOOOOOOOOOOOOOOOOOOOOOOOOOOOOOOOO#,Mz,#@@&8S<@",
"@<G4%@#=eS8%OOOOOOOOOOOOOOOOOOOOOOOOOOOOOOOOOOOOOOOO&0Cr=#@$4G<@",
"#<G4$#=8Cd-@OOOooooooooOOOOoOoOOOOOOOOoOOOoOOOoOOoOO+-fC9*#$4G<@",
"#<G5*:rCg;#OOoooooooooooooooooooooooooooooooooooooOOO#;gCr:*5G1#",
"%5Gr8zCd;#OOooXXoXXooXoXooXooooXXXXooooXXXXoXooXXoooOO#;dSk5rG5&",
"4sGmDN8-#OOooX....................................oooOO#-8bCMGa4",
"GAGb8,&@OOooo......................................ooOOO+%:wcGDG",
"<yG9=#OOOoo....... ...... .... ........... .... ....oooOOO@=qGi<",
"%4G4$OOOooX...                .                  ....ooOOOO$4G4%",
"@<G4#OOooX...                                     ....ooOOO#4G<@",
"@<G4#OOooo...                                      ...ooOOO#4G<#",
"#<G4#OOOoo...                                      ...ooOOO#4G<@",
"@<G4#OOooX...                                     ....ooOOO#4G<#",
"@<G4#OOooX...                                     ....ooOOO#4G<#",
"@<G4#OOOoX...                                     ....ooOOO#4G<@",
"@<G4#OOOoX...                                      ...ooOOO#4G<@",
"#<G4#OOooo...                                      ...ooOOO#4G<@",
"@<G4#OOooo...                                     ....ooOOO#4G<@",
"#<G4#OOooX...                                      ...ooOOO#4G<@",
"@<G2#OOooo...                                     ....XoOOO#4G<#",
"@<G4#OOooX...                                     ....ooOOO#4G<@",
"#<G4#OOooX...                                     ....ooOOO$4G<@",
"@<G4#OOooX..                                       ...ooOOO#4G<@",
"@<G2#OOOoX..                                       ...XoOOO#4G<#",
"@<G4#OOooX...                                      ...ooOOO#4G<@",
"@<G2#OOOoo...                                      ...ooOOO$4G<#",
"#<G4#OOooo...                                      ...ooOOO#4G<@",
"#<G4#OOooo...                                     ....XoOOO$4G<#",
"@<G4#OOOoX...                                     ....ooOOO#4G<#",
"@<G1#OOooX...                                      ...XoOOO#4G<#",
"#<G4#OOooX...                                      ...ooOOO#4G<@",
"@<G4#OOooX...                                     ....ooOOO$4G<@",
"@<G4#OOooX...                                      ....oOOO#4G<#",
"@<G4$OOooo..                                       ...XoOOO#4G<#",
"#<G4#OOooX....                                     ...ooOOO#4G<#",
"@<G4#OOOoo...                                     ....ooOOO#4G<@",
"@<G4#OOooX..                                      ....ooOOO#4G<#",
"#<G4#OOOoo...                                     ....XoOOO#4G<#",
"@<G4#OOOoX..                                        ..ooOOO#4G<#",
"@<G4#OOooo..                                       ...ooOOO#4G<@",
"@<G4$OOooX...                                     ....ooOOO#4G<#",
"@<G4#OOooo...                                     ....XoOOO#4G<@",
"@<G4#OOooX...                                      ...XoOOO#4G<#",
"@<G4#OOooo...                                      ...XoOOO#4G<#",
"@<G4#OOooX...                                     ....ooOOO#4G<#",
"%4G4#OOOooo... ..         .   ..  . .  ... . .    ....ooOOO#4G4%",
"<uGw=@OOOoo.... .....................................ooOO+@=9Gu<",
"GDGvw;%+OOoo.......................................oooOO+&,8bGAG",
"4pGMCb8-#Oooo......................................ooOO#-wBDmGa4",
"&5Ge5kSd;#OOoooXXooooXoooooXXXXoXoooXooooooooooooooooO#;dCk6rG5&",
"#<G5=:eVg;#OooooooooooooooooooooooooooooooooooooooOOO#;gVr>*5G<#",
"#<G4$#=8Cd-+OOoooOoooooOooooOoOoOoooooOOooooooOooOOO@-fV8=#$4G<#",
"#<G4$@#-rCw&OOOOOOOOOOOOOOOOOOOOOOOOOOOOOOOOOOOOOOOO%8De*#@$4G<@",
"@<D8%@@#>kN,@OOOOOOOOOOOOOOOOOOOOOOOOOOOOOOOOOOOOOO@:bj:#@@&8G<@",
"O;Ml,&$$*8D8=######################################=wA4*$$&,gn:+",
"O%8Sh8445rmvw44443444344434444344444444444443344444wvMe5448zS8%O",
"O+*8nGGGGGGGGGGGGGGGGGGGGGGGGGGGGGGGGGGGGGGGGGGGGGGGGGGGGGDM8*+O",
"oO+%:<<<<5aAt4<<<<<<<<<<<<<<<<<<<<<<<<<<<<<<<<<<<<4uDa5<<<<;%+Oo",
"oOOO+@@##&4G<$@@@#@@@@@@@@@#@@@@#@@@@@@@@@@@@@@#@@%<G4&##@@OOOoo"
};
