/* XPM */
static char *e7b2fc2865834777b7b4ffeeb75d5c58o4Abs9k3PrvUyp9N[] = {
/* columns rows colors chars-per-pixel */
"64 64 68 1 ",
"  c #2F093C",
". c #310B3E",
"X c #330E40",
"o c #361244",
"O c #381446",
"+ c #391548",
"@ c #3E1C4E",
"# c #401D4F",
"$ c #411F50",
"% c #432253",
"& c #472658",
"* c #482758",
"= c #4C2C5D",
"- c #4E2F60",
"; c #4F3061",
": c #533566",
"> c #543768",
", c #563969",
"< c #593C6C",
"1 c #5D4272",
"2 c #614776",
"3 c #624877",
"4 c #654B7A",
"5 c #684F7E",
"6 c #69517F",
"7 c #6B5282",
"8 c #6F5886",
"9 c #705987",
"0 c #725B89",
"q c #725C8A",
"w c #745F8B",
"e c #755F8C",
"r c #76618F",
"t c #776290",
"y c #786390",
"u c #7A6593",
"i c #7B6795",
"p c #7C6794",
"a c #7B6995",
"s c #7C6895",
"d c #8B7AA6",
"f c #8C7BA7",
"g c #8C7CA7",
"h c #8C7BA8",
"j c #978AB5",
"k c #988AB5",
"l c #9D92BD",
"z c #9F94BE",
"x c #A196C1",
"c c #A398C2",
"v c #A499C3",
"b c #A9A0CA",
"n c #ABA3CC",
"m c #AEA6D0",
"M c #B5AFD8",
"N c #B5B0D8",
"B c #BBB6DF",
"V c #BCB7DF",
"C c #BBB7E0",
"Z c #BCB7E0",
"A c #BCB8E0",
"S c #CACAF1",
"D c #CCCBF2",
"F c #CDCDF4",
"G c #D0D1F7",
"H c #D0D1F8",
"J c #D3D4FA",
"K c #D7D9FF",
/* pixels */
"ooOO+@@@@%4K2%@@@@@@@@@@@@@@@@@@@@@@@@@@@@@@@@@@@@%2K4%@@@@++Ooo",
"oO@%:12236dHi43222222222232222222222223322222222224uFg62321>%+Oo",
"O+=9AHKKKKKKKKKKKKKKKKKKKKKKKKKKKKKKKKKKKKKKKKKKKKKKKKKKKKKM8=+O",
"O%9Hc8445rBbq44444444444444444444444444444444444444qmNt5440zG8%O",
"+:Mz<&%%=4Dw=%$%$$$$$%$$$%%$%$$$%$$$$$$$$$$$$$$$$$%=9H8=%%*<vV:+",
"@1K0*@@$>xm:@+++++++++++O+++++++O+++++++++++++++O++@,Zv,%@@%8H1@",
"@2K4%@#=tH8%++OOOOOOOOOOOOoOOOOOOoOOOOOOOOOOOOOOOO++&qSt=@@%4K2@",
"@2K4%$=0Sj-+OOoooooooooOooooOooOoOooooooooooooooooO++:kSq=@%4K2@",
"@2K5=>tSl:@+OooooooooooooooooooooooooooooooooooooooO+@:lSr>*4K3@",
"%7Kt9vSj:$+oooooooooooooooooooooooooooooooooooooooooo+#:jHx5yK6*",
"4fKMHAq;@OooooXXXXXXXXXXXXXXXXXXXXXXXXXXXXXXXXXXXXoooo+@;8mSBKd4",
"KFKm0<&@OOoooX.XXXXXX.XX...XXXXXXXXXXXXXXXX.XXXXXXooooO++%>ebKJK",
"2uKq=@+OOooXXX....................................XXoooO++@=qKa3",
"%4K4%+OOoooX.......................................XooooO++%4K4%",
"@2K4%+OoooXX.... .  . .. .. .   ..   . .  ..  .  ...XXoooO+%4K2@",
"@3K4$+OoooXX...                                  ...XXooOO+$4K2@",
"@3K4%+oOooXX..                                   ...XXooOO+$4K2@",
"@2K4$+OooXX....                                 . ...XoooO+%4K2@",
"@2K4$+OoooX...                                    ...XooOo+%4K2@",
"@2K4$+ooooX....                                 ....XXooOO+$4K2@",
"@2K4$+OooXXX...                                  ...XXoooO+%4K2@",
"@2K4%+ooooX....                                  ....XooOO+%4K2@",
"@2K4$+OoooX...                                    ..XXooOO+$4K2@",
"@2K4$+OoooXX..                                   ....XooOO+%4K2@",
"@3K4$+OoooX...                                   ....XooOO+$4K2@",
"@3K4$+OooXX....                                 .....XooOO+$4K2@",
"@2K4$+ooooXX...                                  ...XXooOO+%4K2@",
"@2K4$+OoooXX...                                  ...XXooOO+$4K2@",
"@2K4$+OOooXX..                                   ....XooOO+%4K2@",
"@2K4%+ooooXX..                                  .....XooOO+$4K2@",
"@2K4$+ooooXX..                                   ...XXooOOO%4K2@",
"@2K4$+OoooXX..                                    ..XXoooO+$4K2@",
"@2K4$OOoooXX...                                  ....XooOO+%4K2@",
"@2K4%+ooooX...                                   ...XXooOO+$4K2@",
"@2K4$+ooooXX...                                  ...XXooo++$4K2@",
"@2K4%OOooXXX..                                    ..XXoooO+%4K2@",
"@2K4$+oooXX....                                  ...XXoooO+%4K2@",
"@2K4$+ooooXX...                                  ....XXooO+$4K2@",
"@2K4%+OoooX....                                  ....XooOO+$4K2@",
"@2K4$+ooooXX...                                  ...XXooOO+%4K2@",
"@2K4%+ooooXX...                                  ...XXoooO+$4K2@",
"@2K4$+OooXX...                                  ....XXooOO+$4K2@",
"@2K4$OoOooXX...                                  ....XooOO+$4K2@",
"@3K4$+oOoXXX...                                   ..XXooOO+%4K2@",
"@2K4%+OoooX...                                   ...XXooOO+%4K2@",
"@2K4%OOoooX...                                    ..XXoooO+$4K2@",
"@2K4$+ooooXX...                                  ...XXooOO+%4K2@",
"@2K4$+OoooX...                                   ...XXoooO+$4K2@",
"@2K4%+ooooX...  .  . ..     .  ... . .           ....XooOO+%4K2@",
"@2K4$+OoooXX..............  ...... ...... .  .. ....XXoooO+$4K2@",
"%4K4$+OOoooXX......................................XXXoooO+%4K4%",
"3sKq=@+OOooXX.....................................XXoooO++@=qKp2",
"KJKbe:%@OooooXXXX..XX.XX...X.XXXX.XXX.X.XX.XXXXXXXXoooOO@&<0mKFK",
"4dKBSm0;@OooooXXXXXXXXXXXXXXXXXXXXXXXXXXXXXXXXXXXXoooO+@;qAHNKd4",
"%6Kr4xGj:@OooooooooooooooooooooooooooooooooooooooooooO@:kSc8tK7%",
"@2K4=>rSl:@OoooooooooooooooooooooooooooooooooooooooOO@:lSt,=5K2@",
"@2K4%#=qSj;+OOooooooooooooooooooooooooooooooooooooO++=kSq=$%4K2@",
"@2K4%@@-tSq&+OOOOOOOOOOOOoOOOOOOOOoOOOOOOOOOoOOOoOO+%0Hr=@@%4K2@",
"@1H9%@@%,cA,@++++O++O++++O+++++++O+++O+O+++O+O+++++@:mx>$@@*0K1@",
"+:Cc<*%%=8H9=$$%$$$$$$$$$$$$$$$$$$$$$$$$%$$$$$$$$$$=eS4=%%%<lN:+",
"O%8Hz0444yNnw44444444444444444444444444444444444444wbBr4448cH8%O",
"o+=8NKKKKKKKKKKKKKKKKKKKKKKKKKKKKKKKKKKKKKKKKKKKKKKKKKKKKKHB8*+O",
"oO+%:12227hFu42222222222222222222222222222222222234pJd62221:%+Oo",
"ooOO+@@@@*4K2%@@@@@@@@@@@@@@@@@@@@@@@@@@@@@@@@@@@@%2K4%@@@@+OOoo"
};
