/* XPM */
static char *_19db10c1e32478181c6746f13db562blBFl5gAV5Y4auPW5[] = {
/* columns rows colors chars-per-pixel */
"64 64 61 1 ",
"  c #342401",
". c #382704",
"X c #392906",
"o c #3E2D09",
"O c #3F300C",
"+ c #402F0B",
"@ c #42320E",
"# c #463511",
"$ c #483713",
"% c #473813",
"& c #493914",
"* c #4E3D19",
"= c #503F1A",
"- c #54431E",
"; c #574520",
": c #584721",
"> c #5D4B26",
", c #5F4E28",
"< c #604F29",
"1 c #64522C",
"2 c #6E5C35",
"3 c #705D36",
"4 c #715F38",
"5 c #74613A",
"6 c #77643D",
"7 c #7A673F",
"8 c #7A6740",
"9 c #796840",
"0 c #816E46",
"q c #847149",
"w c #87744B",
"e c #8B774F",
"r c #8B784F",
"t c #8B7850",
"y c #8E7A52",
"u c #8F7C53",
"i c #907C53",
"p c #A38D64",
"a c #A38F65",
"s c #B19B71",
"d c #B19C71",
"f c #BBA57B",
"g c #BDA87C",
"h c #BFA97E",
"j c #C1AB7F",
"k c #C7B185",
"l c #C9B286",
"z c #CDB68A",
"x c #D7BF92",
"c c #D6C093",
"v c #DDC597",
"b c #DEC699",
"n c #EFD7A9",
"m c #F0D7A9",
"M c #F0D8AA",
"N c #F3DBAC",
"B c #F3DBAD",
"V c #F7DFB0",
"C c #F8DFB0",
"Z c #F8E0B1",
"A c #FFE6B7",
/* pixels */
"Xooo@@###*5A3*####################################*4A5*###@@oooX",
"oo@*,23339aZu54333332333332332333333334323332233236yNa73432,*@oo",
"o@-0bCAAAAAAAAAAAAAAAAAAAAAAAAAAAAAAAAAAAAAAAAAAAAAAAAAAAAAx0-@o",
"o*0Ch0657evkq65555555555555555555555555555555555555qzxe7660fV0*o",
"@,xf1=&&-7Mq;&&&$#&%&&$$&&&&&%$&&$$&%%&&%$%&&$&%%%&;0C0-**-1jb,@",
"#2A0=#@$<hz,@+o+oo++++o+oooo+oo+ooo+o+ooo+o++oooo+@#1bj1&@#*0C2#",
"#2A5*##;eV0*@ooooooooooooooooooooooooooooooooooooo+@=qMe;#@*5A3#",
"#3A5&$;qms:@oooooooooooooooooooooooooooooooooooooooo@:dmq-#*5A3#",
"#3A7-<eMf,#@oXXXooXXXXXXoXXXoXXoXXXXXoooXXXoXXXXoooo@#,fme<-6A4#",
"*7Ae0jMd,#@oXXXXXXXXXXXXXXXXXXXXXXXXXXXXXXXXXXXXXXXooo#,sCh6tA7-",
"5aAcZbq:#oooXX..XXXX....XXXXXXXX...XXXXXXXXX....XXXooo+#:0zMbAa5",
"ANAz01*@oooXX.....................................XXXoo+@*<wkAZA",
"2yAq-#@oooXXX.......................................XXoo+@@;qAi3",
"*5A5&@ooXXX........   .. .  ....  .     ............XXXooo@&5A5*",
"#2A5&+ooXXX....                            .     ....XXXoo@&5A3#",
"#4A5%oooXXX....                                  .....XXooO&5A3#",
"#3A5&oooXX...                                     ...XXXooo%5A3#",
"#3A5$oooXX...                                     ...XXXooo&5A3#",
"#3A5&oooXX....                                    ...XXXooO&5A3#",
"#3A5%oooXX....                                    ...XXXooO&5A3#",
"#2A5&oooXXX..                                      ..XXoooO&5A3#",
"#3A5&oooXXX..                                      ..XXXooO&5A2#",
"#3A5&oooXXX..                                     ...XXXooo&5A3#",
"#3A5&oooXXX..                                      ..XXoooO&5A3#",
"#3A5$oooXXX...                                    ....XXooo&5A3#",
"#3A5&oooXXX...                                    ....XXooO&5A3#",
"#2A5%oooXXX...                                    ....XXooO&5A3#",
"#3A5$oooXXX...                                    ....XXooO&5A3#",
"#3A5$oooXX....                                   ....XXXooO&5A3#",
"#3A5&oooXX....                                   ....XXXooO&5A3#",
"#2A5$oooXX....                                    ...XXXooo&5A3#",
"#3A5&oooXX....                                    ...XXoooO&5A3#",
"#3A5%oooXXX...                                    ....XXooo&5A3#",
"#3A5&oooXXX...                                    ...XXXooo&5A2#",
"#3A4$oooXXX...                                   . ...XXooO&5A3#",
"#3A5&oooXXX..                                      ...XXooO&5A2#",
"#2A5#oooXXX..                                     ...XXXooO&5A3#",
"#3A5$oooXXX..                                      ..XXXooO%5A3#",
"#3A5&oooXXX..                                     ...XXXooO%5A3#",
"#3A5%oooXX....                                   ....XXoooO&5A2#",
"#3A5&oooXXX...                                    ....XXooO&5A3#",
"#3A5$oooXXX...                                    ....XXooO&5A2#",
"#3A5#oooXXX..                                     ....XXooO%5A3#",
"#3A5&oooXXX..                                      ...XXooO&5A3#",
"#3A5&oooXX...                                      ..XXXooO&5A3#",
"#2A5&oooXX...                                     ...XXXooO%5A3#",
"#2A5$oooXXX...                                   ....XXXooO&5A2#",
"#3A5&oooXX...                                    ....XXXooO%5A3#",
"#3A5&oooXXX...                                    ....XXooO&5A3#",
"#3A5&+ooXXX...     .             .                ....XXooO&5A3#",
"*5A6&+oooXXX..... . ..  ....  .......  ..... ..  ....XXXoo@&6A5*",
"4iAq;#@oooXXX......................................XXXXo+@#-qAi2",
"AZAlw,*@oooXXX....................................XXXooo@*1qzANA",
"5aAvMz0:#oooXXXXXXXXX...XXXXXXXXXXXX....XXXXXXXXXXXXXo+#:qbCcAa5",
"*7Ae6hVs>#ooXXXXXXXXXXXXXXXXXXXXXXXXXXXXXXXXXXXXXXXXoo#,dMh0eA7*",
"#3A6;<enf,#oXoooXXXoXXXXXXXXXXoXXXXXXXXXXXoXXoXXXoooo#,fme<-7A3#",
"#2A5*#;qmd:@ooooooooooooooooooooooXooooooooooooooooo@:dnq;$*6A3#",
"#2A5&@#:eMq=@oooooooooooooooooooooooooooooooooooooo@*0Ce-#@*6A2#",
"@2C0*#@&<jb1@+oooooooooooooooooooooooooooooooooooo@#,zh,$@#-qA2@",
"@,bj1=**-0C0;&$&$&$$$%&$$$%$%$$%&$$%$%&$&$&%%%%$$#&;qM6-&&*1fx,@",
"o*0Cf0657rxzq55555555555555555555555555555555555555qlve7550jV0*o",
"o@-0xAAAAAAAAAAAAAAAAAAAAAAAAAAAAAAAAAAAAAAAAAAAAAAAAAAAAACb0-@o",
"oo@*,22339aNy52223233332233232323233223222223332235iZa83332,*@oo",
"Xooo@@###-5A2*####################################*3A5*###@@oooX"
};
